SplineFontDB: 3.2
FontName: IRTabassom
FullName: IRTabassom
FamilyName: IRTabassom
Weight: Book
Copyright: Copyright (c) 2022, Information Technology Organization of Iran (ito.gov.ir)
Version: 1.001
ItalicAngle: 0
UnderlinePosition: -100
UnderlineWidth: 60
Ascent: 1638
Descent: 410
InvalidEm: 0
sfntRevision: 0x00010042
LayerCount: 2
Layer: 0 1 "Back" 1
Layer: 1 1 "Fore" 0
XUID: [1021 420 722297922 4904318]
StyleMap: 0x0040
FSType: 0
OS2Version: 3
OS2_WeightWidthSlopeOnly: 0
OS2_UseTypoMetrics: 0
CreationTime: 1356350500
ModificationTime: 1662631066
PfmFamily: 17
TTFWeight: 400
TTFWidth: 5
LineGap: 100
VLineGap: 0
Panose: 2 0 5 3 0 0 0 2 0 2
OS2TypoAscent: 1878
OS2TypoAOffset: 0
OS2TypoDescent: -913
OS2TypoDOffset: 0
OS2TypoLinegap: 1500
OS2WinAscent: 1878
OS2WinAOffset: 0
OS2WinDescent: 913
OS2WinDOffset: 0
HheadAscent: 1878
HheadAOffset: 0
HheadDescent: -913
HheadDOffset: 0
OS2SubXSize: 1434
OS2SubYSize: 1331
OS2SubXOff: 0
OS2SubYOff: 293
OS2SupXSize: 1434
OS2SupYSize: 1331
OS2SupXOff: 0
OS2SupYOff: 930
OS2StrikeYSize: 50
OS2StrikeYPos: 250
OS2CapHeight: 1885
OS2XHeight: 594
OS2FamilyClass: 2048
OS2Vendor: 'PARS'
OS2CodePages: 20000041.00000000
OS2UnicodeRanges: 00002003.00000000.00000000.00000000
Lookup: 1 1 0 "'isol' Isolated Forms in Arabic lookup 0" { "'isol' Isolated Forms in Arabic lookup 0 subtable"  } ['isol' ('arab' <'dflt' > ) ]
Lookup: 1 1 0 "'init' Initial Forms in Arabic lookup 1" { "'init' Initial Forms in Arabic lookup 1 subtable"  } ['init' ('arab' <'dflt' > ) ]
Lookup: 1 1 0 "'fina' Terminal Forms in Arabic lookup 2" { "'fina' Terminal Forms in Arabic lookup 2 subtable"  } ['fina' ('arab' <'dflt' > ) ]
Lookup: 1 1 0 "'medi' Medial Forms in Arabic lookup 3" { "'medi' Medial Forms in Arabic lookup 3 subtable"  } ['medi' ('arab' <'dflt' > ) ]
Lookup: 4 1 0 "'ccmp' Glyph Composition/Decomposition in Arabic lookup 4" { "'ccmp' Glyph Composition/Decomposition in Arabic lookup 4 subtable"  } ['ccmp' ('arab' <'dflt' > ) ]

StartChar: quotedbl
Encoding: 34 34 4
Width: 480
Flags: W
LayerCount: 2
Fore
SplineSet
78 1185 m 1,0,-1
 180 1185 l 1,1,-1
 158 863 l 1,2,-1
 90 863 l 1,3,-1
 78 1185 l 1,0,-1
291 1185 m 1,4,-1
 392 1185 l 1,5,-1
 370 863 l 1,6,-1
 303 863 l 1,7,-1
 291 1185 l 1,4,-1
EndSplineSet
EndChar

StartChar: quotesingle
Encoding: 39 39 5
Width: 308
Flags: W
LayerCount: 2
Fore
SplineSet
120 1185 m 1,0,-1
 221 1185 l 1,1,-1
 199 863 l 1,2,-1
 132 863 l 1,3,-1
 120 1185 l 1,0,-1
EndSplineSet
EndChar

StartChar: asterisk
Encoding: 42 42 6
Width: 1126
Flags: W
LayerCount: 2
Fore
SplineSet
555 182 m 1,0,-1
 561 522 l 1,1,-1
 342 302 l 1,2,-1
 237 302 l 1,3,-1
 514 581 l 1,4,-1
 190 581 l 1,5,-1
 210 674 l 1,6,-1
 534 674 l 1,7,-1
 264 939 l 1,8,-1
 357 939 l 1,9,-1
 566 734 l 1,10,-1
 572 1034 l 1,11,-1
 691 1074 l 1,12,-1
 686 747 l 1,13,-1
 892 939 l 1,14,-1
 1000 939 l 1,15,-1
 717 674 l 1,16,-1
 1052 674 l 1,17,-1
 1030 581 l 1,18,-1
 716 581 l 1,19,-1
 989 302 l 1,20,-1
 897 302 l 1,21,-1
 683 522 l 1,22,-1
 675 221 l 1,23,-1
 555 182 l 1,0,-1
EndSplineSet
EndChar

StartChar: plus
Encoding: 43 43 7
Width: 941
GlyphClass: 2
Flags: W
LayerCount: 2
Fore
SplineSet
265 417 m 0,0,1
 157 401 157 401 101 388 c 1,2,-1
 30 501 l 1,3,-1
 428 500 l 1,4,5
 424 558 424 558 410 651 c 0,6,7
 394 759 394 759 381 815 c 1,8,-1
 494 886 l 1,9,-1
 493 500 l 1,10,-1
 837 499 l 1,11,-1
 808 395 l 1,12,13
 672 445 672 445 493 439 c 1,14,-1
 492 79 l 1,15,-1
 388 108 l 1,16,17
 439 249 439 249 431 436 c 1,18,19
 370 432 370 432 265 417 c 0,0,1
EndSplineSet
EndChar

StartChar: hyphen
Encoding: 45 45 8
Width: 721
Flags: W
LayerCount: 2
Fore
SplineSet
638 269 m 1,0,-1
 82 269 l 1,1,-1
 82 381 l 1,2,-1
 638 381 l 1,3,-1
 638 269 l 1,0,-1
EndSplineSet
EndChar

StartChar: period
Encoding: 46 46 9
Width: 517
GlyphClass: 2
Flags: W
LayerCount: 2
Fore
SplineSet
454 106 m 0,0,1
 454 60 454 60 424 29.5 c 128,-1,2
 394 -1 394 -1 348 -1 c 0,3,4
 303 -1 303 -1 273 29.5 c 128,-1,5
 243 60 243 60 243 106 c 0,6,7
 243 150 243 150 273.5 180.5 c 128,-1,8
 304 211 304 211 348 211 c 0,9,10
 393 211 393 211 423.5 180.5 c 128,-1,11
 454 150 454 150 454 106 c 0,0,1
EndSplineSet
EndChar

StartChar: slash
Encoding: 47 47 10
Width: 817
Flags: W
LayerCount: 2
Fore
SplineSet
775 1079 m 1,0,1
 560 678 560 678 389 352 c 0,2,3
 314 208 314 208 152 -166 c 1,4,-1
 103 -65 l 1,5,6
 226 121 226 121 348 358 c 0,7,8
 412 484 412 484 636 1074 c 1,9,-1
 775 1079 l 1,0,1
EndSplineSet
EndChar

StartChar: less
Encoding: 60 60 11
Width: 1117
Flags: W
LayerCount: 2
Fore
SplineSet
955 58 m 1,0,-1
 150 444 l 1,1,-1
 150 534 l 1,2,-1
 955 918 l 1,3,-1
 955 784 l 1,4,-1
 331 489 l 1,5,-1
 955 192 l 1,6,-1
 955 58 l 1,0,-1
EndSplineSet
EndChar

StartChar: equal
Encoding: 61 61 12
Width: 881
Flags: W
LayerCount: 2
Fore
SplineSet
434 328 m 0,0,1
 373 325 373 325 265 309 c 128,-1,2
 157 293 157 293 101 280 c 1,3,-1
 30 393 l 1,4,-1
 837 391 l 1,5,-1
 808 287 l 1,6,7
 650 345 650 345 434 328 c 0,0,1
434 545 m 0,8,9
 650 528 650 528 808 586 c 1,10,-1
 837 482 l 1,11,-1
 30 480 l 1,12,-1
 101 593 l 1,13,14
 157 580 157 580 265 564 c 128,-1,15
 373 548 373 548 434 545 c 0,8,9
EndSplineSet
EndChar

StartChar: greater
Encoding: 62 62 13
Width: 1117
Flags: W
LayerCount: 2
Fore
SplineSet
966 444 m 1,0,-1
 160 58 l 1,1,-1
 160 192 l 1,2,-1
 786 489 l 1,3,-1
 160 784 l 1,4,-1
 160 918 l 1,5,-1
 966 534 l 1,6,-1
 966 444 l 1,0,-1
EndSplineSet
EndChar

StartChar: bracketleft
Encoding: 91 91 14
Width: 649
GlyphClass: 2
Flags: W
LayerCount: 2
Fore
SplineSet
564 -233 m 1,0,-1
 191 -233 l 1,1,-1
 191 1693 l 1,2,-1
 564 1693 l 1,3,-1
 564 1595 l 1,4,-1
 331 1595 l 1,5,-1
 331 -137 l 1,6,-1
 564 -137 l 1,7,-1
 564 -233 l 1,0,-1
EndSplineSet
EndChar

StartChar: bracketright
Encoding: 93 93 15
Width: 649
GlyphClass: 2
Flags: W
LayerCount: 2
Fore
SplineSet
212 -137 m 1,0,-1
 445 -137 l 1,1,-1
 445 1595 l 1,2,-1
 212 1595 l 1,3,-1
 212 1693 l 1,4,-1
 585 1693 l 1,5,-1
 585 -233 l 1,6,-1
 212 -233 l 1,7,-1
 212 -137 l 1,0,-1
EndSplineSet
EndChar

StartChar: grave
Encoding: 96 96 16
Width: 615
Flags: W
LayerCount: 2
Fore
SplineSet
373 935 m 1,0,-1
 88 1114 l 2,1,2
 64 1132 64 1132 49.5 1151.5 c 128,-1,3
 35 1171 35 1171 35 1194 c 0,4,5
 35 1220 35 1220 52 1236 c 128,-1,6
 69 1252 69 1252 99 1252 c 0,7,8
 118 1252 118 1252 134.5 1242.5 c 128,-1,9
 151 1233 151 1233 176 1208 c 2,10,-1
 447 935 l 1,11,-1
 373 935 l 1,0,-1
EndSplineSet
EndChar

StartChar: braceleft
Encoding: 123 123 17
Width: 833
GlyphClass: 2
Flags: W
LayerCount: 2
Fore
SplineSet
713 -346 m 1,0,-1
 713 -375 l 1,1,2
 571 -355 571 -355 482.5 -259.5 c 128,-1,3
 394 -164 394 -164 394 -49 c 0,4,5
 394 13 394 13 414 94 c 128,-1,6
 434 175 434 175 434 219 c 0,7,8
 434 281 434 281 382.5 334 c 128,-1,9
 331 387 331 387 240 399 c 1,10,-1
 240 434 l 1,11,12
 331 445 331 445 382.5 497.5 c 128,-1,13
 434 550 434 550 434 613 c 0,14,15
 434 657 434 657 414 737.5 c 128,-1,16
 394 818 394 818 394 880 c 0,17,18
 394 995 394 995 482.5 1091 c 128,-1,19
 571 1187 571 1187 713 1206 c 1,20,-1
 713 1177 l 1,21,22
 614 1152 614 1152 568 1098.5 c 128,-1,23
 522 1045 522 1045 522 980 c 0,24,25
 522 931 522 931 541 848.5 c 128,-1,26
 560 766 560 766 560 709 c 0,27,28
 560 623 560 623 497.5 542.5 c 128,-1,29
 435 462 435 462 310 418 c 1,30,31
 431 373 431 373 495.5 291 c 128,-1,32
 560 209 560 209 560 123 c 0,33,34
 560 66 560 66 541 -16.5 c 128,-1,35
 522 -99 522 -99 522 -148 c 0,36,37
 522 -213 522 -213 568 -266.5 c 128,-1,38
 614 -320 614 -320 713 -346 c 1,0,-1
EndSplineSet
EndChar

StartChar: bar
Encoding: 124 124 18
Width: 348
Flags: W
LayerCount: 2
Fore
SplineSet
207 1206 m 1,0,-1
 207 -375 l 1,1,-1
 137 -375 l 1,2,-1
 137 1206 l 1,3,-1
 207 1206 l 1,0,-1
EndSplineSet
EndChar

StartChar: asciitilde
Encoding: 126 126 19
Width: 939
Flags: W
LayerCount: 2
Fore
SplineSet
884 572 m 1,0,-1
 922 572 l 1,1,2
 918 462 918 462 858.5 399.5 c 128,-1,3
 799 337 799 337 714 337 c 0,4,5
 675 337 675 337 630 350.5 c 128,-1,6
 585 364 585 364 397 440 c 0,7,8
 267 494 267 494 212 494 c 0,9,10
 153 494 153 494 112 458 c 128,-1,11
 71 422 71 422 54 339 c 1,12,-1
 17 339 l 1,13,14
 22 454 22 454 80 514.5 c 128,-1,15
 138 575 138 575 215 575 c 0,16,17
 252 575 252 575 291 563 c 0,18,19
 379 537 379 537 523.5 475.5 c 128,-1,20
 668 414 668 414 726 414 c 0,21,22
 790 414 790 414 833 455 c 128,-1,23
 876 496 876 496 884 572 c 1,0,-1
EndSplineSet
EndChar

StartChar: agrave
Encoding: 224 224 20
Width: 1075
Flags: W
LayerCount: 2
Fore
SplineSet
741 331 m 1,0,1
 720 266 720 266 690.5 213 c 128,-1,2
 661 160 661 160 626 114 c 0,3,4
 519 -19 519 -19 400 -19 c 0,5,6
 208 -19 208 -19 159 214 c 0,7,8
 133 334 133 334 157 451 c 128,-1,9
 181 568 181 568 252 683 c 0,10,11
 325 801 325 801 433 860 c 128,-1,12
 541 919 541 919 684 919 c 0,13,14
 712 919 712 919 746 918.5 c 128,-1,15
 780 918 780 918 815.5 916 c 128,-1,16
 851 914 851 914 886 912 c 128,-1,17
 921 910 921 910 952 908 c 1,18,-1
 946 646 l 1,19,-1
 946 647 l 1,20,-1
 950 254 l 2,21,22
 952 209 952 209 954.5 179.5 c 128,-1,23
 957 150 957 150 958 139 c 0,24,25
 961 114 961 114 985 114 c 0,26,27
 1053 114 1053 114 1214 346 c 1,28,-1
 1218 179 l 1,29,30
 1073 -19 1073 -19 925 -19 c 0,31,32
 785 -19 785 -19 753 126 c 0,33,34
 749 146 749 146 747 182 c 128,-1,35
 745 218 745 218 745 264 c 2,36,-1
 741 331 l 1,0,1
737 758 m 1,37,38
 688 775 688 775 647 783.5 c 128,-1,39
 606 792 606 792 561 792 c 0,40,41
 497 792 497 792 453.5 749.5 c 128,-1,42
 410 707 410 707 387 625 c 0,43,44
 362 522 362 522 357 425 c 128,-1,45
 352 328 352 328 368 248 c 0,46,47
 388 146 388 146 437 146 c 0,48,49
 493 146 493 146 589 280 c 0,50,51
 637 352 637 352 674 430 c 128,-1,52
 711 508 711 508 739 599 c 1,53,-1
 737 758 l 1,37,38
662 590 m 1,54,-1
 377 769 l 2,55,56
 353 787 353 787 338.5 806.5 c 128,-1,57
 324 826 324 826 324 849 c 0,58,59
 324 875 324 875 341 891 c 128,-1,60
 358 907 358 907 388 907 c 0,61,62
 407 907 407 907 423.5 897.5 c 128,-1,63
 440 888 440 888 465 863 c 2,64,-1
 736 590 l 1,65,-1
 662 590 l 1,54,-1
EndSplineSet
EndChar

StartChar: ocircumflex.001
Encoding: 65539 -1 26
Width: 1112
Flags: W
LayerCount: 2
Fore
SplineSet
416 -19 m 0,0,1
 301 -19 301 -19 205 70 c 0,2,3
 110 160 110 160 85 288 c 0,4,5
 32 528 32 528 170 726 c 0,6,7
 307 928 307 928 522 928 c 0,8,9
 643 928 643 928 742 842 c 1,10,11
 837 753 837 753 864 626 c 0,12,13
 890 499 890 499 869 388.5 c 128,-1,14
 848 278 848 278 781 179 c 0,15,16
 711 79 711 79 619.5 30 c 128,-1,17
 528 -19 528 -19 416 -19 c 0,0,1
483 98 m 0,18,19
 536 98 536 98 573.5 133 c 128,-1,20
 611 168 611 168 637 236 c 0,21,22
 665 310 665 310 668.5 393.5 c 128,-1,23
 672 477 672 477 652 574 c 0,24,25
 602 813 602 813 466 813 c 0,26,27
 365 813 365 813 313 670 c 0,28,29
 284 595 284 595 281 510.5 c 128,-1,30
 278 426 278 426 298 332 c 0,31,32
 324 213 324 213 370 155.5 c 128,-1,33
 416 98 416 98 483 98 c 0,18,19
EndSplineSet
EndChar

StartChar: dagger
Encoding: 8224 8224 30
Width: 932
Flags: W
LayerCount: 2
Fore
SplineSet
347 -231 m 1,0,-1
 567 622 l 1,1,-1
 248 592 l 1,2,-1
 297 700 l 1,3,-1
 576 668 l 1,4,-1
 607 1066 l 1,5,-1
 755 1093 l 1,6,-1
 621 668 l 1,7,-1
 941 700 l 1,8,-1
 895 592 l 1,9,-1
 612 622 l 1,10,-1
 496 -213 l 1,11,-1
 347 -231 l 1,0,-1
EndSplineSet
EndChar

StartChar: degree
Encoding: 176 176 31
Width: 409
Flags: W
LayerCount: 2
Fore
SplineSet
395 844 m 0,0,1
 344 844 344 844 307.5 880 c 128,-1,2
 271 916 271 916 271 968 c 0,3,4
 271 1021 271 1021 307.5 1057 c 128,-1,5
 344 1093 344 1093 395 1093 c 0,6,7
 447 1093 447 1093 483 1057 c 128,-1,8
 519 1021 519 1021 519 968 c 0,9,10
 519 916 519 916 483 880 c 128,-1,11
 447 844 447 844 395 844 c 0,0,1
395 888 m 256,12,13
 427 888 427 888 450.5 912 c 128,-1,14
 474 936 474 936 474 968 c 256,15,16
 474 1000 474 1000 450.5 1024 c 128,-1,17
 427 1048 427 1048 395 1048 c 256,18,19
 363 1048 363 1048 339 1024 c 128,-1,20
 315 1000 315 1000 315 968 c 256,21,22
 315 936 315 936 339 912 c 128,-1,23
 363 888 363 888 395 888 c 256,12,13
EndSplineSet
EndChar

StartChar: bullet
Encoding: 8226 8226 32
Width: 931
Flags: W
LayerCount: 2
Fore
SplineSet
817 662 m 256,0,1
 817 517 817 517 713.5 414 c 128,-1,2
 610 311 610 311 465 311 c 256,3,4
 320 311 320 311 217 414 c 128,-1,5
 114 517 114 517 114 662 c 256,6,7
 114 807 114 807 217 910 c 128,-1,8
 320 1013 320 1013 465 1013 c 256,9,10
 610 1013 610 1013 713.5 910 c 128,-1,11
 817 807 817 807 817 662 c 256,0,1
EndSplineSet
EndChar

StartChar: registered
Encoding: 174 174 33
Width: 897
Flags: W
LayerCount: 2
Fore
SplineSet
580 445 m 0,0,1
 448 445 448 445 354.5 538.5 c 128,-1,2
 261 632 261 632 261 764 c 256,3,4
 261 896 261 896 354.5 990 c 128,-1,5
 448 1084 448 1084 580 1084 c 0,6,7
 714 1084 714 1084 807 990 c 128,-1,8
 900 896 900 896 900 764 c 256,9,10
 900 632 900 632 806.5 538.5 c 128,-1,11
 713 445 713 445 580 445 c 0,0,1
580 484 m 0,12,13
 695 484 695 484 777.5 567 c 128,-1,14
 860 650 860 650 860 764 c 256,15,16
 860 878 860 878 777.5 961 c 128,-1,17
 695 1044 695 1044 580 1044 c 0,18,19
 466 1044 466 1044 383.5 961 c 128,-1,20
 301 878 301 878 301 764 c 256,21,22
 301 650 301 650 383.5 567 c 128,-1,23
 466 484 466 484 580 484 c 0,12,13
529 737 m 1,24,-1
 501 596 l 1,25,-1
 394 596 l 1,26,-1
 403 639 l 1,27,-1
 456 639 l 1,28,-1
 511 915 l 1,29,-1
 458 915 l 1,30,-1
 466 959 l 1,31,-1
 598 959 l 2,32,33
 751 959 751 959 751 875 c 0,34,35
 751 800 751 800 650 750 c 1,36,-1
 685 639 l 1,37,-1
 747 639 l 1,38,-1
 738 596 l 1,39,-1
 641 596 l 1,40,-1
 591 737 l 1,41,-1
 529 737 l 1,24,-1
538 782 m 1,42,-1
 574 782 l 2,43,44
 697 782 697 782 697 866 c 0,45,46
 697 915 697 915 607 915 c 2,47,-1
 564 915 l 1,48,-1
 538 782 l 1,42,-1
EndSplineSet
EndChar

StartChar: copyright
Encoding: 169 169 34
Width: 1244
Flags: W
LayerCount: 2
Fore
SplineSet
725 -27 m 0,0,1
 495 -27 495 -27 330.5 137 c 128,-1,2
 166 301 166 301 166 533 c 256,3,4
 166 765 166 765 330.5 929 c 128,-1,5
 495 1093 495 1093 725 1093 c 0,6,7
 958 1093 958 1093 1122 929 c 128,-1,8
 1286 765 1286 765 1286 533 c 256,9,10
 1286 301 1286 301 1122 137 c 128,-1,11
 958 -27 958 -27 725 -27 c 0,0,1
725 18 m 0,12,13
 939 18 939 18 1090 169 c 128,-1,14
 1241 320 1241 320 1241 533 c 256,15,16
 1241 746 1241 746 1090 897 c 128,-1,17
 939 1048 939 1048 725 1048 c 0,18,19
 513 1048 513 1048 362 897 c 128,-1,20
 211 746 211 746 211 533 c 256,21,22
 211 320 211 320 362 169 c 128,-1,23
 513 18 513 18 725 18 c 0,12,13
890 246 m 1,24,25
 785 213 785 213 704 213 c 0,26,27
 580 213 580 213 508 279.5 c 128,-1,28
 436 346 436 346 436 462 c 0,29,30
 436 625 436 625 541 734.5 c 128,-1,31
 646 844 646 844 805 844 c 0,32,33
 896 844 896 844 1003 814 c 1,34,-1
 967 675 l 1,35,-1
 915 684 l 1,36,-1
 923 766 l 1,37,38
 854 798 854 798 792 798 c 0,39,40
 688 798 688 798 616 700 c 128,-1,41
 544 602 544 602 544 462 c 0,42,43
 544 271 544 271 722 271 c 0,44,45
 823 271 823 271 902 307 c 1,46,-1
 890 246 l 1,24,25
EndSplineSet
EndChar

StartChar: trademark
Encoding: 8482 8482 35
Width: 1333
Flags: W
LayerCount: 2
Fore
SplineSet
440 1021 m 1,0,-1
 307 1021 l 1,1,-1
 288 923 l 1,2,-1
 225 923 l 1,3,-1
 254 1066 l 1,4,-1
 751 1066 l 1,5,-1
 723 923 l 1,6,-1
 661 923 l 1,7,-1
 679 1021 l 1,8,-1
 546 1021 l 1,9,-1
 456 569 l 1,10,-1
 554 569 l 1,11,-1
 545 524 l 1,12,-1
 243 524 l 1,13,-1
 253 569 l 1,14,-1
 350 569 l 1,15,-1
 440 1021 l 1,0,-1
1011 569 m 1,16,-1
 942 956 l 1,17,-1
 857 524 l 1,18,-1
 688 524 l 1,19,-1
 697 569 l 1,20,-1
 794 569 l 1,21,-1
 884 1021 l 1,22,-1
 787 1021 l 1,23,-1
 796 1066 l 1,24,-1
 1036 1066 l 1,25,-1
 1092 747 l 1,26,-1
 1265 1066 l 1,27,-1
 1481 1066 l 1,28,-1
 1473 1021 l 1,29,-1
 1375 1021 l 1,30,-1
 1285 569 l 1,31,-1
 1383 569 l 1,32,-1
 1373 524 l 1,33,-1
 1178 524 l 1,34,-1
 1270 985 l 1,35,-1
 1041 569 l 1,36,-1
 1011 569 l 1,16,-1
EndSplineSet
EndChar

StartChar: logicalnot
Encoding: 172 172 39
Width: 932
Flags: W
LayerCount: 2
Fore
SplineSet
177 510 m 1,0,-1
 193 590 l 1,1,-1
 975 590 l 1,2,-1
 906 248 l 1,3,-1
 814 248 l 1,4,-1
 866 510 l 1,5,-1
 177 510 l 1,0,-1
EndSplineSet
EndChar

StartChar: florin
Encoding: 402 402 40
Width: 679
Flags: W
LayerCount: 2
Fore
SplineSet
158 -231 m 1,0,-1
 210 -18 l 1,1,-1
 286 364 l 1,2,-1
 108 364 l 1,3,-1
 117 409 l 1,4,-1
 294 409 l 1,5,-1
 298 427 l 2,6,7
 330 586 330 586 463 692.5 c 128,-1,8
 596 799 596 799 761 799 c 0,9,10
 818 799 818 799 860 784 c 1,11,-1
 764 678 l 1,12,13
 712 729 712 729 643 729 c 0,14,15
 500 729 500 729 457 512 c 2,16,-1
 436 409 l 1,17,-1
 623 409 l 1,18,-1
 614 364 l 1,19,-1
 427 364 l 1,20,-1
 313 -213 l 1,21,-1
 158 -231 l 1,0,-1
EndSplineSet
EndChar

StartChar: ellipsis
Encoding: 8230 8230 41
Width: 1827
Flags: W
LayerCount: 2
Fore
SplineSet
758 113 m 0,0,1
 758 144 758 144 809.5 245.5 c 128,-1,2
 861 347 861 347 876 355 c 0,3,4
 907 369 907 369 964.5 307.5 c 128,-1,5
 1022 246 1022 246 1026 211 c 1,6,7
 1026 166 1026 166 977.5 79.5 c 128,-1,8
 929 -7 929 -7 908 -7 c 0,9,10
 899 -7 899 -7 851 26.5 c 128,-1,11
 803 60 803 60 778 79 c 0,12,13
 758 96 758 96 758 113 c 0,0,1
1308 113 m 0,14,15
 1308 144 1308 144 1359 245.5 c 128,-1,16
 1410 347 1410 347 1426 355 c 0,17,18
 1457 369 1457 369 1514.5 307.5 c 128,-1,19
 1572 246 1572 246 1575 211 c 0,20,21
 1575 166 1575 166 1527 79.5 c 128,-1,22
 1479 -7 1479 -7 1458 -7 c 0,23,24
 1449 -7 1449 -7 1401 26.5 c 128,-1,25
 1353 60 1353 60 1328 79 c 0,26,27
 1308 96 1308 96 1308 113 c 0,14,15
211 113 m 0,28,29
 211 144 211 144 262 245.5 c 128,-1,30
 313 347 313 347 329 355 c 0,31,32
 360 369 360 369 417.5 307.5 c 128,-1,33
 475 246 475 246 478 211 c 0,34,35
 478 166 478 166 430 79.5 c 128,-1,36
 382 -7 382 -7 361 -7 c 0,37,38
 352 -7 352 -7 304 26.5 c 128,-1,39
 256 60 256 60 231 79 c 0,40,41
 211 96 211 96 211 113 c 0,28,29
EndSplineSet
EndChar

StartChar: endash
Encoding: 8211 8211 42
Width: 434
Flags: W
LayerCount: 2
Fore
SplineSet
434 154 m 1,0,-1
 0 154 l 1,1,-1
 0 234 l 1,2,-1
 434 234 l 1,3,-1
 434 154 l 1,0,-1
EndSplineSet
EndChar

StartChar: emdash
Encoding: 8212 8212 43
Width: 1862
Flags: W
LayerCount: 2
Fore
SplineSet
1866 572 m 1,0,-1
 -4 572 l 1,1,-1
 -4 732 l 1,2,-1
 1866 732 l 1,3,-1
 1866 572 l 1,0,-1
EndSplineSet
EndChar

StartChar: quotedblleft
Encoding: 8220 8220 44
Width: 613
Flags: W
LayerCount: 2
Fore
SplineSet
340 993 m 0,0,1
 341 1058 341 1058 385 1121.5 c 128,-1,2
 429 1185 429 1185 483 1211 c 1,3,-1
 514 1153 l 1,4,5
 498 1144 498 1144 476 1120 c 128,-1,6
 454 1096 454 1096 444 1058 c 1,7,8
 510 1030 510 1030 507 975 c 0,9,10
 507 959 507 959 500.5 944.5 c 128,-1,11
 494 930 494 930 483.5 919 c 128,-1,12
 473 908 473 908 458 901.5 c 128,-1,13
 443 895 443 895 427 895 c 0,14,15
 406 895 406 895 390 903.5 c 128,-1,16
 374 912 374 912 363 925.5 c 128,-1,17
 352 939 352 939 346 957 c 128,-1,18
 340 975 340 975 340 993 c 0,0,1
121 993 m 0,19,20
 122 1058 122 1058 166 1121.5 c 128,-1,21
 210 1185 210 1185 265 1211 c 1,22,-1
 296 1153 l 1,23,24
 280 1144 280 1144 258 1120 c 128,-1,25
 236 1096 236 1096 226 1058 c 1,26,27
 292 1030 292 1030 289 975 c 0,28,29
 289 959 289 959 282.5 944.5 c 128,-1,30
 276 930 276 930 265 919 c 128,-1,31
 254 908 254 908 239 901.5 c 128,-1,32
 224 895 224 895 208 895 c 0,33,34
 188 895 188 895 171.5 903.5 c 128,-1,35
 155 912 155 912 144 925.5 c 128,-1,36
 133 939 133 939 127 957 c 128,-1,37
 121 975 121 975 121 993 c 0,19,20
EndSplineSet
EndChar

StartChar: quotedblright
Encoding: 8221 8221 45
Width: 597
Flags: W
LayerCount: 2
Fore
SplineSet
295 1113 m 0,0,1
 294 1048 294 1048 250 984.5 c 128,-1,2
 206 921 206 921 152 895 c 1,3,-1
 121 953 l 1,4,5
 137 962 137 962 159 986 c 128,-1,6
 181 1010 181 1010 191 1048 c 1,7,8
 125 1076 125 1076 128 1131 c 0,9,10
 128 1147 128 1147 134.5 1161.5 c 128,-1,11
 141 1176 141 1176 151.5 1187 c 128,-1,12
 162 1198 162 1198 176.5 1204.5 c 128,-1,13
 191 1211 191 1211 208 1211 c 0,14,15
 229 1211 229 1211 245 1202.5 c 128,-1,16
 261 1194 261 1194 272 1180.5 c 128,-1,17
 283 1167 283 1167 289 1149 c 128,-1,18
 295 1131 295 1131 295 1113 c 0,0,1
514 1113 m 0,19,20
 513 1048 513 1048 469 984.5 c 128,-1,21
 425 921 425 921 370 895 c 1,22,-1
 339 953 l 1,23,24
 355 962 355 962 377 986 c 128,-1,25
 399 1010 399 1010 409 1048 c 1,26,27
 343 1076 343 1076 346 1131 c 0,28,29
 346 1147 346 1147 352.5 1161.5 c 128,-1,30
 359 1176 359 1176 370 1187 c 128,-1,31
 381 1198 381 1198 395.5 1204.5 c 128,-1,32
 410 1211 410 1211 427 1211 c 0,33,34
 447 1211 447 1211 463 1202.5 c 128,-1,35
 479 1194 479 1194 490.5 1180.5 c 128,-1,36
 502 1167 502 1167 508 1149 c 128,-1,37
 514 1131 514 1131 514 1113 c 0,19,20
EndSplineSet
EndChar

StartChar: divide
Encoding: 247 247 46
Width: 946
Flags: W
LayerCount: 2
Fore
SplineSet
549 772 m 0,0,1
 549 736 549 736 525.5 710.5 c 128,-1,2
 502 685 502 685 466 685 c 0,3,4
 431 685 431 685 405.5 711 c 128,-1,5
 380 737 380 737 380 772 c 0,6,7
 380 808 380 808 405 831.5 c 128,-1,8
 430 855 430 855 466 855 c 0,9,10
 501 855 501 855 525 831 c 128,-1,11
 549 807 549 807 549 772 c 0,0,1
835 452 m 1,12,-1
 105 452 l 1,13,-1
 105 535 l 1,14,-1
 835 535 l 1,15,-1
 835 452 l 1,12,-1
549 215 m 0,16,17
 549 179 549 179 525.5 154 c 128,-1,18
 502 129 502 129 466 129 c 0,19,20
 431 129 431 129 405.5 154.5 c 128,-1,21
 380 180 380 180 380 215 c 0,22,23
 380 251 380 251 405 275.5 c 128,-1,24
 430 300 430 300 466 300 c 0,25,26
 549 300 549 300 549 215 c 0,16,17
EndSplineSet
EndChar

StartChar: lozenge
Encoding: 9674 9674 47
Width: 1118
Flags: W
LayerCount: 2
Fore
SplineSet
1003 699 m 1,0,-1
 560 197 l 1,1,-1
 117 699 l 1,2,-1
 560 1202 l 1,3,-1
 1003 699 l 1,0,-1
848 699 m 1,4,-1
 560 1036 l 1,5,-1
 271 699 l 1,6,-1
 560 364 l 1,7,-1
 848 699 l 1,4,-1
EndSplineSet
EndChar

StartChar: fraction
Encoding: 8260 8260 48
Width: 742
Flags: W
LayerCount: 2
Fore
SplineSet
740 1101 m 1,0,-1
 101 -82 l 1,1,-1
 -9 -82 l 1,2,-1
 629 1101 l 1,3,-1
 740 1101 l 1,0,-1
EndSplineSet
EndChar

StartChar: guilsinglleft
Encoding: 8249 8249 49
Width: 1117
Flags: W
LayerCount: 2
Fore
SplineSet
955 58 m 1,0,-1
 150 444 l 1,1,-1
 150 534 l 1,2,-1
 955 918 l 1,3,-1
 955 784 l 1,4,-1
 331 489 l 1,5,-1
 955 192 l 1,6,-1
 955 58 l 1,0,-1
EndSplineSet
EndChar

StartChar: daggerdbl
Encoding: 8225 8225 52
Width: 932
Flags: W
LayerCount: 2
Fore
SplineSet
349 -231 m 1,0,-1
 481 185 l 1,1,-1
 161 154 l 1,2,-1
 211 261 l 1,3,-1
 490 229 l 1,4,-1
 567 616 l 1,5,-1
 247 586 l 1,6,-1
 297 693 l 1,7,-1
 575 661 l 1,8,-1
 608 1066 l 1,9,-1
 758 1093 l 1,10,-1
 620 661 l 1,11,-1
 940 693 l 1,12,-1
 889 586 l 1,13,-1
 611 616 l 1,14,-1
 535 229 l 1,15,-1
 855 261 l 1,16,-1
 804 154 l 1,17,-1
 525 185 l 1,18,-1
 499 -213 l 1,19,-1
 349 -231 l 1,0,-1
EndSplineSet
EndChar

StartChar: middot.001
Encoding: 8729 8729 53
Width: 620
Flags: W
LayerCount: 2
Fore
SplineSet
429 516 m 1,0,-1
 190 516 l 1,1,-1
 190 789 l 1,2,-1
 429 789 l 1,3,-1
 429 516 l 1,0,-1
EndSplineSet
EndChar

StartChar: quotesinglbase
Encoding: 8218 8218 54
Width: 418
Flags: W
LayerCount: 2
Fore
SplineSet
103 128 m 1,0,-1
 247 231 l 1,1,-1
 353 90 l 1,2,3
 345 -56 345 -56 262.5 -134.5 c 128,-1,4
 180 -213 180 -213 36 -213 c 1,5,-1
 76 -168 l 1,6,7
 189 -158 189 -158 211 -18 c 1,8,-1
 103 128 l 1,0,-1
EndSplineSet
EndChar

StartChar: quotedblbase
Encoding: 8222 8222 55
Width: 684
Flags: W
LayerCount: 2
Fore
SplineSet
91 92 m 1,0,-1
 204 178 l 1,1,-1
 292 64 l 1,2,3
 270 -213 270 -213 31 -213 c 1,4,-1
 60 -168 l 1,5,6
 166 -148 166 -148 179 -16 c 1,7,-1
 91 92 l 1,0,-1
401 92 m 1,8,-1
 516 178 l 1,9,-1
 602 64 l 1,10,11
 581 -213 581 -213 341 -213 c 1,12,-1
 372 -168 l 1,13,14
 476 -148 476 -148 490 -16 c 1,15,-1
 401 92 l 1,8,-1
EndSplineSet
EndChar

StartChar: perthousand
Encoding: 8240 8240 56
Width: 1571
Flags: W
LayerCount: 2
Fore
SplineSet
385 533 m 0,0,1
 304 533 304 533 254.5 584.5 c 128,-1,2
 205 636 205 636 205 722 c 0,3,4
 205 865 205 865 286.5 965.5 c 128,-1,5
 368 1066 368 1066 483 1066 c 0,6,7
 567 1066 567 1066 617.5 1014.5 c 128,-1,8
 668 963 668 963 668 877 c 0,9,10
 668 733 668 733 585.5 633 c 128,-1,11
 503 533 503 533 385 533 c 0,0,1
311 715 m 0,12,13
 311 578 311 578 398 578 c 0,14,15
 463 578 463 578 517 671.5 c 128,-1,16
 571 765 571 765 571 881 c 0,17,18
 571 1022 571 1022 483 1022 c 0,19,20
 416 1022 416 1022 363.5 928 c 128,-1,21
 311 834 311 834 311 715 c 0,12,13
850 0 m 0,22,23
 769 0 769 0 719.5 51.5 c 128,-1,24
 670 103 670 103 670 189 c 0,25,26
 670 331 670 331 751 432 c 128,-1,27
 832 533 832 533 947 533 c 0,28,29
 1031 533 1031 533 1081.5 481.5 c 128,-1,30
 1132 430 1132 430 1132 344 c 0,31,32
 1132 200 1132 200 1049.5 100 c 128,-1,33
 967 0 967 0 850 0 c 0,22,23
776 182 m 0,34,35
 776 44 776 44 862 44 c 0,36,37
 929 44 929 44 982 138 c 128,-1,38
 1035 232 1035 232 1035 348 c 0,39,40
 1035 490 1035 490 948 490 c 0,41,42
 880 490 880 490 828 395.5 c 128,-1,43
 776 301 776 301 776 182 c 0,34,35
131 -27 m 1,44,-1
 1111 1093 l 1,45,-1
 1206 1093 l 1,46,-1
 225 -27 l 1,47,-1
 131 -27 l 1,44,-1
1376 0 m 0,48,49
 1294 0 1294 0 1244.5 51.5 c 128,-1,50
 1195 103 1195 103 1195 189 c 0,51,52
 1195 331 1195 331 1276.5 432 c 128,-1,53
 1358 533 1358 533 1473 533 c 0,54,55
 1557 533 1557 533 1607.5 481.5 c 128,-1,56
 1658 430 1658 430 1658 344 c 0,57,58
 1658 200 1658 200 1575.5 100 c 128,-1,59
 1493 0 1493 0 1376 0 c 0,48,49
1301 183 m 0,60,61
 1301 44 1301 44 1389 44 c 0,62,63
 1453 44 1453 44 1507 138 c 128,-1,64
 1561 232 1561 232 1561 347 c 0,65,66
 1561 490 1561 490 1473 490 c 0,67,68
 1406 490 1406 490 1353.5 395.5 c 128,-1,69
 1301 301 1301 301 1301 183 c 0,60,61
EndSplineSet
EndChar

StartChar: multiply
Encoding: 215 215 60
Width: 801
Flags: W
LayerCount: 2
Fore
SplineSet
709 -23 m 1,0,1
 645 -41 645 -41 630 -41 c 0,2,3
 626 -41 626 -41 626 -40 c 0,4,5
 599 45 599 45 540 166 c 0,6,7
 473 304 473 304 427 355 c 1,8,9
 397 302 397 302 334 153 c 0,10,11
 277 18 277 18 259 -37 c 1,12,-1
 136 -28 l 1,13,-1
 401 388 l 1,14,15
 379 418 379 418 285 520 c 0,16,17
 176 638 176 638 126 675 c 1,18,-1
 185 779 l 1,19,20
 314 617 314 617 422 427 c 1,21,22
 511 582 511 582 642 801 c 1,23,-1
 693 737 l 1,24,25
 520 552 520 552 441 395 c 1,26,-1
 709 -23 l 1,0,1
EndSplineSet
EndChar

StartChar: macron
Encoding: 175 175 61
Width: 1118
Flags: W
LayerCount: 2
Fore
SplineSet
1134 1259 m 1,0,-1
 -16 1259 l 1,1,-1
 -16 1389 l 1,2,-1
 1134 1389 l 1,3,-1
 1134 1259 l 1,0,-1
EndSplineSet
EndChar

StartChar: periodcentered
Encoding: 183 183 62
Width: 724
Flags: W
LayerCount: 2
Fore
SplineSet
482 832 m 1,0,-1
 243 832 l 1,1,-1
 243 1117 l 1,2,-1
 482 1117 l 1,3,-1
 482 832 l 1,0,-1
EndSplineSet
EndChar

StartChar: H22073
Encoding: 9633 9633 63
Width: 1237
Flags: W
LayerCount: 2
Fore
SplineSet
146 944 m 1,0,-1
 1090 944 l 1,1,-1
 1090 0 l 1,2,-1
 146 0 l 1,3,-1
 146 944 l 1,0,-1
222 868 m 1,4,-1
 222 76 l 1,5,-1
 1014 76 l 1,6,-1
 1014 868 l 1,7,-1
 222 868 l 1,4,-1
EndSplineSet
EndChar

StartChar: H18543
Encoding: 9642 9642 64
Width: 1089
Flags: W
LayerCount: 2
Fore
SplineSet
886 894 m 1,0,-1
 886 200 l 1,1,-1
 192 200 l 1,2,-1
 192 894 l 1,3,-1
 886 894 l 1,0,-1
EndSplineSet
EndChar

StartChar: H18551
Encoding: 9643 9643 65
Width: 1089
Flags: W
LayerCount: 2
Fore
SplineSet
888 930 m 1,0,-1
 888 235 l 1,1,-1
 193 235 l 1,2,-1
 193 930 l 1,3,-1
 888 930 l 1,0,-1
774 816 m 1,4,-1
 307 816 l 1,5,-1
 307 349 l 1,6,-1
 774 349 l 1,7,-1
 774 816 l 1,4,-1
EndSplineSet
EndChar

StartChar: H18533
Encoding: 9679 9679 66
Width: 1339
Flags: W
LayerCount: 2
Fore
SplineSet
204 775 m 0,0,1
 204 976 204 976 345 1117 c 128,-1,2
 486 1258 486 1258 685 1258 c 0,3,4
 885 1258 885 1258 1026 1117 c 128,-1,5
 1167 976 1167 976 1167 775 c 0,6,7
 1167 577 1167 577 1026 436 c 128,-1,8
 885 295 885 295 685 295 c 0,9,10
 486 295 486 295 345 436 c 128,-1,11
 204 577 204 577 204 775 c 0,0,1
EndSplineSet
EndChar

StartChar: openbullet
Encoding: 9702 9702 67
Width: 1089
Flags: W
LayerCount: 2
Fore
SplineSet
544 1392 m 0,0,1
 700 1392 700 1392 810.5 1281.5 c 128,-1,2
 921 1171 921 1171 921 1015 c 256,3,4
 921 859 921 859 810.5 749 c 128,-1,5
 700 639 700 639 544 639 c 256,6,7
 388 639 388 639 278 749 c 128,-1,8
 168 859 168 859 168 1015 c 256,9,10
 168 1171 168 1171 277.5 1281.5 c 128,-1,11
 387 1392 387 1392 544 1392 c 0,0,1
544 1278 m 0,12,13
 435 1278 435 1278 358.5 1200.5 c 128,-1,14
 282 1123 282 1123 282 1015 c 0,15,16
 282 906 282 906 359 829.5 c 128,-1,17
 436 753 436 753 544 753 c 256,18,19
 652 753 652 753 729.5 829.5 c 128,-1,20
 807 906 807 906 807 1015 c 0,21,22
 807 1123 807 1123 730.5 1200.5 c 128,-1,23
 654 1278 654 1278 544 1278 c 0,12,13
EndSplineSet
EndChar

StartChar: uniFFFC
Encoding: 65532 65532 68
Width: 2048
Flags: W
LayerCount: 2
Fore
SplineSet
2048 1150 m 1,0,-1
 1948 1150 l 1,1,-1
 1948 1373 l 1,2,-1
 1725 1373 l 1,3,-1
 1725 1473 l 1,4,-1
 2048 1473 l 1,5,-1
 2048 1150 l 1,0,-1
1473 1373 m 1,6,-1
 1150 1373 l 1,7,-1
 1150 1473 l 1,8,-1
 1473 1473 l 1,9,-1
 1473 1373 l 1,6,-1
2048 575 m 1,10,-1
 1948 575 l 1,11,-1
 1948 898 l 1,12,-1
 2048 898 l 1,13,-1
 2048 575 l 1,10,-1
1782 611 m 2,14,15
 1782 370 1782 370 1571 370 c 0,16,17
 1485 370 1485 370 1433 415 c 1,18,-1
 1506 494 l 1,19,20
 1531 468 1531 468 1571 468 c 0,21,22
 1666 468 1666 468 1666 606 c 2,23,-1
 1666 1090 l 1,24,-1
 1782 1090 l 1,25,-1
 1782 611 l 2,14,15
898 1373 m 1,26,-1
 575 1373 l 1,27,-1
 575 1473 l 1,28,-1
 898 1473 l 1,29,-1
 898 1373 l 1,26,-1
2048 0 m 1,30,-1
 1725 0 l 1,31,-1
 1725 100 l 1,32,-1
 1948 100 l 1,33,-1
 1948 323 l 1,34,-1
 2048 323 l 1,35,-1
 2048 0 l 1,30,-1
1423 591 m 0,36,37
 1423 382 1423 382 1149 382 c 2,38,-1
 909 382 l 1,39,-1
 909 1090 l 1,40,-1
 1144 1090 l 2,41,42
 1393 1090 1393 1090 1393 904 c 0,43,44
 1393 813 1393 813 1304 759 c 1,45,46
 1423 713 1423 713 1423 591 c 0,36,37
323 1373 m 1,47,-1
 100 1373 l 1,48,-1
 100 1150 l 1,49,-1
 0 1150 l 1,50,-1
 0 1473 l 1,51,-1
 323 1473 l 1,52,-1
 323 1373 l 1,47,-1
1473 0 m 1,53,-1
 1150 0 l 1,54,-1
 1150 100 l 1,55,-1
 1473 100 l 1,56,-1
 1473 0 l 1,53,-1
854 735 m 0,57,58
 854 562 854 562 772 466 c 128,-1,59
 690 370 690 370 537 370 c 256,60,61
 384 370 384 370 303.5 466 c 128,-1,62
 223 562 223 562 223 735 c 0,63,64
 223 910 223 910 303.5 1006 c 128,-1,65
 384 1102 384 1102 537 1102 c 256,66,67
 690 1102 690 1102 772 1006 c 128,-1,68
 854 910 854 910 854 735 c 0,57,58
100 575 m 1,69,-1
 0 575 l 1,70,-1
 0 898 l 1,71,-1
 100 898 l 1,72,-1
 100 575 l 1,69,-1
898 0 m 1,73,-1
 575 0 l 1,74,-1
 575 100 l 1,75,-1
 898 100 l 1,76,-1
 898 0 l 1,73,-1
323 0 m 1,77,-1
 0 0 l 1,78,-1
 0 323 l 1,79,-1
 100 323 l 1,80,-1
 100 100 l 1,81,-1
 323 100 l 1,82,-1
 323 0 l 1,77,-1
1277 893 m 0,83,84
 1277 992 1277 992 1114 992 c 2,85,-1
 1025 992 l 1,86,-1
 1025 798 l 1,87,-1
 1126 798 l 2,88,89
 1277 798 1277 798 1277 893 c 0,83,84
1307 591 m 0,90,91
 1307 700 1307 700 1136 700 c 2,92,-1
 1025 700 l 1,93,-1
 1025 480 l 1,94,-1
 1149 480 l 2,95,96
 1307 480 1307 480 1307 591 c 0,90,91
738 735 m 0,97,98
 738 1004 738 1004 537 1004 c 0,99,100
 339 1004 339 1004 339 735 c 0,101,102
 339 468 339 468 537 468 c 0,103,104
 738 468 738 468 738 735 c 0,97,98
EndSplineSet
EndChar

StartChar: zerowidthnonjoiner
Encoding: 8204 8204 88
Width: 0
GlyphClass: 2
Flags: W
LayerCount: 2
Fore
SplineSet
36 1289 m 1,0,-1
 36 -275 l 1,1,-1
 -36 -275 l 1,2,-1
 -36 1289 l 1,3,-1
 36 1289 l 1,0,-1
EndSplineSet
EndChar

StartChar: zerowidthjoiner
Encoding: 8205 8205 89
Width: 0
GlyphClass: 2
Flags: W
LayerCount: 2
Fore
SplineSet
36 -275 m 1,0,-1
 -36 -275 l 1,1,-1
 -36 1114 l 1,2,-1
 -170 978 l 1,3,-1
 -219 1027 l 1,4,-1
 -48 1196 l 1,5,-1
 -219 1364 l 1,6,-1
 -170 1413 l 1,7,-1
 0 1242 l 1,8,-1
 170 1413 l 1,9,-1
 219 1364 l 1,10,-1
 48 1196 l 1,11,-1
 219 1027 l 1,12,-1
 170 978 l 1,13,-1
 36 1114 l 1,14,-1
 36 -275 l 1,0,-1
EndSplineSet
EndChar

StartChar: lefttorightmark
Encoding: 8206 8206 90
Width: 0
GlyphClass: 2
Flags: W
LayerCount: 2
Fore
SplineSet
430 1198 m 1,0,-1
 213 984 l 1,1,-1
 164 1033 l 1,2,-1
 301 1163 l 1,3,-1
 35 1163 l 1,4,-1
 35 -275 l 1,5,-1
 -36 -275 l 1,6,-1
 -36 1234 l 1,7,-1
 301 1234 l 1,8,-1
 164 1364 l 1,9,-1
 213 1413 l 1,10,-1
 430 1198 l 1,0,-1
EndSplineSet
EndChar

StartChar: righttoleftmark
Encoding: 8207 8207 91
Width: 0
GlyphClass: 2
Flags: W
LayerCount: 2
Fore
SplineSet
35 -275 m 1,0,-1
 -36 -275 l 1,1,-1
 -36 1163 l 1,2,-1
 -302 1163 l 1,3,-1
 -165 1033 l 1,4,-1
 -214 984 l 1,5,-1
 -431 1198 l 1,6,-1
 -214 1413 l 1,7,-1
 -165 1364 l 1,8,-1
 -302 1234 l 1,9,-1
 35 1234 l 1,10,-1
 35 -275 l 1,0,-1
EndSplineSet
EndChar

StartChar: afii57388.001
Encoding: 1644 1644 92
Width: 353
GlyphClass: 2
Flags: W
LayerCount: 2
Fore
SplineSet
210 654 m 0,0,1
 200 627 200 627 185 603 c 0,2,3
 180 597 180 597 173.5 593.5 c 128,-1,4
 167 590 167 590 162 590 c 128,-1,5
 157 590 157 590 154.5 593 c 128,-1,6
 152 596 152 596 155 603 c 0,7,8
 187 660 187 660 202.5 713.5 c 128,-1,9
 218 767 218 767 218 800 c 1,10,11
 194 806 194 806 179 816 c 128,-1,12
 164 826 164 826 155 837.5 c 128,-1,13
 146 849 146 849 143 859 c 128,-1,14
 140 869 140 869 140 874 c 0,15,16
 140 890 140 890 145.5 907 c 128,-1,17
 151 924 151 924 160.5 937.5 c 128,-1,18
 170 951 170 951 183.5 959.5 c 128,-1,19
 197 968 197 968 213 968 c 0,20,21
 272 968 272 968 272 874 c 0,22,23
 272 859 272 859 268 835 c 128,-1,24
 264 811 264 811 256 781.5 c 128,-1,25
 248 752 248 752 236.5 719.5 c 128,-1,26
 225 687 225 687 210 654 c 0,0,1
EndSplineSet
EndChar

StartChar: afii57409
Encoding: 1569 1569 93
Width: 568
GlyphClass: 2
Flags: W
AnchorPoint: "Anchor-3" 300 -345 basechar 0
AnchorPoint: "Anchor-2" 330 585 basechar 0
LayerCount: 2
Fore
SplineSet
508 167 m 1,0,-1
 459 75 l 1,1,2
 301 82 301 82 144 -103 c 1,3,-1
 151 -20 l 1,4,5
 207 51 207 51 283 88 c 1,6,7
 187 138 187 138 187 201 c 0,8,9
 187 248 187 248 261 320.5 c 128,-1,10
 335 393 335 393 382 393 c 0,11,12
 459 393 459 393 459 265 c 0,13,14
 459 229 459 229 449 193 c 1,15,-1
 403 244 l 1,16,17
 418 278 418 278 418 299 c 0,18,19
 418 321 418 321 400 321 c 0,20,21
 330 321 330 321 272 281 c 0,22,23
 221 246 221 246 221 217 c 0,24,25
 221 199 221 199 285 170 c 0,26,27
 346 142 346 142 372 142 c 0,28,29
 453 142 453 142 508 167 c 1,0,-1
EndSplineSet
EndChar

StartChar: afii57440
Encoding: 1600 1600 94
Width: 563
GlyphClass: 2
Flags: W
LayerCount: 2
Fore
SplineSet
583 0 m 1,0,-1
 -20 0 l 1,1,-1
 -20 114 l 1,2,-1
 583 114 l 1,3,-1
 583 0 l 1,0,-1
EndSplineSet
EndChar

StartChar: afii57453
Encoding: 1613 1613 95
Width: 0
GlyphClass: 4
Flags: W
AnchorPoint: "Anchor-3" 0 0 mark 0
AnchorPoint: "Anchor-1" 0 0 mark 0
LayerCount: 2
Fore
SplineSet
188 144 m 1,0,-1
 172 72 l 1,1,-1
 -215 2 l 1,2,-1
 -215 54 l 1,3,4
 -138 60 -138 60 -35 72 c 0,5,6
 12 78 12 78 188 144 c 1,0,-1
183 -38 m 1,7,8
 106 -44 106 -44 3 -56 c 0,9,10
 -44 -62 -44 -62 -220 -128 c 1,11,-1
 -204 -56 l 1,12,-1
 183 14 l 1,13,-1
 183 -38 l 1,7,8
EndSplineSet
EndChar

StartChar: afii57381
Encoding: 1642 1642 96
Width: 763
GlyphClass: 2
Flags: W
LayerCount: 2
Fore
SplineSet
484 879 m 256,0,1
 487 849 487 849 466.5 826 c 128,-1,2
 446 803 446 803 416 800 c 256,3,4
 386 797 386 797 362 816.5 c 128,-1,5
 338 836 338 836 335 866 c 0,6,7
 332 897 332 897 352.5 920 c 128,-1,8
 373 943 373 943 404 946 c 0,9,10
 434 949 434 949 457.5 929 c 128,-1,11
 481 909 481 909 484 879 c 256,0,1
763 1018 m 1,12,13
 560 640 560 640 399 332 c 0,14,15
 328 196 328 196 175 -157 c 1,16,-1
 129 -61 l 1,17,18
 245 114 245 114 360 338 c 0,19,20
 421 457 421 457 632 1013 c 1,21,-1
 763 1018 l 1,12,13
492 -34 m 0,22,23
 499 -106 499 -106 424 -113 c 0,24,25
 394 -116 394 -116 371 -96.5 c 128,-1,26
 348 -77 348 -77 345 -47 c 256,27,28
 342 -17 342 -17 361.5 6 c 128,-1,29
 381 29 381 29 411 32 c 0,30,31
 485 39 485 39 492 -34 c 0,22,23
EndSplineSet
EndChar

StartChar: afii57461
Encoding: 1643 1643 97
Width: 536
GlyphClass: 2
Flags: W
LayerCount: 2
Fore
SplineSet
518 521 m 1,0,-1
 115 -382 l 1,1,-1
 19 -352 l 1,2,-1
 425 551 l 1,3,-1
 518 521 l 1,0,-1
EndSplineSet
EndChar

StartChar: afii63167
Encoding: 1645 1645 98
Width: 1118
GlyphClass: 2
Flags: W
LayerCount: 2
Fore
SplineSet
694 729 m 1,0,-1
 1057 733 l 1,1,-1
 1057 610 l 1,2,-1
 702 612 l 1,3,-1
 971 352 l 1,4,-1
 883 264 l 1,5,-1
 616 539 l 1,6,-1
 623 168 l 1,7,-1
 498 168 l 1,8,-1
 502 539 l 1,9,-1
 236 264 l 1,10,-1
 147 352 l 1,11,-1
 422 614 l 1,12,-1
 63 610 l 1,13,-1
 63 733 l 1,14,-1
 420 729 l 1,15,-1
 170 975 l 1,16,-1
 258 1065 l 1,17,-1
 502 817 l 1,18,-1
 498 1176 l 1,19,-1
 623 1176 l 1,20,-1
 616 813 l 1,21,-1
 860 1065 l 1,22,-1
 948 975 l 1,23,-1
 694 729 l 1,0,-1
EndSplineSet
EndChar

StartChar: afii57459
Encoding: 65543 -1 99
Width: 384
GlyphClass: 2
Flags: W
LayerCount: 2
Fore
SplineSet
385 378 m 0,0,1
 385 183 385 183 256 74 c 0,2,3
 168 0 168 0 18 0 c 2,4,-1
 -12 0 l 1,5,-1
 -12 114 l 1,6,-1
 37 114 l 2,7,8
 326 114 326 114 326 287 c 0,9,10
 326 367 326 367 283 512 c 0,11,12
 235 674 235 674 184 707 c 1,13,14
 134 676 134 676 104 582 c 0,15,16
 79 504 79 504 79 431 c 0,17,18
 79 257 79 257 151 257 c 0,19,20
 182 257 182 257 250 362 c 1,21,-1
 317 319 l 1,22,23
 216 235 216 235 138 235 c 0,24,25
 73 235 73 235 36 296 c 0,26,27
 4 348 4 348 4 417 c 0,28,29
 4 521 4 521 55 625 c 0,30,31
 111 739 111 739 184 739 c 0,32,33
 252 739 252 739 313 649 c 0,34,35
 385 543 385 543 385 378 c 0,0,1
EndSplineSet
EndChar

StartChar: afii57543
Encoding: 65544 -1 100
Width: 444
Flags: W
LayerCount: 2
Fore
SplineSet
455 0 m 1,0,-1
 443 0 l 2,1,2
 371 0 371 0 308 68 c 0,3,4
 260 120 260 120 242 205 c 1,5,6
 215 130 215 130 179 89 c 0,7,8
 101 0 101 0 0 0 c 2,9,-1
 -12 0 l 1,10,-1
 -12 114 l 1,11,-1
 0 114 l 2,12,13
 55 114 55 114 117 152 c 0,14,15
 219 215 219 215 219 315 c 0,16,17
 219 380 219 380 213 511 c 128,-1,18
 207 642 207 642 207 707 c 1,19,-1
 308 620 l 1,20,21
 292 449 292 449 292 390 c 0,22,23
 292 268 292 268 304 220 c 0,24,25
 311 191 311 191 336 158 c 0,26,27
 369 114 369 114 443 114 c 2,28,-1
 455 114 l 1,29,-1
 455 0 l 1,0,-1
EndSplineSet
EndChar

StartChar: afii57534
Encoding: 1749 1749 101
Width: 607
GlyphClass: 2
Flags: W
LayerCount: 2
Fore
SplineSet
607 165 m 0,0,1
 607 88 607 88 555 58 c 0,2,3
 454 0 454 0 327 0 c 0,4,5
 131 0 131 0 131 124 c 0,6,7
 131 214 131 214 197 331 c 0,8,9
 250 425 250 425 315 494 c 1,10,11
 282 514 282 514 215 543 c 1,12,-1
 347 576 l 1,13,14
 358 568 358 568 378 551 c 1,15,16
 402 570 402 570 448 600 c 1,17,-1
 536 523 l 1,18,19
 510 514 510 514 450 481 c 1,20,21
 508 425 508 425 554 339 c 0,22,23
 607 240 607 240 607 165 c 0,0,1
557 179 m 1,24,25
 557 215 557 215 511 296 c 0,26,27
 457 391 457 391 389 438 c 1,28,29
 347 411 347 411 270 318 c 0,30,31
 185 215 185 215 165 154 c 1,32,33
 180 114 180 114 317 114 c 0,34,35
 411 114 411 114 487 139 c 0,36,37
 548 159 548 159 557 179 c 1,24,25
EndSplineSet
EndChar

StartChar: afii64240
Encoding: 65546 -1 103
Width: 244
Flags: W
LayerCount: 2
Fore
SplineSet
184 75 m 0,0,1
 184 1 184 1 111 1 c 0,2,3
 80 1 80 1 58.5 22.5 c 128,-1,4
 37 44 37 44 37 75 c 0,5,6
 37 148 37 148 111 148 c 0,7,8
 141 148 141 148 162.5 126.5 c 128,-1,9
 184 105 184 105 184 75 c 0,0,1
EndSplineSet
EndChar

StartChar: afii64241
Encoding: 65547 -1 104
Width: 427
Flags: W
LayerCount: 2
Fore
SplineSet
389 73 m 0,0,1
 389 -1 389 -1 316 -1 c 0,2,3
 285 -1 285 -1 263.5 20.5 c 128,-1,4
 242 42 242 42 242 73 c 0,5,6
 242 146 242 146 316 146 c 0,7,8
 346 146 346 146 367.5 124.5 c 128,-1,9
 389 103 389 103 389 73 c 0,0,1
183 73 m 0,10,11
 183 -1 183 -1 110 -1 c 0,12,13
 79 -1 79 -1 57.5 20.5 c 128,-1,14
 36 42 36 42 36 73 c 0,15,16
 36 146 36 146 110 146 c 0,17,18
 140 146 140 146 161.5 124.5 c 128,-1,19
 183 103 183 103 183 73 c 0,10,11
EndSplineSet
EndChar

StartChar: afii63954
Encoding: 65548 -1 105
Width: 437
Flags: W
LayerCount: 2
Fore
SplineSet
293 284 m 256,0,1
 293 254 293 254 271.5 232.5 c 128,-1,2
 250 211 250 211 220 211 c 0,3,4
 146 211 146 211 146 284 c 0,5,6
 146 315 146 315 167.5 336.5 c 128,-1,7
 189 358 189 358 220 358 c 0,8,9
 250 358 250 358 271.5 336 c 128,-1,10
 293 314 293 314 293 284 c 256,0,1
396 77 m 256,11,12
 396 47 396 47 374.5 25 c 128,-1,13
 353 3 353 3 323 3 c 0,14,15
 292 3 292 3 270.5 24.5 c 128,-1,16
 249 46 249 46 249 77 c 0,17,18
 249 150 249 150 323 150 c 0,19,20
 353 150 353 150 374.5 128.5 c 128,-1,21
 396 107 396 107 396 77 c 256,11,12
190 77 m 256,22,23
 190 47 190 47 168.5 25 c 128,-1,24
 147 3 147 3 117 3 c 0,25,26
 86 3 86 3 64.5 24.5 c 128,-1,27
 43 46 43 46 43 77 c 0,28,29
 43 150 43 150 117 150 c 0,30,31
 147 150 147 150 168.5 128.5 c 128,-1,32
 190 107 190 107 190 77 c 256,22,23
EndSplineSet
EndChar

StartChar: afii57382
Encoding: 65549 -1 106
Width: 446
Flags: W
LayerCount: 2
Fore
SplineSet
394 -73 m 0,0,1
 394 -147 394 -147 321 -147 c 0,2,3
 290 -147 290 -147 268.5 -125.5 c 128,-1,4
 247 -104 247 -104 247 -73 c 0,5,6
 247 0 247 0 321 0 c 0,7,8
 351 0 351 0 372.5 -21.5 c 128,-1,9
 394 -43 394 -43 394 -73 c 0,0,1
188 -73 m 0,10,11
 188 -147 188 -147 115 -147 c 0,12,13
 84 -147 84 -147 62.5 -125.5 c 128,-1,14
 41 -104 41 -104 41 -73 c 0,15,16
 41 0 41 0 115 0 c 0,17,18
 145 0 145 0 166.5 -21.5 c 128,-1,19
 188 -43 188 -43 188 -73 c 0,10,11
291 -281 m 0,20,21
 291 -311 291 -311 269.5 -332.5 c 128,-1,22
 248 -354 248 -354 218 -354 c 0,23,24
 144 -354 144 -354 144 -281 c 0,25,26
 144 -250 144 -250 165.5 -228.5 c 128,-1,27
 187 -207 187 -207 218 -207 c 0,28,29
 291 -207 291 -207 291 -281 c 0,20,21
EndSplineSet
EndChar

StartChar: afii64242
Encoding: 65550 -1 107
Width: 290
Flags: W
LayerCount: 2
Fore
SplineSet
268 324 m 0,0,1
 268 193 268 193 201 102 c 0,2,3
 127 0 127 0 0 0 c 2,4,-1
 -12 0 l 1,5,-1
 -12 114 l 1,6,-1
 0 114 l 2,7,8
 96 114 96 114 170 179 c 0,9,10
 231 233 231 233 231 268 c 0,11,12
 231 376 231 376 159 528 c 0,13,14
 103 647 103 647 56 700 c 1,15,-1
 210 606 l 1,16,17
 268 452 268 452 268 324 c 0,0,1
EndSplineSet
EndChar

StartChar: afii57373
Encoding: 65551 -1 112
Width: 339
Flags: W
LayerCount: 2
Fore
SplineSet
335 985 m 1,0,-1
 308 906 l 1,1,2
 269 899 269 899 195 875 c 1,3,4
 121 841 121 841 35 724 c 1,5,-1
 35 798 l 1,6,7
 66 837 66 837 149 906 c 1,8,9
 55 939 55 939 55 1001 c 0,10,11
 55 1061 55 1061 126 1129 c 0,12,13
 190 1190 190 1190 223 1190 c 0,14,15
 269 1190 269 1190 288 1113 c 0,16,17
 299 1068 299 1068 289 1006 c 1,18,-1
 244 1053 l 1,19,20
 255 1078 255 1078 255 1097 c 0,21,22
 255 1125 255 1125 228 1125 c 0,23,24
 189 1125 189 1125 137 1093 c 0,25,26
 81 1058 81 1058 81 1022 c 0,27,28
 81 1007 81 1007 125 985 c 0,29,30
 176 959 176 959 228 959 c 0,31,32
 270 959 270 959 335 985 c 1,0,-1
EndSplineSet
EndChar

StartChar: afii57374
Encoding: 65552 -1 113
Width: 555
GlyphClass: 2
Flags: W
LayerCount: 2
Fore
SplineSet
567 0 m 1,0,-1
 555 0 l 2,1,2
 419 0 419 0 289 84 c 1,3,4
 152 0 152 0 0 0 c 2,5,-1
 -12 0 l 1,6,-1
 -12 114 l 1,7,-1
 0 114 l 2,8,9
 130 114 130 114 228 135 c 1,10,11
 95 247 95 247 95 408 c 0,12,13
 95 532 95 532 151 625 c 0,14,15
 202 709 202 709 257 709 c 0,16,17
 333 709 333 709 393 646 c 0,18,19
 471 563 471 563 471 403 c 0,20,21
 471 227 471 227 368 135 c 1,22,23
 436 114 436 114 555 114 c 2,24,-1
 567 114 l 1,25,-1
 567 0 l 1,0,-1
392 425 m 0,26,27
 392 482 392 482 369 567 c 0,28,29
 340 676 340 676 299 676 c 0,30,31
 259 676 259 676 215 597 c 0,32,33
 152 485 152 485 152 285 c 1,34,35
 229 195 229 195 315 158 c 1,36,37
 392 244 392 244 392 425 c 0,26,27
EndSplineSet
EndChar

StartChar: afii57375
Encoding: 1619 1619 114
Width: 595
GlyphClass: 2
Flags: W
LayerCount: 2
Fore
SplineSet
595 1419 m 1,0,1
 498 1267 498 1267 389 1267 c 0,2,3
 350 1267 350 1267 274 1296 c 128,-1,4
 198 1325 198 1325 180 1325 c 1,5,6
 126 1263 126 1263 109 1197 c 1,7,-1
 86 1276 l 1,8,9
 177 1407 177 1407 266 1407 c 0,10,11
 296 1407 296 1407 367.5 1374.5 c 128,-1,12
 439 1342 439 1342 473 1342 c 1,13,14
 506 1370 506 1370 543 1482 c 1,15,-1
 595 1419 l 1,0,1
EndSplineSet
EndChar

StartChar: afii57391
Encoding: 59450 59450 115
Width: 1024
GlyphClass: 2
Flags: W
LayerCount: 2
Fore
SplineSet
1024 0 m 1,0,-1
 -70 0 l 1,1,-1
 -70 188 l 1,2,-1
 1024 188 l 1,3,-1
 1024 0 l 1,0,-1
EndSplineSet
EndChar

StartChar: afii57471
Encoding: 65553 -1 116
Width: 1708
Flags: W
LayerCount: 2
Fore
SplineSet
1716 0 m 1,0,-1
 1704 0 l 2,1,2
 1654 0 1654 0 1603 39 c 0,3,4
 1556 76 1556 76 1536 125 c 128,-1,5
 1516 174 1516 174 1516 217 c 1,6,7
 1399 156 1399 156 1170 86 c 0,8,9
 849 -12 849 -12 614 -12 c 0,10,11
 131 -12 131 -12 131 254 c 0,12,13
 131 412 131 412 308 555 c 1,14,-1
 308 455 l 1,15,16
 173 358 173 358 173 305 c 0,17,18
 173 244 173 244 286 183 c 0,19,20
 430 105 430 105 670 105 c 0,21,22
 889 105 889 105 1161 175 c 0,23,24
 1413 241 1413 241 1628 345 c 1,25,-1
 1557 186 l 1,26,27
 1608 114 1608 114 1704 114 c 2,28,-1
 1716 114 l 1,29,-1
 1716 0 l 1,0,-1
EndSplineSet
EndChar

StartChar: afii52258
Encoding: 65554 -1 117
Width: 1486
GlyphClass: 2
Flags: W
LayerCount: 2
Fore
SplineSet
1498 0 m 1,0,-1
 1486 0 l 2,1,2
 1343 0 1343 0 1199 93 c 1,3,4
 1002 0 1002 0 681 0 c 0,5,6
 375 0 375 0 232 122 c 0,7,8
 131 208 131 208 131 326 c 0,9,10
 131 521 131 521 352 655 c 1,11,-1
 352 546 l 1,12,13
 229 492 229 492 179 389 c 1,14,15
 198 309 198 309 263 252 c 0,16,17
 420 114 420 114 786 114 c 0,18,19
 1039 114 1039 114 1145 140 c 1,20,21
 1026 268 1026 268 1026 408 c 0,22,23
 1026 530 1026 530 1082 624 c 0,24,25
 1133 709 1133 709 1188 709 c 0,26,27
 1264 709 1264 709 1324 646 c 0,28,29
 1402 563 1402 563 1402 403 c 0,30,31
 1402 218 1402 218 1285 142 c 1,32,33
 1375 114 1375 114 1486 114 c 2,34,-1
 1498 114 l 1,35,-1
 1498 0 l 1,0,-1
1323 425 m 0,36,37
 1323 482 1323 482 1300 567 c 0,38,39
 1271 676 1271 676 1230 676 c 0,40,41
 1190 676 1190 676 1146 597 c 0,42,43
 1083 485 1083 485 1083 285 c 1,44,45
 1159 196 1159 196 1230 165 c 1,46,47
 1245 165 1245 165 1257 177 c 0,48,49
 1323 263 1323 263 1323 425 c 0,36,37
EndSplineSet
EndChar

StartChar: afii62889
Encoding: 65555 -1 123
Width: 1433
Flags: W
LayerCount: 2
Fore
SplineSet
1446 0 m 1,0,-1
 1433 0 l 2,1,2
 1380 0 1380 0 1316 11 c 1,3,4
 1312 -11 1312 -11 1297 -54 c 1,5,6
 1264 -115 1264 -115 1115 -172 c 0,7,8
 937 -240 937 -240 718 -240 c 0,9,10
 509 -240 509 -240 339 -151 c 0,11,12
 131 -42 131 -42 131 149 c 0,13,14
 131 286 131 286 251 372 c 0,15,16
 359 450 359 450 501 450 c 0,17,18
 597 450 597 450 709 420 c 1,19,-1
 777 296 l 1,20,21
 610 410 610 410 476 410 c 0,22,23
 376 410 376 410 310 357 c 0,24,25
 238 300 238 300 238 203 c 0,26,27
 238 6 238 6 461 -80 c 0,28,29
 616 -140 616 -140 849 -140 c 0,30,31
 1097 -140 1097 -140 1271 -39 c 1,32,-1
 1271 21 l 1,33,34
 1170 55 1170 55 1079 136 c 0,35,36
 945 255 945 255 945 406 c 0,37,38
 945 513 945 513 985 609 c 0,39,40
 1037 733 1037 733 1129 733 c 0,41,42
 1235 733 1235 733 1291 543 c 0,43,44
 1335 394 1335 394 1335 198 c 0,45,46
 1335 151 1335 151 1332 114 c 1,47,-1
 1446 114 l 1,48,-1
 1446 0 l 1,0,-1
1269 128 m 1,49,50
 1269 320 1269 320 1219 497 c 0,51,52
 1175 652 1175 652 1129 693 c 1,53,54
 1006 613 1006 613 1006 349 c 0,55,56
 1006 297 1006 297 1013 271 c 1,57,58
 1111 163 1111 163 1269 128 c 1,49,50
EndSplineSet
EndChar

StartChar: afii62887
Encoding: 65556 -1 124
Width: 1630
Flags: W
LayerCount: 2
Fore
SplineSet
1630 345 m 1,0,-1
 1590 254 l 1,1,2
 1453 179 1453 179 1196 97 c 0,3,4
 854 -12 854 -12 614 -12 c 0,5,6
 131 -12 131 -12 131 254 c 0,7,8
 131 412 131 412 308 555 c 1,9,-1
 308 455 l 1,10,11
 173 358 173 358 173 305 c 0,12,13
 173 244 173 244 286 183 c 0,14,15
 430 105 430 105 670 105 c 0,16,17
 889 105 889 105 1162 175 c 0,18,19
 1416 241 1416 241 1630 345 c 1,0,-1
EndSplineSet
EndChar

StartChar: afii62888
Encoding: 1697 1697 125
Width: 1330
GlyphClass: 2
Flags: W
LayerCount: 2
Fore
SplineSet
1330 385 m 0,0,1
 1330 125 1330 125 1105 44 c 0,2,3
 983 0 983 0 681 0 c 0,4,5
 375 0 375 0 232 122 c 0,6,7
 131 208 131 208 131 326 c 0,8,9
 131 521 131 521 352 655 c 1,10,-1
 352 546 l 1,11,12
 229 492 229 492 179 389 c 1,13,14
 198 309 198 309 263 252 c 0,15,16
 420 114 420 114 786 114 c 0,17,18
 1278 114 1278 114 1278 294 c 0,19,20
 1278 381 1278 381 1241 519 c 0,21,22
 1198 681 1198 681 1146 714 c 1,23,24
 1096 682 1096 682 1066 589 c 0,25,26
 1041 512 1041 512 1041 438 c 0,27,28
 1041 264 1041 264 1113 264 c 0,29,30
 1144 264 1144 264 1213 369 c 1,31,-1
 1279 326 l 1,32,33
 1179 242 1179 242 1101 242 c 0,34,35
 1037 242 1037 242 999 303 c 0,36,37
 966 356 966 356 966 424 c 0,38,39
 966 528 966 528 1017 632 c 0,40,41
 1073 746 1073 746 1146 746 c 0,42,43
 1213 746 1213 746 1267 656 c 0,44,45
 1330 552 1330 552 1330 385 c 0,0,1
EndSplineSet
Substitution2: "'medi' Medial Forms in Arabic lookup 3 subtable" afii57374
Substitution2: "'fina' Terminal Forms in Arabic lookup 2 subtable" afii52258
Substitution2: "'init' Initial Forms in Arabic lookup 1 subtable" afii57459
EndChar

StartChar: afii57567
Encoding: 1705 1705 132
Width: 1437
GlyphClass: 2
Flags: W
AnchorPoint: "Anchor-3" 720 -480 basechar 0
AnchorPoint: "Anchor-2" 645 1065 basechar 0
LayerCount: 2
Fore
SplineSet
1437 964 m 1,0,-1
 1031 762 l 1,1,2
 1197 685 1197 685 1314 537 c 0,3,4
 1384 449 1384 449 1402 384 c 0,5,6
 1408 362 1408 362 1408 339 c 0,7,8
 1408 298 1408 298 1393 247 c 0,9,10
 1376 187 1376 187 1351 166 c 0,11,12
 1280 107 1280 107 1094 51 c 0,13,14
 854 -21 854 -21 581 -21 c 0,15,16
 402 -21 402 -21 282 44 c 0,17,18
 131 126 131 126 131 289 c 0,19,20
 131 447 131 447 308 590 c 1,21,-1
 308 490 l 1,22,23
 173 393 173 393 173 340 c 0,24,25
 173 270 173 270 271 196 c 0,26,27
 404 96 404 96 637 96 c 0,28,29
 899 96 899 96 1140 169 c 0,30,31
 1355 234 1355 234 1355 283 c 256,32,33
 1355 332 1355 332 1266 443 c 0,34,35
 1133 609 1133 609 903 694 c 1,36,-1
 904 796 l 1,37,-1
 1437 1058 l 1,38,-1
 1437 964 l 1,0,-1
EndSplineSet
Substitution2: "'medi' Medial Forms in Arabic lookup 3 subtable" afii52306
Substitution2: "'fina' Terminal Forms in Arabic lookup 2 subtable" afii62964
Substitution2: "'init' Initial Forms in Arabic lookup 1 subtable" afii52305
EndChar

StartChar: afii62964
Encoding: 64399 64399 133
Width: 1725
GlyphClass: 2
Flags: W
AnchorPoint: "Anchor-3" 690 -435 basechar 0
AnchorPoint: "Anchor-2" 645 945 basechar 0
LayerCount: 2
Fore
SplineSet
1737 0 m 1,0,-1
 1725 0 l 2,1,2
 1507 0 1507 0 1384 230 c 1,3,4
 1366 166 1366 166 1341 144 c 0,5,6
 1284 94 1284 94 1094 43 c 0,7,8
 855 -21 855 -21 581 -21 c 0,9,10
 402 -21 402 -21 282 44 c 0,11,12
 131 126 131 126 131 289 c 0,13,14
 131 447 131 447 308 590 c 1,15,-1
 308 490 l 1,16,17
 173 393 173 393 173 340 c 0,18,19
 173 270 173 270 271 196 c 0,20,21
 404 96 404 96 637 96 c 0,22,23
 812 96 812 96 1034 135 c 0,24,25
 1355 191 1355 191 1355 289 c 1,26,27
 1335 358 1335 358 1264 446 c 0,28,29
 1132 609 1132 609 903 694 c 1,30,-1
 904 796 l 1,31,-1
 1437 1058 l 1,32,-1
 1437 964 l 1,33,-1
 1031 762 l 1,34,35
 1198 684 1198 684 1314 537 c 0,36,37
 1374 460 1374 460 1421 345 c 0,38,39
 1486 186 1486 186 1504 151 c 1,40,41
 1573 114 1573 114 1725 114 c 2,42,-1
 1737 114 l 1,43,-1
 1737 0 l 1,0,-1
EndSplineSet
EndChar

StartChar: afii52305
Encoding: 64400 64400 134
Width: 537
GlyphClass: 2
Flags: W
AnchorPoint: "Anchor-3" 165 -405 basechar 0
AnchorPoint: "Anchor-2" 165 1140 basechar 0
LayerCount: 2
Fore
SplineSet
537 964 m 1,0,-1
 131 762 l 1,1,2
 297 685 297 685 414 537 c 0,3,4
 522 401 522 401 522 284 c 0,5,6
 522 110 522 110 241 35 c 0,7,8
 110 0 110 0 0 0 c 2,9,-1
 -12 0 l 1,10,-1
 -12 114 l 1,11,-1
 0 114 l 2,12,13
 105 114 105 114 261 143 c 0,14,15
 469 183 469 183 469 242 c 0,16,17
 469 298 469 298 371 427 c 0,18,19
 233 609 233 609 3 694 c 1,20,-1
 4 796 l 1,21,-1
 537 1058 l 1,22,-1
 537 964 l 1,0,-1
EndSplineSet
EndChar

StartChar: afii52306
Encoding: 64401 64401 135
Width: 825
GlyphClass: 2
Flags: W
AnchorPoint: "Anchor-3" 240 -450 basechar 0
AnchorPoint: "Anchor-2" 180 1065 basechar 0
LayerCount: 2
Fore
SplineSet
837 0 m 1,0,-1
 825 0 l 2,1,2
 630 0 630 0 503 196 c 1,3,4
 456 92 456 92 240 35 c 0,5,6
 108 0 108 0 0 0 c 2,7,-1
 -12 0 l 1,8,-1
 -12 114 l 1,9,-1
 0 114 l 2,10,11
 105 114 105 114 261 143 c 0,12,13
 469 183 469 183 469 242 c 0,14,15
 469 298 469 298 371 427 c 0,16,17
 233 609 233 609 3 694 c 1,18,-1
 4 796 l 1,19,-1
 537 1058 l 1,20,-1
 537 964 l 1,21,-1
 131 762 l 1,22,23
 298 684 298 684 414 537 c 0,24,25
 474 460 474 460 521 345 c 0,26,27
 586 186 586 186 604 151 c 1,28,29
 673 114 673 114 825 114 c 2,30,-1
 837 114 l 1,31,-1
 837 0 l 1,0,-1
EndSplineSet
EndChar

StartChar: afii57509
Encoding: 1711 1711 136
Width: 1438
GlyphClass: 2
Flags: W
AnchorPoint: "Anchor-3" 705 -420 basechar 0
AnchorPoint: "Anchor-2" 615 1035 basechar 0
LayerCount: 2
Fore
SplineSet
1438 1097 m 1,0,-1
 903 836 l 1,1,-1
 903 882 l 1,2,-1
 1438 1142 l 1,3,-1
 1438 1097 l 1,0,-1
1437 964 m 1,4,-1
 1031 762 l 1,5,6
 1197 685 1197 685 1314 537 c 0,7,8
 1384 449 1384 449 1402 384 c 0,9,10
 1408 362 1408 362 1408 339 c 0,11,12
 1408 298 1408 298 1393 247 c 0,13,14
 1376 187 1376 187 1351 166 c 0,15,16
 1280 107 1280 107 1094 51 c 0,17,18
 854 -21 854 -21 581 -21 c 0,19,20
 402 -21 402 -21 282 44 c 0,21,22
 131 126 131 126 131 289 c 0,23,24
 131 447 131 447 308 590 c 1,25,-1
 308 490 l 1,26,27
 173 393 173 393 173 340 c 0,28,29
 173 270 173 270 271 196 c 0,30,31
 404 96 404 96 637 96 c 0,32,33
 899 96 899 96 1140 169 c 0,34,35
 1355 234 1355 234 1355 283 c 256,36,37
 1355 332 1355 332 1266 443 c 0,38,39
 1133 609 1133 609 903 694 c 1,40,-1
 904 796 l 1,41,-1
 1437 1058 l 1,42,-1
 1437 964 l 1,4,-1
EndSplineSet
Substitution2: "'medi' Medial Forms in Arabic lookup 3 subtable" afii62966
Substitution2: "'fina' Terminal Forms in Arabic lookup 2 subtable" afii62967
Substitution2: "'init' Initial Forms in Arabic lookup 1 subtable" afii62965
EndChar

StartChar: afii62967
Encoding: 64403 64403 137
Width: 1724
GlyphClass: 2
Flags: W
AnchorPoint: "Anchor-3" 705 -450 basechar 0
AnchorPoint: "Anchor-2" 600 960 basechar 0
LayerCount: 2
Fore
SplineSet
1438 1098 m 1,0,-1
 903 837 l 1,1,-1
 903 883 l 1,2,-1
 1438 1143 l 1,3,-1
 1438 1098 l 1,0,-1
1737 0 m 1,4,-1
 1725 0 l 2,5,6
 1507 0 1507 0 1384 230 c 1,7,8
 1366 166 1366 166 1341 144 c 0,9,10
 1284 94 1284 94 1094 43 c 0,11,12
 855 -21 855 -21 581 -21 c 0,13,14
 402 -21 402 -21 282 44 c 0,15,16
 131 126 131 126 131 289 c 0,17,18
 131 447 131 447 308 590 c 1,19,-1
 308 490 l 1,20,21
 173 393 173 393 173 340 c 0,22,23
 173 270 173 270 271 196 c 0,24,25
 404 96 404 96 637 96 c 0,26,27
 812 96 812 96 1034 135 c 0,28,29
 1355 191 1355 191 1355 289 c 1,30,31
 1335 358 1335 358 1264 446 c 0,32,33
 1132 609 1132 609 903 694 c 1,34,-1
 904 796 l 1,35,-1
 1437 1058 l 1,36,-1
 1437 964 l 1,37,-1
 1031 762 l 1,38,39
 1198 684 1198 684 1314 537 c 0,40,41
 1374 460 1374 460 1421 345 c 0,42,43
 1486 186 1486 186 1504 151 c 1,44,45
 1573 114 1573 114 1725 114 c 2,46,-1
 1737 114 l 1,47,-1
 1737 0 l 1,4,-1
EndSplineSet
EndChar

StartChar: afii62965
Encoding: 64404 64404 138
Width: 541
GlyphClass: 2
Flags: W
AnchorPoint: "Anchor-3" 180 -420 basechar 0
AnchorPoint: "Anchor-2" 90 1155 basechar 0
LayerCount: 2
Fore
SplineSet
541 1098 m 1,0,-1
 6 837 l 1,1,-1
 6 883 l 1,2,-1
 541 1143 l 1,3,-1
 541 1098 l 1,0,-1
537 964 m 1,4,-1
 131 762 l 1,5,6
 297 685 297 685 414 537 c 0,7,8
 522 401 522 401 522 284 c 0,9,10
 522 110 522 110 241 35 c 0,11,12
 110 0 110 0 0 0 c 2,13,-1
 -12 0 l 1,14,-1
 -12 114 l 1,15,-1
 0 114 l 2,16,17
 105 114 105 114 261 143 c 0,18,19
 469 183 469 183 469 242 c 0,20,21
 469 298 469 298 371 427 c 0,22,23
 233 609 233 609 3 694 c 1,24,-1
 4 796 l 1,25,-1
 537 1058 l 1,26,-1
 537 964 l 1,4,-1
EndSplineSet
EndChar

StartChar: afii62966
Encoding: 64405 64405 139
Width: 820
GlyphClass: 2
Flags: W
AnchorPoint: "Anchor-3" 210 -405 basechar 0
AnchorPoint: "Anchor-2" 165 1185 basechar 0
LayerCount: 2
Fore
SplineSet
537 1096 m 1,0,-1
 2 835 l 1,1,-1
 2 881 l 1,2,-1
 537 1141 l 1,3,-1
 537 1096 l 1,0,-1
867 0 m 1,4,-1
 855 0 l 2,5,6
 660 0 660 0 533 196 c 1,7,8
 486 92 486 92 270 35 c 0,9,10
 138 0 138 0 30 0 c 2,11,-1
 18 0 l 1,12,-1
 18 114 l 1,13,-1
 30 114 l 2,14,15
 135 114 135 114 291 143 c 0,16,17
 499 183 499 183 499 242 c 0,18,19
 499 298 499 298 401 427 c 0,20,21
 263 609 263 609 33 694 c 1,22,-1
 34 796 l 1,23,-1
 567 1058 l 1,24,-1
 567 964 l 1,25,-1
 161 762 l 1,26,27
 328 684 328 684 444 537 c 0,28,29
 504 460 504 460 551 345 c 0,30,31
 616 186 616 186 634 151 c 1,32,33
 703 114 703 114 855 114 c 2,34,-1
 867 114 l 1,35,-1
 867 0 l 1,4,-1
EndSplineSet
EndChar

StartChar: afii57555
Encoding: 1740 1740 140
Width: 1516
GlyphClass: 2
Flags: W
AnchorPoint: "Anchor-3" 795 -705 basechar 0
AnchorPoint: "Anchor-2" 720 795 basechar 0
LayerCount: 2
Fore
SplineSet
1516 519 m 2,0,-1
 1458 430 l 1,1,2
 1464 503 1464 503 1358 503 c 0,3,4
 1280 503 1280 503 1146 422 c 0,5,6
 1043 360 1043 360 985 305 c 0,7,8
 973 294 973 294 994 288 c 2,9,-1
 1478 146 l 2,10,11
 1505 138 1505 138 1486 99 c 0,12,13
 1432 -12 1432 -12 1281 -104 c 0,14,15
 1071 -232 1071 -232 770 -232 c 0,16,17
 541 -232 541 -232 359 -141 c 0,18,19
 131 -27 131 -27 131 181 c 0,20,21
 131 318 131 318 251 404 c 0,22,23
 359 482 359 482 501 482 c 0,24,25
 597 482 597 482 709 453 c 1,26,-1
 777 328 l 1,27,28
 610 442 610 442 476 442 c 0,29,30
 378 442 378 442 311 389 c 0,31,32
 238 332 238 332 238 236 c 0,33,34
 238 36 238 36 474 -66 c 0,35,36
 652 -143 652 -143 880 -143 c 0,37,38
 1049 -143 1049 -143 1219 -70 c 0,39,40
 1342 -17 1342 -17 1398 36 c 0,41,42
 1416 53 1416 53 1384 62 c 2,43,-1
 950 191 l 2,44,45
 909 203 909 203 909 232 c 0,46,47
 909 240 909 240 913 251 c 0,48,49
 958 379 958 379 1135 496 c 0,50,51
 1305 609 1305 609 1431 609 c 0,52,53
 1517 609 1517 609 1517 532 c 0,54,55
 1517 525 1517 525 1516 519 c 2,0,-1
EndSplineSet
Substitution2: "'medi' Medial Forms in Arabic lookup 3 subtable" afii62832
Substitution2: "'fina' Terminal Forms in Arabic lookup 2 subtable" afii52364
Substitution2: "'init' Initial Forms in Arabic lookup 1 subtable" uniFBFE
EndChar

StartChar: afii52364
Encoding: 64509 64509 141
Width: 1521
GlyphClass: 2
Flags: W
AnchorPoint: "Anchor-3" 660 -690 basechar 0
AnchorPoint: "Anchor-2" 690 825 basechar 0
LayerCount: 2
Fore
SplineSet
1533 0 m 1,0,-1
 1521 0 l 2,1,2
 1426 0 1426 0 1312 50 c 0,3,4
 1260 73 1260 73 1138 144 c 0,5,6
 1052 194 1052 194 1026 194 c 0,7,8
 1001 194 1001 194 1001 177 c 0,9,10
 1001 172 1001 172 1178.5 56 c 128,-1,11
 1356 -60 1356 -60 1356 -98 c 0,12,13
 1356 -146 1356 -146 1194 -209 c 0,14,15
 1007 -282 1007 -282 788 -282 c 0,16,17
 556 -282 556 -282 369 -192 c 0,18,19
 131 -77 131 -77 131 131 c 0,20,21
 131 268 131 268 251 354 c 0,22,23
 359 432 359 432 501 432 c 0,24,25
 597 432 597 432 709 403 c 1,26,-1
 777 278 l 1,27,28
 610 392 610 392 476 392 c 0,29,30
 378 392 378 392 311 339 c 0,31,32
 238 282 238 282 238 186 c 0,33,34
 238 -14 238 -14 484 -116 c 0,35,36
 669 -193 669 -193 898 -193 c 0,37,38
 1120 -193 1120 -193 1274 -128 c 1,39,40
 1209 -69 1209 -69 1046 38 c 0,41,42
 924 118 924 118 924 145 c 0,43,44
 924 181 924 181 971 204 c 0,45,46
 1010 224 1010 224 1050 224 c 0,47,48
 1105 224 1105 224 1266.5 169 c 128,-1,49
 1428 114 1428 114 1521 114 c 2,50,-1
 1533 114 l 1,51,-1
 1533 0 l 1,0,-1
EndSplineSet
EndChar

StartChar: afii62945
Encoding: 65557 -1 147
Width: 1565
GlyphClass: 3
Flags: W
LayerCount: 2
Fore
SplineSet
1565 348 m 0,0,1
 1565 223 1565 223 1503 127 c 0,2,3
 1432 16 1432 16 1313 16 c 0,4,5
 1163 16 1163 16 1083 205 c 1,6,7
 1001 0 1001 0 833 0 c 0,8,9
 733 0 733 0 662 87 c 0,10,11
 599 164 599 164 592 257 c 1,12,13
 537 137 537 137 494 130 c 0,14,15
 445 122 445 122 387 122 c 0,16,17
 321 122 321 122 247 135 c 0,18,19
 135 155 135 155 135 191 c 0,20,21
 135 274 135 274 257 418 c 0,22,23
 373 555 373 555 485 618 c 1,24,-1
 567 516 l 1,25,26
 414 481 414 481 304 388 c 0,27,28
 212 310 212 310 212 259 c 0,29,30
 212 244 212 244 298 232 c 0,31,32
 368 222 368 222 406 222 c 0,33,34
 576 222 576 222 576 368 c 0,35,36
 576 397 576 397 562 719 c 1,37,-1
 663 637 l 1,38,39
 660 598 660 598 660 298 c 0,40,41
 660 114 660 114 824 114 c 0,42,43
 941 114 941 114 1005 201 c 0,44,45
 1052 265 1052 265 1052 327 c 0,46,47
 1052 370 1052 370 1019 812 c 1,48,-1
 1134 737 l 1,49,-1
 1139 333 l 2,50,51
 1142 124 1142 124 1302 124 c 0,52,53
 1387 124 1387 124 1465 203 c 0,54,55
 1531 269 1531 269 1531 308 c 0,56,57
 1531 380 1531 380 1433 562 c 0,58,59
 1346 724 1346 724 1271 817 c 1,60,-1
 1449 718 l 1,61,62
 1565 555 1565 555 1565 348 c 0,0,1
EndSplineSet
EndChar

StartChar: afii64184
Encoding: 65010 65010 148
Width: 1565
GlyphClass: 3
Flags: W
AnchorPoint: "Anchor-1" 1530 -360 baselig 0
AnchorPoint: "Anchor-0" 1440 945 baselig 0
AnchorPoint: "Anchor-1" 960 -270 baselig 1
AnchorPoint: "Anchor-0" 1050 840 baselig 1
AnchorPoint: "Anchor-1" 510 -300 baselig 2
AnchorPoint: "Anchor-0" 360 870 baselig 2
LayerCount: 2
Fore
SplineSet
1086 1364 m 0,0,1
 1086 1262 1086 1262 1056 1208 c 1,2,-1
 1040 1243 l 1,3,4
 1046 1257 1046 1257 1046 1346 c 0,5,6
 1046 1421 1046 1421 1023 1465 c 1,7,-1
 1079 1514 l 1,8,9
 1086 1437 1086 1437 1086 1364 c 0,0,1
1565 348 m 0,10,11
 1565 223 1565 223 1503 127 c 0,12,13
 1432 16 1432 16 1313 16 c 0,14,15
 1163 16 1163 16 1083 205 c 1,16,17
 1001 0 1001 0 833 0 c 0,18,19
 733 0 733 0 662 87 c 0,20,21
 599 164 599 164 592 257 c 1,22,23
 537 137 537 137 494 130 c 0,24,25
 445 122 445 122 387 122 c 0,26,27
 321 122 321 122 247 135 c 0,28,29
 135 155 135 155 135 191 c 0,30,31
 135 274 135 274 257 418 c 0,32,33
 373 555 373 555 485 618 c 1,34,-1
 567 516 l 1,35,36
 414 481 414 481 304 388 c 0,37,38
 212 310 212 310 212 259 c 0,39,40
 212 244 212 244 298 232 c 0,41,42
 368 222 368 222 406 222 c 0,43,44
 576 222 576 222 576 368 c 0,45,46
 576 397 576 397 562 719 c 1,47,-1
 663 637 l 1,48,49
 660 598 660 598 660 298 c 0,50,51
 660 114 660 114 824 114 c 0,52,53
 941 114 941 114 1005 201 c 0,54,55
 1052 265 1052 265 1052 327 c 0,56,57
 1052 370 1052 370 1019 812 c 1,58,-1
 1134 737 l 1,59,-1
 1139 333 l 2,60,61
 1142 124 1142 124 1302 124 c 0,62,63
 1387 124 1387 124 1465 203 c 0,64,65
 1531 269 1531 269 1531 308 c 0,66,67
 1531 380 1531 380 1433 562 c 0,68,69
 1346 724 1346 724 1271 817 c 1,70,-1
 1449 718 l 1,71,72
 1565 555 1565 555 1565 348 c 0,10,11
1248 1032 m 0,73,74
 1248 979 1248 979 1215 942.5 c 128,-1,75
 1182 906 1182 906 1129 906 c 0,76,77
 1099 906 1099 906 1069 939 c 1,78,79
 1032 893 1032 893 988 893 c 0,80,81
 948 891 948 891 915 920.5 c 128,-1,82
 882 950 882 950 884 1014 c 1,83,84
 893 1108 893 1108 972 1134 c 1,85,-1
 954 1078 l 1,86,87
 908 1052 908 1052 908 1014 c 0,88,89
 908 977 908 977 941 967 c 1,90,91
 976 950 976 950 1014 951 c 128,-1,92
 1052 952 1052 952 1052 982 c 0,93,94
 1052 1039 1052 1039 1032 1104 c 1,95,-1
 1084 1149 l 1,96,97
 1085 1105 1085 1105 1087 1056 c 0,98,99
 1095 960 1095 960 1144 960 c 0,100,101
 1184 960 1184 960 1217 985 c 1,102,103
 1217 1022 1217 1022 1200.5 1063.5 c 128,-1,104
 1184 1105 1184 1105 1166 1139 c 1,105,-1
 1244 1089 l 1,106,107
 1248 1075 1248 1075 1248 1032 c 0,73,74
EndSplineSet
Ligature2: "'rlig' Required Ligatures in Arabic lookup 5 subtable" afii62817 afii62818 uniFC63 afii62828
Ligature2: "'rlig' Required Ligatures in Arabic lookup 5 subtable" afii62817 afii62818 afii57457 uni0670 afii62828
EndChar

StartChar: afii57415.001
Encoding: 1575 1575 162
Width: 372
GlyphClass: 2
Flags: W
AnchorPoint: "Anchor-3" 270 -435 basechar 0
AnchorPoint: "Anchor-2" 300 1350 basechar 0
LayerCount: 2
Fore
SplineSet
370 351 m 0,0,1
 370 70 370 70 296 -50 c 0,2,3
 268 -95 268 -95 175 -153 c 1,4,-1
 131 -63 l 1,5,6
 269 -20 269 -20 301 71 c 0,7,8
 319 123 319 123 305 335 c 2,9,-1
 247 1190 l 1,10,-1
 361 1095 l 1,11,12
 370 649 370 649 370 351 c 0,0,1
EndSplineSet
Substitution2: "'fina' Terminal Forms in Arabic lookup 2 subtable" afii62760
EndChar

StartChar: afii62760.001
Encoding: 65558 -1 163
Width: 454
GlyphClass: 2
Flags: W
LayerCount: 2
Fore
SplineSet
466 0 m 1,0,-1
 454 0 l 2,1,2
 341 0 341 0 251 114 c 0,3,4
 199 180 199 180 179 299 c 0,5,6
 168 366 168 366 159 561 c 2,7,-1
 131 1181 l 1,8,-1
 242 1082 l 1,9,-1
 253 436 l 2,10,11
 253 386 253 386 253 310 c 0,12,13
 255 234 255 234 285 192 c 0,14,15
 341 114 341 114 454 114 c 2,16,-1
 466 114 l 1,17,-1
 466 0 l 1,0,-1
EndSplineSet
EndChar

StartChar: afii57421
Encoding: 1581 1581 182
Width: 854
GlyphClass: 2
Flags: W
AnchorPoint: "Anchor-3" 525 -1020 basechar 0
AnchorPoint: "Anchor-2" 540 975 basechar 0
LayerCount: 2
Fore
SplineSet
907 -312 m 1,0,-1
 866 -485 l 1,1,2
 710 -599 710 -599 541 -599 c 0,3,4
 355 -599 355 -599 243 -482.5 c 128,-1,5
 131 -366 131 -366 131 -179 c 0,6,7
 131 17 131 17 244 137 c 0,8,9
 342 242 342 242 466 242 c 0,10,11
 538 242 538 242 614 210 c 1,12,13
 609 251 609 251 648.5 360.5 c 128,-1,14
 688 470 688 470 688 522 c 0,15,16
 688 570 688 570 667 626 c 0,17,18
 640 698 640 698 602 698 c 1,19,20
 511 658 511 658 357 497 c 1,21,-1
 399 642 l 1,22,23
 495 726 495 726 592 726 c 0,24,25
 679 726 679 726 735 658 c 0,26,27
 789 594 789 594 789 506 c 0,28,29
 789 461 789 461 754 370.5 c 128,-1,30
 719 280 719 280 719 242 c 0,31,32
 719 185 719 185 757.5 149.5 c 128,-1,33
 796 114 796 114 854 114 c 1,34,-1
 763 28 l 1,35,-1
 619 124 l 2,36,37
 522 188 522 188 448 201 c 1,38,39
 373 170 373 170 314 79 c 0,40,41
 240 -36 240 -36 240 -191 c 0,42,43
 240 -329 240 -329 306 -434 c 0,44,45
 382 -555 382 -555 513 -555 c 0,46,47
 610 -555 610 -555 731 -473 c 0,48,49
 831 -405 831 -405 907 -312 c 1,0,-1
EndSplineSet
Substitution2: "'medi' Medial Forms in Arabic lookup 3 subtable" afii62775
Substitution2: "'fina' Terminal Forms in Arabic lookup 2 subtable" afii62776
Substitution2: "'init' Initial Forms in Arabic lookup 1 subtable" afii62774
EndChar

StartChar: afii62776
Encoding: 65186 65186 183
Width: 842
GlyphClass: 2
Flags: W
AnchorPoint: "Anchor-3" 480 -990 basechar 0
AnchorPoint: "Anchor-2" 525 1020 basechar 0
LayerCount: 2
Fore
SplineSet
907 -312 m 1,0,-1
 866 -485 l 1,1,2
 710 -599 710 -599 541 -599 c 0,3,4
 355 -599 355 -599 243 -482.5 c 128,-1,5
 131 -366 131 -366 131 -179 c 0,6,7
 131 17 131 17 244 137 c 0,8,9
 342 242 342 242 466 242 c 0,10,11
 538 242 538 242 614 210 c 1,12,13
 609 251 609 251 648.5 360.5 c 128,-1,14
 688 470 688 470 688 522 c 0,15,16
 688 570 688 570 667 626 c 0,17,18
 640 698 640 698 602 698 c 1,19,20
 511 658 511 658 357 497 c 1,21,-1
 399 642 l 1,22,23
 495 726 495 726 592 726 c 0,24,25
 679 726 679 726 735 658 c 0,26,27
 789 594 789 594 789 506 c 0,28,29
 789 461 789 461 754 370.5 c 128,-1,30
 719 280 719 280 719 242 c 0,31,32
 719 189 719 189 754 151.5 c 128,-1,33
 789 114 789 114 842 114 c 2,34,-1
 854 114 l 1,35,-1
 854 0 l 1,36,-1
 842 0 l 2,37,38
 799 0 799 0 669 89 c 0,39,40
 529 185 529 185 448 201 c 1,41,42
 373 170 373 170 314 79 c 0,43,44
 240 -36 240 -36 240 -191 c 0,45,46
 240 -329 240 -329 306 -434 c 0,47,48
 382 -555 382 -555 513 -555 c 0,49,50
 610 -555 610 -555 731 -473 c 0,51,52
 831 -405 831 -405 907 -312 c 1,0,-1
EndSplineSet
EndChar

StartChar: afii62774
Encoding: 65187 65187 184
Width: 544
GlyphClass: 2
Flags: W
AnchorPoint: "Anchor-3" 195 -435 basechar 0
AnchorPoint: "Anchor-2" 225 1065 basechar 0
LayerCount: 2
Fore
SplineSet
544 219 m 1,0,-1
 501 100 l 1,1,2
 239 0 239 0 0 0 c 2,3,-1
 -12 0 l 1,4,-1
 -12 114 l 1,5,-1
 0 114 l 2,6,7
 170 114 170 114 296 142 c 1,8,9
 267 190 267 190 267 248 c 0,10,11
 267 296 267 296 299 394.5 c 128,-1,12
 331 493 331 493 331 537 c 0,13,14
 331 585 331 585 310 642 c 0,15,16
 283 714 283 714 245 714 c 1,17,18
 154 673 154 673 0 513 c 1,19,-1
 42 658 l 1,20,21
 138 742 138 742 235 742 c 0,22,23
 322 742 322 742 378 674 c 0,24,25
 432 610 432 610 432 522 c 0,26,27
 432 477 432 477 395.5 385 c 128,-1,28
 359 293 359 293 359 257 c 0,29,30
 359 175 359 175 417 175 c 0,31,32
 466 175 466 175 544 219 c 1,0,-1
EndSplineSet
EndChar

StartChar: afii62775
Encoding: 65188 65188 185
Width: 485
GlyphClass: 2
Flags: W
AnchorPoint: "Anchor-3" 180 -450 basechar 0
AnchorPoint: "Anchor-2" 210 945 basechar 0
LayerCount: 2
Fore
SplineSet
497 4 m 1,0,-1
 485 4 l 2,1,2
 456 4 456 4 389 25.5 c 128,-1,3
 322 47 322 47 289 47 c 0,4,5
 240 47 240 47 144.5 23.5 c 128,-1,6
 49 0 49 0 0 0 c 2,7,-1
 -12 0 l 1,8,-1
 -12 114 l 1,9,-1
 0 114 l 2,10,11
 40 114 40 114 116.5 132.5 c 128,-1,12
 193 151 193 151 232 151 c 0,13,14
 259 151 259 151 289 145 c 1,15,16
 261 191 261 191 261 244 c 0,17,18
 261 291 261 291 296 386 c 128,-1,19
 331 481 331 481 331 525 c 0,20,21
 331 573 331 573 310 630 c 0,22,23
 283 702 283 702 245 702 c 1,24,25
 154 661 154 661 0 501 c 1,26,-1
 42 646 l 1,27,28
 138 730 138 730 235 730 c 0,29,30
 323 730 323 730 379 662 c 0,31,32
 432 599 432 599 432 509 c 0,33,34
 432 465 432 465 395.5 372 c 128,-1,35
 359 279 359 279 359 245 c 0,36,37
 359 193 359 193 396 155 c 128,-1,38
 433 117 433 117 485 117 c 2,39,-1
 497 117 l 1,40,-1
 497 4 l 1,0,-1
EndSplineSet
EndChar

StartChar: afii57423
Encoding: 1583 1583 190
Width: 645
GlyphClass: 2
Flags: W
AnchorPoint: "Anchor-3" 300 -465 basechar 0
AnchorPoint: "Anchor-2" 390 975 basechar 0
LayerCount: 2
Fore
SplineSet
645 296 m 0,0,1
 645 268 645 268 628 205 c 128,-1,2
 611 142 611 142 596 122 c 0,3,4
 559 73 559 73 443 17 c 0,5,6
 320 -42 320 -42 233 -42 c 0,7,8
 125 -42 125 -42 117 21 c 1,9,-1
 124 138 l 1,10,11
 168 72 168 72 264 72 c 0,12,13
 359 72 359 72 472 126 c 0,14,15
 596 185 596 185 596 252 c 0,16,17
 596 331 596 331 508 474 c 0,18,19
 436 591 436 591 376 591 c 0,20,21
 358 591 358 591 337 582 c 1,22,23
 399 675 399 675 455 675 c 0,24,25
 531 675 531 675 594 519 c 0,26,27
 645 389 645 389 645 296 c 0,0,1
EndSplineSet
Substitution2: "'fina' Terminal Forms in Arabic lookup 2 subtable" afii62780
EndChar

StartChar: afii62780
Encoding: 65194 65194 191
Width: 770
GlyphClass: 2
Flags: W
AnchorPoint: "Anchor-3" 285 -480 basechar 0
AnchorPoint: "Anchor-2" 405 945 basechar 0
LayerCount: 2
Fore
SplineSet
776 0 m 1,0,-1
 764 0 l 2,1,2
 616 0 616 0 577 161 c 1,3,4
 571 136 571 136 554 94 c 1,5,6
 517 44 517 44 401 -11 c 0,7,8
 278 -70 278 -70 191 -70 c 0,9,10
 83 -70 83 -70 75 -7 c 1,11,-1
 82 110 l 1,12,13
 126 44 126 44 222 44 c 0,14,15
 317 44 317 44 430 98 c 0,16,17
 554 157 554 157 554 224 c 0,18,19
 554 271 554 271 475 409 c 0,20,21
 411 521 411 521 360 588 c 1,22,-1
 420 682 l 1,23,24
 500 568 500 568 558 420 c 0,25,26
 583 354 583 354 649 183 c 0,27,28
 676 114 676 114 764 114 c 2,29,-1
 776 114 l 1,30,-1
 776 0 l 1,0,-1
EndSplineSet
EndChar

StartChar: afii57425
Encoding: 1585 1585 194
Width: 408
GlyphClass: 2
Flags: W
AnchorPoint: "Anchor-3" 225 -840 basechar 0
AnchorPoint: "Anchor-2" 375 885 basechar 0
LayerCount: 2
Fore
SplineSet
408 618 m 1,0,1
 412 193 412 193 379 45 c 0,2,3
 337 -144 337 -144 247 -263 c 1,4,-1
 73 -314 l 1,5,6
 116 -263 116 -263 157 -201 c 0,7,8
 325 55 325 55 325 394 c 0,9,10
 325 481 325 481 317 553 c 1,11,-1
 408 618 l 1,0,1
EndSplineSet
Substitution2: "'fina' Terminal Forms in Arabic lookup 2 subtable" afii62782
PairPos2: "'kern' Horizontal Kerning in Arabic lookup 0 subtable" afii57415 dx=0 dy=0 dh=0 dv=0 dx=0 dy=0 dh=-50 dv=0
PairPos2: "'kern' Horizontal Kerning in Arabic lookup 0 subtable" uni0675 dx=0 dy=0 dh=0 dv=0 dx=0 dy=0 dh=-50 dv=0
PairPos2: "'kern' Horizontal Kerning in Arabic lookup 0 subtable" uni0672 dx=0 dy=0 dh=0 dv=0 dx=0 dy=0 dh=-50 dv=0
PairPos2: "'kern' Horizontal Kerning in Arabic lookup 0 subtable" afii57434 dx=0 dy=0 dh=0 dv=0 dx=0 dy=0 dh=70 dv=0
PairPos2: "'kern' Horizontal Kerning in Arabic lookup 0 subtable" afii57433 dx=0 dy=0 dh=0 dv=0 dx=0 dy=0 dh=70 dv=0
PairPos2: "'kern' Horizontal Kerning in Arabic lookup 0 subtable" afii57422 dx=0 dy=0 dh=0 dv=0 dx=0 dy=0 dh=50 dv=0
PairPos2: "'kern' Horizontal Kerning in Arabic lookup 0 subtable" afii57421 dx=0 dy=0 dh=0 dv=0 dx=0 dy=0 dh=50 dv=0
PairPos2: "'kern' Horizontal Kerning in Arabic lookup 0 subtable" afii57420 dx=0 dy=0 dh=0 dv=0 dx=0 dy=0 dh=50 dv=0
PairPos2: "'kern' Horizontal Kerning in Arabic lookup 0 subtable" afii57411 dx=0 dy=0 dh=0 dv=0 dx=0 dy=0 dh=-50 dv=0
PairPos2: "'kern' Horizontal Kerning in Arabic lookup 0 subtable" afii57507 dx=0 dy=0 dh=0 dv=0 dx=0 dy=0 dh=50 dv=0
EndChar

StartChar: afii62782
Encoding: 65198 65198 195
Width: 552
GlyphClass: 2
Flags: W
AnchorPoint: "Anchor-3" 225 -705 basechar 0
AnchorPoint: "Anchor-2" 315 810 basechar 0
LayerCount: 2
Fore
SplineSet
559 0 m 1,0,-1
 547 0 l 2,1,2
 418 0 418 0 367 126 c 1,3,4
 367 23 367 23 307 -122 c 0,5,6
 261 -233 261 -233 224 -282 c 1,7,-1
 50 -333 l 1,8,9
 302 -32 302 -32 302 375 c 0,10,11
 302 462 302 462 294 534 c 1,12,-1
 385 598 l 1,13,14
 374 271 374 271 420 203 c 0,15,16
 481 114 481 114 547 114 c 2,17,-1
 559 114 l 1,18,-1
 559 0 l 1,0,-1
EndSplineSet
PairPos2: "'kern' Horizontal Kerning in Arabic lookup 0 subtable" afii62831 dx=0 dy=0 dh=0 dv=0 dx=0 dy=0 dh=50 dv=0
PairPos2: "'kern' Horizontal Kerning in Arabic lookup 0 subtable" afii57444 dx=0 dy=0 dh=0 dv=0 dx=0 dy=0 dh=40 dv=0
PairPos2: "'kern' Horizontal Kerning in Arabic lookup 0 subtable" afii57434 dx=0 dy=0 dh=0 dv=0 dx=0 dy=0 dh=70 dv=0
PairPos2: "'kern' Horizontal Kerning in Arabic lookup 0 subtable" afii57433 dx=0 dy=0 dh=0 dv=0 dx=0 dy=0 dh=70 dv=0
PairPos2: "'kern' Horizontal Kerning in Arabic lookup 0 subtable" afii57422 dx=0 dy=0 dh=0 dv=0 dx=0 dy=0 dh=70 dv=0
PairPos2: "'kern' Horizontal Kerning in Arabic lookup 0 subtable" afii57421 dx=0 dy=0 dh=0 dv=0 dx=0 dy=0 dh=70 dv=0
PairPos2: "'kern' Horizontal Kerning in Arabic lookup 0 subtable" afii57420 dx=0 dy=0 dh=0 dv=0 dx=0 dy=0 dh=70 dv=0
PairPos2: "'kern' Horizontal Kerning in Arabic lookup 0 subtable" afii62761 dx=0 dy=0 dh=0 dv=0 dx=0 dy=0 dh=50 dv=0
PairPos2: "'kern' Horizontal Kerning in Arabic lookup 0 subtable" afii57413 dx=0 dy=0 dh=0 dv=0 dx=0 dy=0 dh=50 dv=0
PairPos2: "'kern' Horizontal Kerning in Arabic lookup 0 subtable" afii57507 dx=0 dy=0 dh=0 dv=0 dx=0 dy=0 dh=70 dv=0
PairPos2: "'kern' Horizontal Kerning in Arabic lookup 0 subtable" afii62956 dx=0 dy=0 dh=0 dv=0 dx=0 dy=0 dh=50 dv=0
EndChar

StartChar: afii57427
Encoding: 1587 1587 198
Width: 1934
GlyphClass: 2
Flags: W
AnchorPoint: "Anchor-3" 735 -735 basechar 0
AnchorPoint: "Anchor-2" 1140 1005 basechar 0
LayerCount: 2
Fore
SplineSet
1934 299 m 0,0,1
 1934 223 1934 223 1890 152 c 0,2,3
 1839 70 1839 70 1768 70 c 0,4,5
 1709 70 1709 70 1660 111.5 c 128,-1,6
 1611 153 1611 153 1596 212 c 1,7,8
 1587 163 1587 163 1551 118 c 0,9,10
 1507 63 1507 63 1449 63 c 0,11,12
 1363 63 1363 63 1309 135 c 1,13,14
 1302 39 1302 39 1272 -102 c 1,15,16
 1243 -160 1243 -160 1079 -224 c 0,17,18
 889 -298 889 -298 681 -298 c 0,19,20
 490 -298 490 -298 329 -215 c 0,21,22
 131 -113 131 -113 131 61 c 0,23,24
 131 203 131 203 257 288 c 0,25,26
 367 362 367 362 516 362 c 0,27,28
 596 362 596 362 690 341 c 1,29,-1
 758 217 l 1,30,31
 598 322 598 322 457 322 c 0,32,33
 388 322 388 322 330 288 c 0,34,35
 238 234 238 234 238 116 c 0,36,37
 238 -53 238 -53 427 -136 c 0,38,39
 568 -198 568 -198 760 -198 c 0,40,41
 1060 -198 1060 -198 1246 -82 c 1,42,43
 1249 -48 1249 -48 1249 -12 c 0,44,45
 1249 278 1249 278 1117 574 c 1,46,-1
 1201 675 l 1,47,48
 1231 609 1231 609 1279 396 c 0,49,50
 1317 226 1317 226 1362 189 c 0,51,52
 1396 161 1396 161 1439 161 c 0,53,54
 1565 161 1565 161 1565 331 c 0,55,56
 1565 366 1565 366 1533 690 c 1,57,-1
 1628 614 l 1,58,-1
 1628 313 l 2,59,60
 1628 168 1628 168 1724 168 c 0,61,62
 1800 168 1800 168 1851 213 c 0,63,64
 1892 249 1892 249 1892 282 c 0,65,66
 1892 355 1892 355 1814 512 c 0,67,68
 1754 633 1754 633 1703 705 c 1,69,-1
 1864 614 l 1,70,71
 1934 450 1934 450 1934 299 c 0,0,1
EndSplineSet
Substitution2: "'medi' Medial Forms in Arabic lookup 3 subtable" afii62785
Substitution2: "'fina' Terminal Forms in Arabic lookup 2 subtable" afii62786
Substitution2: "'init' Initial Forms in Arabic lookup 1 subtable" afii62784
EndChar

StartChar: afii62786
Encoding: 65202 65202 199
Width: 2137
GlyphClass: 2
Flags: W
AnchorPoint: "Anchor-3" 720 -825 basechar 0
AnchorPoint: "Anchor-2" 1110 990 basechar 0
LayerCount: 2
Fore
SplineSet
2149 0 m 1,0,-1
 2137 0 l 2,1,2
 2066 0 2066 0 1999 42 c 0,3,4
 1927 86 1927 86 1911 152 c 1,5,6
 1901 106 1901 106 1873 64 c 0,7,8
 1830 0 1830 0 1768 0 c 0,9,10
 1709 0 1709 0 1660 41.5 c 128,-1,11
 1611 83 1611 83 1596 142 c 1,12,13
 1587 93 1587 93 1551 48 c 0,14,15
 1507 -7 1507 -7 1449 -7 c 0,16,17
 1363 -7 1363 -7 1309 65 c 1,18,19
 1302 -31 1302 -31 1272 -172 c 1,20,21
 1243 -230 1243 -230 1079 -294 c 0,22,23
 889 -368 889 -368 681 -368 c 0,24,25
 490 -368 490 -368 329 -285 c 0,26,27
 131 -183 131 -183 131 -9 c 0,28,29
 131 133 131 133 257 218 c 0,30,31
 367 292 367 292 516 292 c 0,32,33
 596 292 596 292 690 271 c 1,34,-1
 758 147 l 1,35,36
 598 252 598 252 457 252 c 0,37,38
 388 252 388 252 330 218 c 0,39,40
 238 164 238 164 238 46 c 0,41,42
 238 -123 238 -123 427 -206 c 0,43,44
 568 -268 568 -268 760 -268 c 0,45,46
 1071 -268 1071 -268 1246 -152 c 1,47,48
 1249 -118 1249 -118 1249 -82 c 0,49,50
 1249 208 1249 208 1117 504 c 1,51,-1
 1201 605 l 1,52,53
 1231 539 1231 539 1279 326 c 0,54,55
 1317 156 1317 156 1362 119 c 0,56,57
 1396 91 1396 91 1439 91 c 0,58,59
 1565 91 1565 91 1565 261 c 0,60,61
 1565 296 1565 296 1533 620 c 1,62,-1
 1628 544 l 1,63,-1
 1628 243 l 2,64,65
 1628 98 1628 98 1724 98 c 0,66,67
 1876 98 1876 98 1876 266 c 0,68,69
 1876 338 1876 338 1846 635 c 1,70,-1
 1948 551 l 1,71,72
 1948 355 1948 355 1953 291 c 0,73,74
 1960 201 1960 201 1986 170 c 0,75,76
 2033 114 2033 114 2137 114 c 2,77,-1
 2149 114 l 1,78,-1
 2149 0 l 1,0,-1
EndSplineSet
EndChar

StartChar: afii62784
Encoding: 65203 65203 200
Width: 887
GlyphClass: 2
Flags: W
AnchorPoint: "Anchor-3" 435 -480 basechar 0
AnchorPoint: "Anchor-2" 480 945 basechar 0
LayerCount: 2
Fore
SplineSet
887 229 m 0,0,1
 887 153 887 153 843 81 c 0,2,3
 793 0 793 0 721 0 c 0,4,5
 662 0 662 0 613.5 42 c 128,-1,6
 565 84 565 84 550 142 c 1,7,8
 541 92 541 92 505 48 c 0,9,10
 460 -7 460 -7 403 -7 c 0,11,12
 267 -7 267 -7 219 161 c 1,13,14
 187 95 187 95 130 50 c 0,15,16
 67 0 67 0 0 0 c 2,17,-1
 -12 0 l 1,18,-1
 -12 114 l 1,19,-1
 0 114 l 2,20,21
 69 114 69 114 132.5 171 c 128,-1,22
 196 228 196 228 196 296 c 0,23,24
 196 531 196 531 179 635 c 1,25,-1
 277 557 l 1,26,27
 277 510 277 510 272 416 c 128,-1,28
 267 322 267 322 267 275 c 0,29,30
 267 167 267 167 282 142 c 0,31,32
 313 91 313 91 382 91 c 0,33,34
 448 91 448 91 487 155 c 0,35,36
 518 206 518 206 518 261 c 0,37,38
 518 296 518 296 487 635 c 1,39,-1
 581 559 l 1,40,-1
 581 243 l 2,41,42
 581 98 581 98 677 98 c 0,43,44
 754 98 754 98 805 143 c 0,45,46
 845 179 845 179 845 212 c 0,47,48
 845 287 845 287 768 442 c 0,49,50
 708 563 708 563 656 635 c 1,51,-1
 817 544 l 1,52,53
 887 380 887 380 887 229 c 0,0,1
EndSplineSet
EndChar

StartChar: afii62785
Encoding: 65204 65204 201
Width: 1090
GlyphClass: 2
Flags: W
AnchorPoint: "Anchor-3" 450 -540 basechar 0
AnchorPoint: "Anchor-2" 525 990 basechar 0
LayerCount: 2
Fore
SplineSet
1103 0 m 1,0,-1
 1090 0 l 2,1,2
 1020 0 1020 0 953 42 c 0,3,4
 880 87 880 87 865 152 c 1,5,6
 855 107 855 107 826 64 c 0,7,8
 783 0 783 0 721 0 c 0,9,10
 662 0 662 0 613.5 42 c 128,-1,11
 565 84 565 84 550 142 c 1,12,13
 541 92 541 92 505 48 c 0,14,15
 460 -7 460 -7 403 -7 c 0,16,17
 267 -7 267 -7 219 161 c 1,18,19
 187 95 187 95 130 50 c 0,20,21
 67 0 67 0 0 0 c 2,22,-1
 -12 0 l 1,23,-1
 -12 114 l 1,24,-1
 0 114 l 2,25,26
 69 114 69 114 132.5 171 c 128,-1,27
 196 228 196 228 196 296 c 0,28,29
 196 531 196 531 179 635 c 1,30,-1
 277 557 l 1,31,32
 277 510 277 510 272 416 c 128,-1,33
 267 322 267 322 267 275 c 0,34,35
 267 167 267 167 282 142 c 0,36,37
 313 91 313 91 382 91 c 0,38,39
 448 91 448 91 485 145 c 0,40,41
 518 192 518 192 518 261 c 0,42,43
 518 296 518 296 487 633 c 1,44,-1
 581 557 l 1,45,-1
 581 243 l 2,46,47
 581 98 581 98 677 98 c 0,48,49
 830 98 830 98 830 266 c 0,50,51
 830 338 830 338 800 635 c 1,52,-1
 901 551 l 1,53,54
 901 356 901 356 906 292 c 0,55,56
 913 202 913 202 940 170 c 0,57,58
 988 114 988 114 1090 114 c 2,59,-1
 1103 114 l 1,60,-1
 1103 0 l 1,0,-1
EndSplineSet
EndChar

StartChar: afii57429
Encoding: 1589 1589 206
Width: 2032
GlyphClass: 2
Flags: W
AnchorPoint: "Anchor-3" 720 -735 basechar 0
AnchorPoint: "Anchor-2" 1230 1020 basechar 0
LayerCount: 2
Fore
SplineSet
2032 548 m 0,0,1
 2032 363 2032 363 1880 219 c 0,2,3
 1715 63 1715 63 1467 63 c 0,4,5
 1369 63 1369 63 1310 113 c 1,6,7
 1301 25 1301 25 1272 -102 c 1,8,9
 1243 -160 1243 -160 1079 -224 c 0,10,11
 889 -298 889 -298 681 -298 c 0,12,13
 490 -298 490 -298 329 -215 c 0,14,15
 131 -113 131 -113 131 61 c 0,16,17
 131 203 131 203 257 288 c 0,18,19
 367 362 367 362 516 362 c 0,20,21
 596 362 596 362 690 341 c 1,22,-1
 758 217 l 1,23,24
 598 322 598 322 457 322 c 0,25,26
 388 322 388 322 330 288 c 0,27,28
 238 234 238 234 238 116 c 0,29,30
 238 -53 238 -53 427 -136 c 0,31,32
 568 -198 568 -198 760 -198 c 0,33,34
 1060 -198 1060 -198 1246 -82 c 1,35,36
 1249 -48 1249 -48 1249 -12 c 0,37,38
 1249 278 1249 278 1117 574 c 1,39,-1
 1201 675 l 1,40,41
 1221 632 1221 632 1280 403 c 0,42,43
 1320 246 1320 246 1391 202 c 1,44,-1
 1381 306 l 1,45,46
 1740 709 1740 709 1889 709 c 0,47,48
 2032 709 2032 709 2032 548 c 0,0,1
1942 386 m 1,49,50
 1955 445 1955 445 1955 470 c 0,51,52
 1955 559 1955 559 1854 659 c 1,53,54
 1758 592 1758 592 1611 427 c 0,55,56
 1496 297 1496 297 1417 189 c 1,57,58
 1447 177 1447 177 1488 177 c 0,59,60
 1812 177 1812 177 1942 386 c 1,49,50
EndSplineSet
Substitution2: "'medi' Medial Forms in Arabic lookup 3 subtable" afii62791
Substitution2: "'fina' Terminal Forms in Arabic lookup 2 subtable" afii62792
Substitution2: "'init' Initial Forms in Arabic lookup 1 subtable" afii62790
EndChar

StartChar: afii62792
Encoding: 65210 65210 207
Width: 2082
GlyphClass: 2
Flags: W
AnchorPoint: "Anchor-3" 735 -735 basechar 0
AnchorPoint: "Anchor-2" 1260 975 basechar 0
LayerCount: 2
Fore
SplineSet
2088 0 m 1,0,-1
 2076 0 l 2,1,2
 2008 0 2008 0 1938 25 c 0,3,4
 1854 55 1854 55 1831 107 c 1,5,6
 1676 -7 1676 -7 1467 -7 c 0,7,8
 1370 -7 1370 -7 1310 43 c 1,9,10
 1301 -45 1301 -45 1272 -172 c 1,11,12
 1243 -230 1243 -230 1079 -294 c 0,13,14
 889 -368 889 -368 681 -368 c 0,15,16
 490 -368 490 -368 329 -285 c 0,17,18
 131 -183 131 -183 131 -9 c 0,19,20
 131 133 131 133 257 218 c 0,21,22
 367 292 367 292 516 292 c 0,23,24
 596 292 596 292 690 271 c 1,25,-1
 758 147 l 1,26,27
 598 252 598 252 457 252 c 0,28,29
 388 252 388 252 330 218 c 0,30,31
 238 164 238 164 238 46 c 0,32,33
 238 -123 238 -123 427 -206 c 0,34,35
 568 -268 568 -268 760 -268 c 0,36,37
 1071 -268 1071 -268 1246 -152 c 1,38,39
 1249 -118 1249 -118 1249 -82 c 0,40,41
 1249 208 1249 208 1117 504 c 1,42,-1
 1201 605 l 1,43,44
 1221 562 1221 562 1280 333 c 0,45,46
 1320 176 1320 176 1391 132 c 1,47,-1
 1381 236 l 1,48,49
 1740 639 1740 639 1889 639 c 0,50,51
 2032 639 2032 639 2032 478 c 0,52,53
 2032 297 2032 297 1887 155 c 1,54,55
 1933 114 1933 114 2076 114 c 2,56,-1
 2088 114 l 1,57,-1
 2088 0 l 1,0,-1
1942 316 m 1,58,59
 1955 375 1955 375 1955 400 c 0,60,61
 1955 489 1955 489 1854 589 c 1,62,63
 1758 522 1758 522 1611 357 c 0,64,65
 1496 227 1496 227 1417 119 c 1,66,67
 1447 107 1447 107 1488 107 c 0,68,69
 1812 107 1812 107 1942 316 c 1,58,59
EndSplineSet
EndChar

StartChar: afii62790
Encoding: 65211 65211 208
Width: 1003
GlyphClass: 2
Flags: W
AnchorPoint: "Anchor-3" 345 -465 basechar 0
AnchorPoint: "Anchor-2" 375 945 basechar 0
LayerCount: 2
Fore
SplineSet
1003 478 m 0,0,1
 1003 300 1003 300 861 157 c 0,2,3
 698 -7 698 -7 438 -7 c 0,4,5
 361 -7 361 -7 300 41 c 128,-1,6
 239 89 239 89 217 163 c 1,7,8
 118 0 118 0 0 0 c 2,9,-1
 -12 0 l 1,10,-1
 -12 114 l 1,11,-1
 0 114 l 2,12,13
 106 114 106 114 165 222 c 0,14,15
 202 289 202 289 194 612 c 1,16,-1
 290 531 l 1,17,18
 268 470 268 470 268 375 c 0,19,20
 268 184 268 184 362 132 c 1,21,-1
 352 236 l 1,22,23
 711 639 711 639 860 639 c 0,24,25
 1003 639 1003 639 1003 478 c 0,0,1
913 316 m 1,26,27
 926 375 926 375 926 400 c 0,28,29
 926 489 926 489 825 589 c 1,30,31
 729 522 729 522 582 357 c 0,32,33
 467 227 467 227 388 119 c 1,34,35
 418 107 418 107 459 107 c 0,36,37
 783 107 783 107 913 316 c 1,26,27
EndSplineSet
EndChar

StartChar: afii62791
Encoding: 65212 65212 209
Width: 1051
GlyphClass: 2
Flags: W
AnchorPoint: "Anchor-3" 450 -450 basechar 0
AnchorPoint: "Anchor-2" 450 870 basechar 0
LayerCount: 2
Fore
SplineSet
1059 0 m 1,0,-1
 1047 0 l 2,1,2
 979 0 979 0 909 25 c 0,3,4
 825 55 825 55 802 107 c 1,5,6
 647 -7 647 -7 438 -7 c 0,7,8
 361 -7 361 -7 300 41 c 128,-1,9
 239 89 239 89 217 163 c 1,10,11
 118 0 118 0 0 0 c 2,12,-1
 -12 0 l 1,13,-1
 -12 114 l 1,14,-1
 0 114 l 2,15,16
 106 114 106 114 165 222 c 0,17,18
 202 289 202 289 194 612 c 1,19,-1
 290 531 l 1,20,21
 268 470 268 470 268 375 c 0,22,23
 268 184 268 184 362 132 c 1,24,-1
 352 236 l 1,25,26
 711 639 711 639 860 639 c 0,27,28
 1003 639 1003 639 1003 478 c 0,29,30
 1003 297 1003 297 858 155 c 1,31,32
 904 114 904 114 1047 114 c 2,33,-1
 1059 114 l 1,34,-1
 1059 0 l 1,0,-1
913 316 m 1,35,36
 926 375 926 375 926 400 c 0,37,38
 926 489 926 489 825 589 c 1,39,40
 729 522 729 522 582 357 c 0,41,42
 467 227 467 227 388 119 c 1,43,44
 418 107 418 107 459 107 c 0,45,46
 783 107 783 107 913 316 c 1,35,36
EndSplineSet
EndChar

StartChar: afii57431
Encoding: 1591 1591 214
Width: 933
GlyphClass: 2
Flags: W
AnchorPoint: "Anchor-3" 570 -435 basechar 0
AnchorPoint: "Anchor-2" 750 1095 basechar 0
LayerCount: 2
Fore
SplineSet
933 485 m 0,0,1
 933 300 933 300 781 156 c 0,2,3
 616 0 616 0 368 0 c 0,4,5
 247 0 247 0 186 33 c 1,6,-1
 131 172 l 1,7,8
 194 129 194 129 294 119 c 1,9,-1
 282 243 l 1,10,-1
 327 292 l 2,11,12
 415 388 415 388 415 480 c 0,13,14
 415 553 415 553 340 1171 c 1,15,-1
 446 1073 l 1,16,-1
 471 571 l 2,17,18
 473 527 473 527 462 434 c 1,19,20
 679 646 679 646 790 646 c 0,21,22
 933 646 933 646 933 485 c 0,0,1
843 323 m 1,23,24
 856 382 856 382 856 407 c 0,25,26
 856 496 856 496 755 596 c 1,27,28
 656 526 656 526 510 363 c 0,29,30
 392 231 392 231 312 117 c 1,31,32
 345 114 345 114 389 114 c 0,33,34
 713 114 713 114 843 323 c 1,23,24
EndSplineSet
Substitution2: "'medi' Medial Forms in Arabic lookup 3 subtable" afii62797
Substitution2: "'fina' Terminal Forms in Arabic lookup 2 subtable" afii62798
Substitution2: "'init' Initial Forms in Arabic lookup 1 subtable" afii62796
EndChar

StartChar: afii62798
Encoding: 65218 65218 215
Width: 942
GlyphClass: 2
Flags: W
AnchorPoint: "Anchor-3" 405 -360 basechar 0
AnchorPoint: "Anchor-2" 750 1095 basechar 0
LayerCount: 2
Fore
SplineSet
949 0 m 1,0,-1
 937 0 l 2,1,2
 776 0 776 0 729 112 c 1,3,4
 576 0 576 0 368 0 c 0,5,6
 247 0 247 0 186 33 c 1,7,-1
 131 172 l 1,8,9
 194 129 194 129 294 119 c 1,10,-1
 282 243 l 1,11,-1
 327 292 l 2,12,13
 415 388 415 388 415 480 c 0,14,15
 415 553 415 553 340 1171 c 1,16,-1
 446 1073 l 1,17,-1
 471 571 l 2,18,19
 473 527 473 527 462 434 c 1,20,21
 679 646 679 646 790 646 c 0,22,23
 933 646 933 646 933 485 c 0,24,25
 933 301 933 301 784 158 c 1,26,27
 830 114 830 114 937 114 c 2,28,-1
 949 114 l 1,29,-1
 949 0 l 1,0,-1
843 323 m 1,30,31
 856 382 856 382 856 407 c 0,32,33
 856 496 856 496 755 596 c 1,34,35
 656 526 656 526 510 363 c 0,36,37
 392 231 392 231 312 117 c 1,38,39
 345 114 345 114 389 114 c 0,40,41
 713 114 713 114 843 323 c 1,30,31
EndSplineSet
EndChar

StartChar: afii62796
Encoding: 65219 65219 216
Width: 675
GlyphClass: 2
Flags: W
AnchorPoint: "Anchor-3" 255 -405 basechar 0
AnchorPoint: "Anchor-2" 480 1080 basechar 0
LayerCount: 2
Fore
SplineSet
675 485 m 0,0,1
 675 300 675 300 523 156 c 0,2,3
 358 0 358 0 110 0 c 2,4,-1
 -8 0 l 1,5,-1
 -8 114 l 1,6,-1
 37 114 l 1,7,-1
 24 243 l 1,8,-1
 69 292 l 2,9,10
 157 388 157 388 157 480 c 0,11,12
 157 553 157 553 82 1171 c 1,13,-1
 188 1073 l 1,14,-1
 213 571 l 2,15,16
 215 527 215 527 204 434 c 1,17,18
 421 646 421 646 532 646 c 0,19,20
 675 646 675 646 675 485 c 0,0,1
585 323 m 1,21,22
 598 382 598 382 598 407 c 0,23,24
 598 496 598 496 497 596 c 1,25,26
 403 530 403 530 259 370 c 0,27,28
 136 233 136 233 51 114 c 1,29,-1
 142 114 l 2,30,31
 458 114 458 114 585 323 c 1,21,22
EndSplineSet
EndChar

StartChar: afii62797
Encoding: 65220 65220 217
Width: 684
GlyphClass: 2
Flags: W
AnchorPoint: "Anchor-3" 225 -420 basechar 0
AnchorPoint: "Anchor-2" 540 1020 basechar 0
LayerCount: 2
Fore
SplineSet
691 0 m 1,0,-1
 679 0 l 2,1,2
 518 0 518 0 471 112 c 1,3,4
 318 0 318 0 110 0 c 2,5,-1
 -8 0 l 1,6,-1
 -8 114 l 1,7,-1
 37 114 l 1,8,-1
 24 243 l 1,9,-1
 69 292 l 2,10,11
 157 388 157 388 157 480 c 0,12,13
 157 553 157 553 82 1171 c 1,14,-1
 188 1073 l 1,15,-1
 213 571 l 2,16,17
 215 527 215 527 204 434 c 1,18,19
 421 646 421 646 532 646 c 0,20,21
 675 646 675 646 675 485 c 0,22,23
 675 301 675 301 526 158 c 1,24,25
 572 114 572 114 679 114 c 2,26,-1
 691 114 l 1,27,-1
 691 0 l 1,0,-1
585 323 m 1,28,29
 598 382 598 382 598 407 c 0,30,31
 598 496 598 496 497 596 c 1,32,33
 403 530 403 530 259 370 c 0,34,35
 136 233 136 233 51 114 c 1,36,-1
 142 114 l 2,37,38
 458 114 458 114 585 323 c 1,28,29
EndSplineSet
EndChar

StartChar: afii57433
Encoding: 1593 1593 222
Width: 854
GlyphClass: 2
Flags: W
AnchorPoint: "Anchor-3" 510 -1035 basechar 0
AnchorPoint: "Anchor-2" 570 1125 basechar 0
LayerCount: 2
Fore
SplineSet
940 -326 m 1,0,-1
 900 -509 l 1,1,2
 722 -635 722 -635 529 -635 c 0,3,4
 347 -635 347 -635 237 -516 c 0,5,6
 131 -401 131 -401 131 -217 c 0,7,8
 131 137 131 137 422 252 c 1,9,10
 322 324 322 324 322 446 c 0,11,12
 322 622 322 622 410 725 c 0,13,14
 485 812 485 812 581 812 c 0,15,16
 726 812 726 812 854 711 c 1,17,-1
 814 616 l 1,18,19
 739 741 739 741 609 788 c 1,20,21
 411 725 411 725 411 443 c 0,22,23
 411 358 411 358 427 308 c 1,24,25
 514 268 514 268 644 268 c 256,26,27
 774 268 774 268 852 287 c 1,28,-1
 772 189 l 1,29,30
 699 215 699 215 627 215 c 0,31,32
 434 215 434 215 334 86 c 0,33,34
 243 -31 243 -31 243 -229 c 0,35,36
 243 -380 243 -380 309 -476 c 0,37,38
 385 -586 385 -586 529 -586 c 0,39,40
 639 -586 639 -586 739 -518 c 0,41,42
 823 -461 823 -461 940 -326 c 1,0,-1
EndSplineSet
Substitution2: "'medi' Medial Forms in Arabic lookup 3 subtable" afii62803
Substitution2: "'fina' Terminal Forms in Arabic lookup 2 subtable" afii62804
Substitution2: "'init' Initial Forms in Arabic lookup 1 subtable" afii62802
EndChar

StartChar: afii62804
Encoding: 65226 65226 223
Width: 819
GlyphClass: 2
Flags: W
AnchorPoint: "Anchor-3" 555 -990 basechar 0
AnchorPoint: "Anchor-2" 495 840 basechar 0
LayerCount: 2
Fore
SplineSet
940 -326 m 1,0,-1
 900 -509 l 1,1,2
 722 -635 722 -635 529 -635 c 0,3,4
 347 -635 347 -635 237 -516 c 0,5,6
 131 -401 131 -401 131 -217 c 0,7,8
 131 -105 131 -105 183.5 -0.5 c 128,-1,9
 236 104 236 104 326 165 c 0,10,11
 370 194 370 194 490 221 c 1,12,13
 410 389 410 389 306 455 c 0,14,15
 270 478 270 478 228 473 c 1,16,-1
 228 586 l 1,17,18
 389 606 389 606 473 606 c 0,19,20
 757 606 757 606 784 536 c 0,21,22
 791 518 791 518 791 497 c 0,23,24
 791 414 791 414 727 326 c 0,25,26
 672 251 672 251 593 198 c 1,27,28
 680 114 680 114 819 114 c 2,29,-1
 831 114 l 1,30,-1
 831 0 l 1,31,-1
 819 0 l 2,32,33
 640 0 640 0 525 165 c 1,34,35
 493 165 493 165 431 158 c 1,36,37
 382 148 382 148 317 28 c 0,38,39
 243 -109 243 -109 243 -247 c 0,40,41
 243 -388 243 -388 314 -482 c 0,42,43
 392 -586 392 -586 529 -586 c 0,44,45
 639 -586 639 -586 739 -518 c 0,46,47
 823 -461 823 -461 940 -326 c 1,0,-1
737 478 m 0,48,49
 721 502 721 502 580 502 c 0,50,51
 474 502 474 502 378 492 c 1,52,53
 410 463 410 463 453 389 c 0,54,55
 509 293 509 293 548 243 c 1,56,57
 629 278 629 278 689 353 c 0,58,59
 741 418 741 418 741 461 c 0,60,61
 741 472 741 472 737 478 c 0,48,49
EndSplineSet
EndChar

StartChar: afii62802
Encoding: 65227 65227 224
Width: 599
GlyphClass: 2
Flags: W
AnchorPoint: "Anchor-3" 270 -450 basechar 0
AnchorPoint: "Anchor-2" 270 1005 basechar 0
LayerCount: 2
Fore
SplineSet
599 231 m 1,0,-1
 532 84 l 1,1,2
 268 0 268 0 51 0 c 2,3,-1
 -12 0 l 1,4,-1
 -12 114 l 1,5,-1
 152 114 l 1,6,7
 93 147 93 147 49 220 c 128,-1,8
 5 293 5 293 5 359 c 0,9,10
 5 535 5 535 93 638 c 0,11,12
 167 725 167 725 264 725 c 0,13,14
 409 725 409 725 537 623 c 1,15,-1
 497 529 l 1,16,17
 420 656 420 656 292 700 c 1,18,19
 103 640 103 640 102 410 c 0,20,21
 101 246 101 246 179 144 c 1,22,23
 244 125 244 125 324 133 c 0,24,25
 459 146 459 146 599 231 c 1,0,-1
EndSplineSet
EndChar

StartChar: afii62803
Encoding: 65228 65228 225
Width: 641
GlyphClass: 2
Flags: W
AnchorPoint: "Anchor-3" 285 -465 basechar 0
AnchorPoint: "Anchor-2" 315 915 basechar 0
LayerCount: 2
Fore
SplineSet
653 0 m 1,0,-1
 641 0 l 2,1,2
 467 0 467 0 357 140 c 1,3,4
 195 0 195 0 0 0 c 2,5,-1
 -12 0 l 1,6,-1
 -12 114 l 1,7,-1
 0 114 l 2,8,9
 180 114 180 114 312 194 c 1,10,11
 238 323 238 323 222 347 c 0,12,13
 131 482 131 482 49 482 c 0,14,15
 40 482 40 482 32 481 c 1,16,-1
 32 595 l 1,17,18
 193 614 193 614 277 614 c 0,19,20
 561 614 561 614 588 544 c 0,21,22
 592 534 592 534 592 517 c 0,23,24
 592 456 592 456 551 371 c 0,25,26
 500 265 500 265 411 189 c 1,27,28
 490 114 490 114 641 114 c 2,29,-1
 653 114 l 1,30,-1
 653 0 l 1,0,-1
529 488 m 0,31,32
 512 511 512 511 381 511 c 0,33,34
 282 511 282 511 182 501 c 1,35,36
 214 472 214 472 265 386 c 0,37,38
 327 282 327 282 368 229 c 1,39,40
 445 278 445 278 493 364 c 0,41,42
 531 432 531 432 531 476 c 0,43,44
 531 485 531 485 529 488 c 0,31,32
EndSplineSet
EndChar

StartChar: afii57443
Encoding: 1603 1603 238
Width: 1437
GlyphClass: 2
Flags: W
AnchorPoint: "Anchor-3" 720 -435 basechar 0
AnchorPoint: "Anchor-2" 600 1035 basechar 0
LayerCount: 2
Fore
SplineSet
1411 337 m 0,0,1
 1408 308 1408 308 1401 281 c 0,2,3
 1398 265 1398 265 1393 247 c 0,4,5
 1376 187 1376 187 1351 166 c 0,6,7
 1280 107 1280 107 1094 51 c 0,8,9
 854 -21 854 -21 581 -21 c 0,10,11
 402 -21 402 -21 282 44 c 0,12,13
 131 126 131 126 131 289 c 0,14,15
 131 447 131 447 308 590 c 1,16,-1
 308 490 l 1,17,18
 173 393 173 393 173 340 c 0,19,20
 173 270 173 270 271 196 c 0,21,22
 404 96 404 96 637 96 c 0,23,24
 899 96 899 96 1140 169 c 0,25,26
 1234 197 1234 197 1287 223 c 0,27,28
 1291 224 1291 224 1294 226 c 2,29,-1
 1297 228 l 1,30,31
 1351 259 1351 259 1349 341 c 1,32,-1
 1279 1197 l 1,33,-1
 1395 1101 l 1,34,35
 1414 643 1414 643 1414 438 c 0,36,37
 1414 372 1414 372 1411 337 c 0,0,1
952 814 m 1,38,-1
 925 735 l 1,39,40
 886 728 886 728 812 704 c 1,41,42
 738 670 738 670 652 553 c 1,43,-1
 652 627 l 1,44,45
 683 666 683 666 766 735 c 1,46,47
 672 768 672 768 672 830 c 0,48,49
 672 890 672 890 743 958 c 0,50,51
 807 1019 807 1019 840 1019 c 0,52,53
 886 1019 886 1019 905 942 c 0,54,55
 916 897 916 897 906 835 c 1,56,-1
 861 882 l 1,57,58
 872 907 872 907 872 926 c 0,59,60
 872 954 872 954 845 954 c 0,61,62
 806 954 806 954 754 922 c 0,63,64
 698 887 698 887 698 851 c 0,65,66
 698 836 698 836 742 814 c 0,67,68
 793 788 793 788 845 788 c 0,69,70
 887 788 887 788 952 814 c 1,38,-1
EndSplineSet
Substitution2: "'medi' Medial Forms in Arabic lookup 3 subtable" afii52306
Substitution2: "'fina' Terminal Forms in Arabic lookup 2 subtable" afii62816
Substitution2: "'init' Initial Forms in Arabic lookup 1 subtable" afii52305
EndChar

StartChar: afii62816
Encoding: 65242 65242 239
Width: 1725
GlyphClass: 2
Flags: W
AnchorPoint: "Anchor-3" 735 -405 basechar 0
AnchorPoint: "Anchor-2" 630 975 basechar 0
LayerCount: 2
Fore
SplineSet
1737 0 m 1,0,-1
 1725 0 l 2,1,2
 1507 0 1507 0 1384 230 c 1,3,4
 1366 166 1366 166 1341 144 c 0,5,6
 1284 94 1284 94 1094 43 c 0,7,8
 855 -21 855 -21 581 -21 c 0,9,10
 402 -21 402 -21 282 44 c 0,11,12
 131 126 131 126 131 289 c 0,13,14
 131 447 131 447 308 590 c 1,15,-1
 308 490 l 1,16,17
 173 393 173 393 173 340 c 0,18,19
 173 270 173 270 271 196 c 0,20,21
 404 96 404 96 637 96 c 0,22,23
 812 96 812 96 1034 135 c 0,24,25
 1347 189 1347 189 1375 294 c 0,26,27
 1375 301 1375 301 1375 309 c 2,28,-1
 1301 1164 l 1,29,-1
 1416 1069 l 1,30,31
 1423 769 1423 769 1443 289 c 1,32,33
 1489 178 1489 178 1504 151 c 1,34,35
 1573 114 1573 114 1725 114 c 2,36,-1
 1737 114 l 1,37,-1
 1737 0 l 1,0,-1
992 819 m 1,38,-1
 965 740 l 1,39,40
 926 733 926 733 852 709 c 1,41,42
 778 675 778 675 692 558 c 1,43,-1
 692 632 l 1,44,45
 723 671 723 671 806 740 c 1,46,47
 712 773 712 773 712 835 c 0,48,49
 712 895 712 895 783 963 c 0,50,51
 847 1024 847 1024 880 1024 c 0,52,53
 926 1024 926 1024 945 947 c 0,54,55
 956 902 956 902 946 840 c 1,56,-1
 901 887 l 1,57,58
 912 912 912 912 912 931 c 0,59,60
 912 959 912 959 885 959 c 0,61,62
 846 959 846 959 794 927 c 0,63,64
 738 892 738 892 738 856 c 0,65,66
 738 841 738 841 782 819 c 0,67,68
 833 793 833 793 885 793 c 0,69,70
 927 793 927 793 992 819 c 1,38,-1
EndSplineSet
EndChar

StartChar: afii57444
Encoding: 1604 1604 242
Width: 1265
GlyphClass: 2
Flags: W
AnchorPoint: "Anchor-3" 705 -615 basechar 0
AnchorPoint: "Anchor-2" 900 1275 basechar 0
LayerCount: 2
Fore
SplineSet
1258 -45 m 0,0,1
 1242 -87 1242 -87 1115 -131 c 0,2,3
 968 -182 968 -182 795 -182 c 0,4,5
 582 -182 582 -182 382 -92 c 0,6,7
 131 21 131 21 131 209 c 0,8,9
 131 346 131 346 251 432 c 0,10,11
 359 510 359 510 501 510 c 0,12,13
 597 510 597 510 709 480 c 1,14,-1
 777 356 l 1,15,16
 610 470 610 470 476 470 c 0,17,18
 376 470 376 470 310 417 c 0,19,20
 238 360 238 360 238 263 c 0,21,22
 238 78 238 78 502 -23 c 0,23,24
 700 -99 700 -99 919 -99 c 0,25,26
 1107 -99 1107 -99 1222 -34 c 1,27,-1
 1113 1217 l 1,28,-1
 1229 1122 l 1,29,30
 1266 392 1266 392 1266 100 c 0,31,32
 1266 -24 1266 -24 1258 -45 c 0,0,1
EndSplineSet
Substitution2: "'medi' Medial Forms in Arabic lookup 3 subtable" afii62818
Substitution2: "'fina' Terminal Forms in Arabic lookup 2 subtable" afii62819
Substitution2: "'init' Initial Forms in Arabic lookup 1 subtable" afii62817
EndChar

StartChar: afii62817
Encoding: 65247 65247 243
Width: 341
GlyphClass: 2
Flags: W
AnchorPoint: "Anchor-3" 240 -375 basechar 0
AnchorPoint: "Anchor-2" 180 1305 basechar 0
LayerCount: 2
Fore
SplineSet
339 316 m 0,0,1
 327 177 327 177 210 83 c 0,2,3
 107 0 107 0 5 0 c 2,4,-1
 -12 0 l 1,5,-1
 -12 114 l 1,6,-1
 14 114 l 2,7,8
 104 114 104 114 188 170 c 0,9,10
 284 234 284 234 277 320 c 2,11,-1
 207 1176 l 1,12,-1
 323 1080 l 1,13,14
 342 622 342 622 342 417 c 0,15,16
 342 351 342 351 339 316 c 0,0,1
EndSplineSet
EndChar

StartChar: afii62818
Encoding: 65248 65248 244
Width: 480
GlyphClass: 2
Flags: W
AnchorPoint: "Anchor-3" 240 -405 basechar 0
AnchorPoint: "Anchor-2" 225 1350 basechar 0
LayerCount: 2
Fore
SplineSet
492 0 m 1,0,-1
 480 0 l 2,1,2
 331 0 331 0 268 201 c 1,3,4
 249 126 249 126 166 63 c 128,-1,5
 83 0 83 0 5 0 c 2,6,-1
 -12 0 l 1,7,-1
 -12 114 l 1,8,-1
 14 114 l 2,9,10
 102 114 102 114 177 172 c 0,11,12
 258 235 258 235 251 320 c 2,13,-1
 177 1175 l 1,14,-1
 292 1080 l 1,15,16
 299 776 299 776 320 288 c 0,17,18
 323 218 323 218 366 168 c 0,19,20
 412 114 412 114 480 114 c 2,21,-1
 492 114 l 1,22,-1
 492 0 l 1,0,-1
EndSplineSet
EndChar

StartChar: afii57445
Encoding: 1605 1605 245
Width: 841
GlyphClass: 2
Flags: W
AnchorPoint: "Anchor-3" 615 -375 basechar 0
AnchorPoint: "Anchor-2" 495 915 basechar 0
LayerCount: 2
Fore
SplineSet
841 282 m 0,0,1
 845 257 845 257 845 234 c 0,2,3
 845 147 845 147 797 76 c 0,4,5
 743 -4 743 -4 660 -4 c 0,6,7
 569 -4 569 -4 501 81 c 0,8,9
 490 95 490 95 384 290 c 0,10,11
 310 426 310 426 245 436 c 1,12,13
 215 319 215 319 215 139 c 0,14,15
 215 -65 215 -65 256 -259 c 1,16,-1
 166 -357 l 1,17,18
 131 -140 131 -140 131 14 c 0,19,20
 131 233 131 233 179 379 c 0,21,22
 220 504 220 504 270 504 c 0,23,24
 331 504 331 504 389 413 c 1,25,26
 394 505 394 505 429 572 c 0,27,28
 475 660 475 660 556 660 c 0,29,30
 640 660 640 660 719 570 c 0,31,32
 812 464 812 464 841 282 c 0,0,1
647 541 m 0,33,34
 594 613 594 613 551 613 c 256,35,36
 508 613 508 613 487 554 c 0,37,38
 472 512 472 512 472 462 c 0,39,40
 472 297 472 297 558 145 c 0,41,42
 613 47 613 47 675 47 c 0,43,44
 753 47 753 47 753 209 c 0,45,46
 753 397 753 397 647 541 c 0,33,34
EndSplineSet
Substitution2: "'medi' Medial Forms in Arabic lookup 3 subtable" afii62821
Substitution2: "'fina' Terminal Forms in Arabic lookup 2 subtable" afii62822
Substitution2: "'init' Initial Forms in Arabic lookup 1 subtable" afii62820
EndChar

StartChar: afii62822
Encoding: 65250 65250 246
Width: 1018
GlyphClass: 2
Flags: W
AnchorPoint: "Anchor-3" 585 -375 basechar 0
AnchorPoint: "Anchor-2" 480 930 basechar 0
LayerCount: 2
Fore
SplineSet
1025 0 m 1,0,-1
 1013 0 l 2,1,2
 967 0 967 0 907 51 c 0,3,4
 855 97 855 97 830 145 c 1,5,6
 792 -7 792 -7 658 -7 c 0,7,8
 566 -7 566 -7 499 79 c 0,9,10
 487 94 487 94 383 289 c 0,11,12
 310 426 310 426 245 436 c 1,13,14
 215 319 215 319 215 139 c 0,15,16
 215 -65 215 -65 256 -259 c 1,17,-1
 166 -357 l 1,18,19
 131 -140 131 -140 131 14 c 0,20,21
 131 233 131 233 179 379 c 0,22,23
 220 504 220 504 270 504 c 0,24,25
 331 504 331 504 392 423 c 1,26,27
 397 507 397 507 434 574 c 0,28,29
 480 658 480 658 555 658 c 0,30,31
 640 658 640 658 718 569 c 0,32,33
 810 464 810 464 839 280 c 0,34,35
 865 114 865 114 1013 114 c 2,36,-1
 1025 114 l 1,37,-1
 1025 0 l 1,0,-1
645 539 m 0,38,39
 592 611 592 611 549 611 c 0,40,41
 471 611 471 611 471 460 c 0,42,43
 471 295 471 295 557 144 c 0,44,45
 614 44 614 44 673 44 c 0,46,47
 751 44 751 44 751 207 c 0,48,49
 751 395 751 395 645 539 c 0,38,39
EndSplineSet
EndChar

StartChar: afii62820
Encoding: 65251 65251 247
Width: 646
GlyphClass: 2
Flags: W
AnchorPoint: "Anchor-3" 240 -405 basechar 0
AnchorPoint: "Anchor-2" 330 870 basechar 0
LayerCount: 2
Fore
SplineSet
651 170 m 0,0,1
 619 0 619 0 482 0 c 0,2,3
 399 0 399 0 327 75 c 0,4,5
 294 110 294 110 246 193 c 1,6,7
 243 112 243 112 160 54 c 0,8,9
 84 0 84 0 0 0 c 2,10,-1
 -12 0 l 1,11,-1
 -12 114 l 1,12,-1
 0 114 l 2,13,14
 75 114 75 114 133 145 c 0,15,16
 204 182 204 182 204 251 c 0,17,18
 204 264 204 264 202 275 c 0,19,20
 188 354 188 354 188 416 c 0,21,22
 188 604 188 604 307 647 c 0,23,24
 324 653 324 653 344 653 c 0,25,26
 435 653 435 653 517 564 c 0,27,28
 654 416 654 416 654 211 c 0,29,30
 654 186 654 186 651 170 c 0,0,1
441 537 m 0,31,32
 382 607 382 607 336 607 c 0,33,34
 264 607 264 607 264 478 c 0,35,36
 264 395 264 395 306 288 c 0,37,38
 398 53 398 53 500 53 c 0,39,40
 508 53 508 53 519 56 c 0,41,42
 571 70 571 70 571 184 c 0,43,44
 571 384 571 384 441 537 c 0,31,32
EndSplineSet
EndChar

StartChar: afii57446
Encoding: 1606 1606 248
Width: 1342
GlyphClass: 2
Flags: W
AnchorPoint: "Anchor-3" 735 -645 basechar 0
AnchorPoint: "Anchor-2" 795 1035 basechar 0
LayerCount: 2
Fore
SplineSet
1304 606 m 1,0,1
 1342 441 1342 441 1342 255 c 0,2,3
 1342 33 1342 33 1297 -47 c 0,4,5
 1263 -108 1263 -108 1115 -164 c 0,6,7
 936 -232 936 -232 718 -232 c 0,8,9
 509 -232 509 -232 340 -144 c 0,10,11
 131 -35 131 -35 131 156 c 0,12,13
 131 293 131 293 251 379 c 0,14,15
 359 457 359 457 501 457 c 0,16,17
 597 457 597 457 709 428 c 1,18,-1
 777 303 l 1,19,20
 610 417 610 417 476 417 c 0,21,22
 378 417 378 417 311 364 c 0,23,24
 238 307 238 307 238 211 c 0,25,26
 238 13 238 13 460 -73 c 0,27,28
 615 -133 615 -133 849 -133 c 0,29,30
 1095 -133 1095 -133 1271 -31 c 1,31,32
 1272 8 1272 8 1272 47 c 0,33,34
 1272 321 1272 321 1216 512 c 1,35,-1
 1304 606 l 1,0,1
905 751 m 0,36,37
 905 677 905 677 832 677 c 0,38,39
 801 677 801 677 779.5 698.5 c 128,-1,40
 758 720 758 720 758 751 c 0,41,42
 758 824 758 824 832 824 c 0,43,44
 862 824 862 824 883.5 802.5 c 128,-1,45
 905 781 905 781 905 751 c 0,36,37
EndSplineSet
Substitution2: "'medi' Medial Forms in Arabic lookup 3 subtable" afii62824
Substitution2: "'fina' Terminal Forms in Arabic lookup 2 subtable" afii62825
Substitution2: "'init' Initial Forms in Arabic lookup 1 subtable" afii62823
EndChar

StartChar: afii62825
Encoding: 65254 65254 249
Width: 1521
GlyphClass: 2
Flags: W
AnchorPoint: "Anchor-3" 780 -675 basechar 0
AnchorPoint: "Anchor-2" 840 1035 basechar 0
LayerCount: 2
Fore
SplineSet
1533 0 m 1,0,-1
 1521 0 l 2,1,2
 1394 0 1394 0 1337 100 c 1,3,4
 1324 -58 1324 -58 1297 -107 c 0,5,6
 1264 -167 1264 -167 1115 -224 c 0,7,8
 937 -292 937 -292 718 -292 c 0,9,10
 509 -292 509 -292 340 -204 c 0,11,12
 131 -95 131 -95 131 96 c 0,13,14
 131 233 131 233 251 319 c 0,15,16
 359 397 359 397 501 397 c 0,17,18
 597 397 597 397 709 368 c 1,19,-1
 777 243 l 1,20,21
 610 357 610 357 476 357 c 0,22,23
 378 357 378 357 311 304 c 0,24,25
 238 247 238 247 238 151 c 0,26,27
 238 -47 238 -47 460 -133 c 0,28,29
 615 -193 615 -193 849 -193 c 0,30,31
 1095 -193 1095 -193 1271 -91 c 1,32,33
 1272 -52 1272 -52 1272 -13 c 0,34,35
 1272 261 1272 261 1216 452 c 1,36,-1
 1304 546 l 1,37,38
 1318 505 1318 505 1340 355 c 0,39,40
 1360 219 1360 219 1374 189 c 0,41,42
 1409 114 1409 114 1521 114 c 2,43,-1
 1533 114 l 1,44,-1
 1533 0 l 1,0,-1
905 751 m 0,45,46
 905 677 905 677 832 677 c 0,47,48
 801 677 801 677 779.5 698.5 c 128,-1,49
 758 720 758 720 758 751 c 0,50,51
 758 824 758 824 832 824 c 0,52,53
 862 824 862 824 883.5 802.5 c 128,-1,54
 905 781 905 781 905 751 c 0,45,46
EndSplineSet
EndChar

StartChar: afii62828
Encoding: 65258 65258 253
Width: 809
GlyphClass: 2
Flags: W
AnchorPoint: "Anchor-3" 420 -360 basechar 0
AnchorPoint: "Anchor-2" 495 990 basechar 0
LayerCount: 2
Fore
SplineSet
821 0 m 1,0,-1
 809 0 l 2,1,2
 743 0 743 0 684 52 c 0,3,4
 606 120 606 120 585 250 c 1,5,6
 561 207 561 207 545 182 c 0,7,8
 521 147 521 147 502 133 c 0,9,10
 478 116 478 116 394 116 c 0,11,12
 319 116 319 116 244 130 c 0,13,14
 131 151 131 151 131 196 c 0,15,16
 131 270 131 270 223 399 c 0,17,18
 331 549 331 549 471 614 c 1,19,-1
 557 520 l 1,20,21
 469 504 469 504 349 433 c 0,22,23
 205 348 205 348 205 275 c 0,24,25
 205 224 205 224 394 224 c 0,26,27
 473 224 473 224 508 240 c 0,28,29
 562 265 562 265 562 334 c 0,30,31
 562 345 562 345 557 493 c 0,32,33
 553 611 553 611 557 714 c 1,34,-1
 656 641 l 1,35,36
 641 515 641 515 641 404 c 0,37,38
 641 274 641 274 665 211 c 0,39,40
 702 114 702 114 809 114 c 2,41,-1
 821 114 l 1,42,-1
 821 0 l 1,0,-1
EndSplineSet
EndChar

StartChar: afii57448
Encoding: 1608 1608 254
Width: 502
GlyphClass: 2
Flags: W
AnchorPoint: "Anchor-3" 255 -660 basechar 0
AnchorPoint: "Anchor-2" 330 915 basechar 0
LayerCount: 2
Fore
SplineSet
502 368 m 0,0,1
 502 131 502 131 432 -66 c 0,2,3
 387 -193 387 -193 330 -264 c 1,4,-1
 151 -324 l 1,5,6
 256 -187 256 -187 273 -159 c 0,7,8
 369 -5 369 -5 401 175 c 1,9,10
 343 138 343 138 299 138 c 0,11,12
 206 138 206 138 163 239 c 0,13,14
 131 314 131 314 131 419 c 0,15,16
 131 548 131 548 201 637 c 0,17,18
 256 707 256 707 299 707 c 0,19,20
 390 707 390 707 450 589 c 0,21,22
 502 486 502 486 502 368 c 0,0,1
418 368 m 0,23,24
 418 512 418 512 373 599 c 0,25,26
 338 667 338 667 306 667 c 1,27,28
 215 605 215 605 215 385 c 0,29,30
 215 203 215 203 261 203 c 0,31,32
 303 203 303 203 354 247 c 1,33,-1
 406 207 l 1,34,35
 418 291 418 291 418 368 c 0,23,24
EndSplineSet
Substitution2: "'fina' Terminal Forms in Arabic lookup 2 subtable" afii62829
PairPos2: "'kern' Horizontal Kerning in Arabic lookup 0 subtable" afii57413 dx=0 dy=0 dh=0 dv=0 dx=0 dy=0 dh=30 dv=0
EndChar

StartChar: afii62829
Encoding: 65262 65262 255
Width: 602
GlyphClass: 2
Flags: W
AnchorPoint: "Anchor-3" 300 -645 basechar 0
AnchorPoint: "Anchor-2" 300 915 basechar 0
LayerCount: 2
Fore
SplineSet
614 0 m 1,0,1
 559 0 559 0 482 10 c 1,2,3
 475 -36 475 -36 443 -119 c 0,4,5
 404 -220 404 -220 366 -264 c 1,6,-1
 196 -324 l 1,7,8
 310 -210 310 -210 381 31 c 1,9,10
 302 58 302 58 240 118 c 0,11,12
 131 224 131 224 131 392 c 0,13,14
 131 481 131 481 186 573 c 0,15,16
 248 677 248 677 331 677 c 0,17,18
 506 677 506 677 506 248 c 0,19,20
 506 179 506 179 501 114 c 1,21,-1
 614 114 l 1,22,-1
 614 0 l 1,0,1
415 128 m 1,23,24
 430 225 430 225 430 312 c 0,25,26
 430 574 430 574 331 637 c 1,27,28
 215 562 215 562 215 345 c 0,29,30
 215 264 215 264 229 212 c 1,31,32
 256 154 256 154 415 128 c 1,23,24
EndSplineSet
EndChar

StartChar: afii62840
Encoding: 65275 65275 268
Width: 698
GlyphClass: 3
Flags: W
AnchorPoint: "Anchor-1" 750 -315 baselig 0
AnchorPoint: "Anchor-0" 660 1380 baselig 0
AnchorPoint: "Anchor-1" 300 -315 baselig 1
AnchorPoint: "Anchor-0" 90 1350 baselig 1
LayerCount: 2
Fore
SplineSet
666 796 m 0,0,1
 666 605 666 605 561 445 c 1,2,3
 664 276 664 276 664 127 c 0,4,5
 664 84 664 84 656 77 c 0,6,7
 622 48 622 48 512 22 c 0,8,9
 420 0 420 0 379 0 c 0,10,11
 347 0 347 0 329 37 c 0,12,13
 314 67 314 67 314 102 c 0,14,15
 314 264 314 264 468 460 c 1,16,-1
 276 690 l 2,17,18
 141 851 141 851 104 987 c 1,19,-1
 174 1099 l 1,20,21
 250 860 250 860 355 720 c 0,22,23
 362 711 362 711 514 520 c 1,24,25
 579 611 579 611 579 772 c 0,26,27
 579 922 579 922 521 1101 c 1,28,-1
 598 1181 l 1,29,30
 666 964 666 964 666 796 c 0,0,1
628 173 m 1,31,32
 583 304 583 304 521 385 c 1,33,34
 392 253 392 253 342 138 c 0,35,36
 326 102 326 102 372 102 c 0,37,38
 522 102 522 102 628 173 c 1,31,32
EndSplineSet
Ligature2: "'rlig' Required Ligatures in Arabic lookup 6 subtable" afii62817 afii62760
Substitution2: "'fina' Terminal Forms in Arabic lookup 2 subtable" afii62841
PairPos2: "'kern' Horizontal Kerning in Arabic lookup 0 subtable" afii57445 dx=0 dy=0 dh=0 dv=0 dx=0 dy=0 dh=-50 dv=0
PairPos2: "'kern' Horizontal Kerning in Arabic lookup 0 subtable" afii52399 dx=0 dy=0 dh=0 dv=0 dx=0 dy=0 dh=-100 dv=0
EndChar

StartChar: afii62841
Encoding: 65276 65276 269
Width: 891
GlyphClass: 3
Flags: W
AnchorPoint: "Anchor-1" 780 -345 baselig 0
AnchorPoint: "Anchor-0" 615 1380 baselig 0
AnchorPoint: "Anchor-1" 285 -330 baselig 1
AnchorPoint: "Anchor-0" 60 1305 baselig 1
LayerCount: 2
Fore
SplineSet
903 0 m 1,0,-1
 891 0 l 2,1,2
 841 0 841 0 782 27.5 c 128,-1,3
 723 55 723 55 690 93 c 0,4,5
 639 153 639 153 625 284 c 1,6,7
 581 140 581 140 493 70 c 0,8,9
 418 10 418 10 264 -28 c 1,10,-1
 186 79 l 1,11,12
 274 90 274 90 450 138 c 1,13,14
 468 179 468 179 468 236 c 0,15,16
 468 385 468 385 356 588 c 0,17,18
 327 641 327 641 233 772 c 0,19,20
 154 883 154 883 131 935 c 1,21,-1
 168 1057 l 1,22,23
 199 987 199 987 293 852 c 0,24,25
 397 703 397 703 421 653 c 0,26,27
 515 459 515 459 515 268 c 0,28,29
 515 204 515 204 503 165 c 1,30,31
 592 221 592 221 592 438 c 0,32,33
 592 553 592 553 551 1181 c 1,34,-1
 653 1099 l 1,35,-1
 690 284 l 2,36,37
 698 114 698 114 891 114 c 2,38,-1
 903 114 l 1,39,-1
 903 0 l 1,0,-1
EndSplineSet
Ligature2: "'rlig' Required Ligatures in Arabic lookup 6 subtable" afii62818 afii62760
PairPos2: "'kern' Horizontal Kerning in Arabic lookup 0 subtable" afii57445 dx=0 dy=0 dh=0 dv=0 dx=0 dy=0 dh=-50 dv=0
PairPos2: "'kern' Horizontal Kerning in Arabic lookup 0 subtable" afii52399 dx=0 dy=0 dh=0 dv=0 dx=0 dy=0 dh=-50 dv=0
EndChar

StartChar: afii59759
Encoding: 3663 3663 276
Width: 1233
GlyphClass: 2
Flags: W
LayerCount: 2
Fore
SplineSet
616 983 m 0,0,1
 823 983 823 983 969.5 836.5 c 128,-1,2
 1116 690 1116 690 1116 483 c 0,3,4
 1116 277 1116 277 969.5 130.5 c 128,-1,5
 823 -16 823 -16 616 -16 c 0,6,7
 410 -16 410 -16 263.5 130.5 c 128,-1,8
 117 277 117 277 117 483 c 0,9,10
 117 690 117 690 263.5 836.5 c 128,-1,11
 410 983 410 983 616 983 c 0,0,1
616 147 m 0,12,13
 758 147 758 147 849 242 c 128,-1,14
 940 337 940 337 940 483 c 256,15,16
 940 629 940 629 849 724 c 128,-1,17
 758 819 758 819 616 819 c 0,18,19
 475 819 475 819 384 724 c 128,-1,20
 293 629 293 629 293 483 c 256,21,22
 293 337 293 337 384 242 c 128,-1,23
 475 147 475 147 616 147 c 0,12,13
616 598 m 0,24,25
 664 598 664 598 697.5 565 c 128,-1,26
 731 532 731 532 731 485 c 256,27,28
 731 438 731 438 697.5 404.5 c 128,-1,29
 664 371 664 371 616 371 c 0,30,31
 569 371 569 371 535.5 404.5 c 128,-1,32
 502 438 502 438 502 485 c 256,33,34
 502 532 502 532 535.5 565 c 128,-1,35
 569 598 569 598 616 598 c 0,24,25
EndSplineSet
EndChar

StartChar: afii59760
Encoding: 3664 3664 277
Width: 1233
GlyphClass: 2
Flags: W
LayerCount: 2
Fore
SplineSet
616 924 m 0,0,1
 834 924 834 924 975 794.5 c 128,-1,2
 1116 665 1116 665 1116 453 c 0,3,4
 1116 242 1116 242 975 113 c 128,-1,5
 834 -16 834 -16 616 -16 c 0,6,7
 399 -16 399 -16 258 113 c 128,-1,8
 117 242 117 242 117 453 c 0,9,10
 117 665 117 665 258 794.5 c 128,-1,11
 399 924 399 924 616 924 c 0,0,1
616 150 m 0,12,13
 765 150 765 150 852.5 231 c 128,-1,14
 940 312 940 312 940 453 c 256,15,16
 940 594 940 594 852 677 c 128,-1,17
 764 760 764 760 616 760 c 0,18,19
 469 760 469 760 381 677 c 128,-1,20
 293 594 293 594 293 453 c 0,21,22
 293 310 293 310 381.5 230 c 128,-1,23
 470 150 470 150 616 150 c 0,12,13
EndSplineSet
EndChar

StartChar: glyph279
Encoding: 65559 -1 279
Width: 0
GlyphClass: 2
Flags: W
LayerCount: 2
Fore
SplineSet
36 1831 m 1,0,-1
 36 863 l 1,1,-1
 -36 863 l 1,2,-1
 -36 1831 l 1,3,-1
 36 1831 l 1,0,-1
36 543 m 1,4,-1
 36 -423 l 1,5,-1
 -36 -423 l 1,6,-1
 -36 543 l 1,7,-1
 36 543 l 1,4,-1
EndSplineSet
EndChar

StartChar: glyph280
Encoding: 65560 -1 280
Width: 0
GlyphClass: 2
Flags: W
LayerCount: 2
Fore
SplineSet
-234 -423 m 1,0,-1
 -234 -352 l 1,1,-1
 -36 -352 l 1,2,-1
 -36 1760 l 1,3,-1
 -234 1760 l 1,4,-1
 -234 1831 l 1,5,-1
 234 1831 l 1,6,-1
 234 1760 l 1,7,-1
 36 1760 l 1,8,-1
 36 -352 l 1,9,-1
 234 -352 l 1,10,-1
 234 -423 l 1,11,-1
 -234 -423 l 1,0,-1
EndSplineSet
EndChar

StartChar: glyph281
Encoding: 65561 -1 281
Width: 0
GlyphClass: 2
Flags: W
LayerCount: 2
Fore
SplineSet
224 1646 m 1,0,-1
 36 1504 l 1,1,-1
 36 -423 l 1,2,-1
 -36 -423 l 1,3,-1
 -36 1831 l 1,4,-1
 224 1646 l 1,0,-1
EndSplineSet
EndChar

StartChar: glyph282
Encoding: 65562 -1 282
Width: 0
GlyphClass: 2
Flags: W
LayerCount: 2
Fore
SplineSet
36 1831 m 1,0,-1
 36 -423 l 1,1,-1
 -36 -423 l 1,2,-1
 -36 1504 l 1,3,-1
 -224 1646 l 1,4,-1
 36 1831 l 1,0,-1
EndSplineSet
EndChar

StartChar: glyph283
Encoding: 65563 -1 283
Width: 0
GlyphClass: 2
Flags: W
LayerCount: 2
Fore
SplineSet
36 1831 m 1,0,-1
 36 -352 l 1,1,-1
 234 -352 l 1,2,-1
 234 -423 l 1,3,-1
 -36 -423 l 1,4,-1
 -36 1831 l 1,5,-1
 36 1831 l 1,0,-1
EndSplineSet
EndChar

StartChar: glyph284
Encoding: 65564 -1 284
Width: 0
GlyphClass: 2
Flags: W
LayerCount: 2
Fore
SplineSet
224 1646 m 1,0,-1
 36 1504 l 1,1,-1
 36 -423 l 1,2,-1
 -36 -423 l 1,3,-1
 -36 1504 l 1,4,-1
 -224 1641 l 1,5,-1
 0 1831 l 1,6,-1
 224 1646 l 1,0,-1
EndSplineSet
EndChar

StartChar: uni0670
Encoding: 1648 1648 297
Width: 0
GlyphClass: 4
Flags: W
AnchorPoint: "Anchor-2" 0 0 mark 0
AnchorPoint: "Anchor-0" 0 0 mark 0
LayerCount: 2
Fore
SplineSet
43 172 m 0,0,1
 43 60 43 60 -3 1 c 1,2,-1
 -28 39 l 1,3,4
 -19 55 -19 55 -19 153 c 0,5,6
 -19 235 -19 235 -54 283 c 1,7,-1
 32 337 l 1,8,9
 43 252 43 252 43 172 c 0,0,1
EndSplineSet
EndChar

StartChar: glyph298
Encoding: 65565 -1 298
Width: 458
GlyphClass: 2
Flags: W
LayerCount: 2
Fore
SplineSet
235 1433 m 2,0,1
 266 1457 266 1457 294 1461.5 c 128,-1,2
 322 1466 322 1466 343 1455 c 128,-1,3
 364 1444 364 1444 377 1419 c 128,-1,4
 390 1394 390 1394 390 1357 c 2,5,-1
 389 1277 l 1,6,-1
 69 1277 l 1,7,-1
 69 1335 l 1,8,-1
 123 1335 l 1,9,-1
 235 1433 l 2,0,1
203 1335 m 1,10,-1
 331 1335 l 1,11,-1
 331 1365 l 2,12,13
 329 1394 329 1394 311 1402 c 128,-1,14
 293 1410 293 1410 263 1388 c 2,15,-1
 203 1335 l 1,10,-1
EndSplineSet
EndChar

StartChar: glyph299
Encoding: 65566 -1 299
Width: 1332
GlyphClass: 2
Flags: W
LayerCount: 2
Fore
SplineSet
1332 184 m 0,0,1
 1332 15 1332 15 1300 -44 c 0,2,3
 1261 -116 1261 -116 1115 -172 c 0,4,5
 938 -240 938 -240 718 -240 c 0,6,7
 509 -240 509 -240 339 -151 c 0,8,9
 131 -42 131 -42 131 149 c 0,10,11
 131 286 131 286 251 372 c 0,12,13
 359 450 359 450 501 450 c 0,14,15
 597 450 597 450 709 420 c 1,16,-1
 777 296 l 1,17,18
 610 410 610 410 476 410 c 0,19,20
 376 410 376 410 310 357 c 0,21,22
 238 300 238 300 238 203 c 0,23,24
 238 6 238 6 461 -80 c 0,25,26
 616 -140 616 -140 849 -140 c 0,27,28
 1097 -140 1097 -140 1271 -39 c 1,29,30
 1271 146 1271 146 1246 308 c 0,31,32
 1232 396 1232 396 1196 513 c 0,33,34
 1149 663 1149 663 1106 692 c 1,35,36
 1056 659 1056 659 1026 569 c 0,37,38
 1001 493 1001 493 1001 420 c 0,39,40
 1001 247 1001 247 1073 247 c 0,41,42
 1104 247 1104 247 1173 352 c 1,43,-1
 1239 308 l 1,44,45
 1139 224 1139 224 1061 224 c 0,46,47
 997 224 997 224 959 285 c 0,48,49
 926 338 926 338 926 406 c 0,50,51
 926 510 926 510 977 614 c 0,52,53
 1033 728 1033 728 1106 728 c 0,54,55
 1209 728 1209 728 1274 549 c 0,56,57
 1332 389 1332 389 1332 184 c 0,0,1
EndSplineSet
EndChar

StartChar: uni06DD
Encoding: 1757 1757 388
Width: 2300
GlyphClass: 2
Flags: W
LayerCount: 2
Fore
SplineSet
2250 715 m 256,0,1
 2250 469 2250 469 2146 249 c 0,2,3
 2046 35 2046 35 1867 -119 c 1,4,5
 1870 -133 1870 -133 1870 -148 c 0,6,7
 1870 -203 1870 -203 1831 -241.5 c 128,-1,8
 1792 -280 1792 -280 1737 -280 c 0,9,10
 1697 -280 1697 -280 1664 -258 c 1,11,12
 1424 -385 1424 -385 1149 -385 c 0,13,14
 876 -385 876 -385 636 -258 c 1,15,16
 603 -280 603 -280 563 -280 c 0,17,18
 508 -280 508 -280 469 -241.5 c 128,-1,19
 430 -203 430 -203 430 -148 c 0,20,21
 430 -133 430 -133 433 -119 c 1,22,23
 254 35 254 35 154 249 c 0,24,25
 50 469 50 469 50 715 c 256,26,27
 50 961 50 961 154 1181 c 0,28,29
 254 1394 254 1394 433 1548 c 1,30,31
 430 1562 430 1562 430 1577 c 0,32,33
 430 1632 430 1632 469 1670.5 c 128,-1,34
 508 1709 508 1709 563 1709 c 0,35,36
 603 1709 603 1709 636 1687 c 1,37,38
 876 1814 876 1814 1151 1814 c 0,39,40
 1424 1814 1424 1814 1664 1687 c 1,41,42
 1697 1709 1697 1709 1737 1709 c 0,43,44
 1792 1709 1792 1709 1831 1670.5 c 128,-1,45
 1870 1632 1870 1632 1870 1577 c 0,46,47
 1870 1562 1870 1562 1867 1548 c 1,48,49
 2046 1394 2046 1394 2146 1181 c 0,50,51
 2250 961 2250 961 2250 715 c 256,0,1
1816 1576 m 0,52,53
 1816 1609 1816 1609 1793 1632 c 128,-1,54
 1770 1655 1770 1655 1738 1655 c 256,55,56
 1706 1655 1706 1655 1682.5 1631.5 c 128,-1,57
 1659 1608 1659 1608 1659 1576 c 256,58,59
 1659 1544 1659 1544 1682 1521 c 128,-1,60
 1705 1498 1705 1498 1738 1498 c 0,61,62
 1770 1498 1770 1498 1793 1521 c 128,-1,63
 1816 1544 1816 1544 1816 1576 c 0,52,53
1602 1595 m 1,64,65
 1390 1704 1390 1704 1151 1704 c 0,66,67
 910 1704 910 1704 698 1595 c 1,68,-1
 1602 1595 l 1,64,65
641 1576 m 256,69,70
 641 1608 641 1608 617.5 1631.5 c 128,-1,71
 594 1655 594 1655 562 1655 c 256,72,73
 530 1655 530 1655 507 1632 c 128,-1,74
 484 1609 484 1609 484 1576 c 0,75,76
 484 1544 484 1544 507 1521 c 128,-1,77
 530 1498 530 1498 562 1498 c 0,78,79
 595 1498 595 1498 618 1521 c 128,-1,80
 641 1544 641 1544 641 1576 c 256,69,70
2140 714 m 0,81,82
 2140 933 2140 933 2048 1131 c 0,83,84
 1960 1321 1960 1321 1801 1460 c 1,85,86
 1772 1444 1772 1444 1737 1444 c 0,87,88
 1681 1444 1681 1444 1642 1485 c 1,89,-1
 658 1485 l 1,90,91
 619 1444 619 1444 563 1444 c 0,92,93
 528 1444 528 1444 499 1460 c 1,94,95
 340 1321 340 1321 252 1131 c 0,96,97
 160 933 160 933 160 714 c 0,98,99
 160 265 160 265 499 -31 c 1,100,101
 528 -15 528 -15 563 -15 c 0,102,103
 619 -15 619 -15 658 -56 c 1,104,-1
 1642 -56 l 1,105,106
 1681 -15 1681 -15 1737 -15 c 0,107,108
 1772 -15 1772 -15 1801 -31 c 1,109,110
 2140 265 2140 265 2140 714 c 0,81,82
1816 -147 m 0,111,112
 1816 -115 1816 -115 1793 -92 c 128,-1,113
 1770 -69 1770 -69 1738 -69 c 0,114,115
 1705 -69 1705 -69 1682 -92 c 128,-1,116
 1659 -115 1659 -115 1659 -147 c 256,117,118
 1659 -179 1659 -179 1682.5 -202.5 c 128,-1,119
 1706 -226 1706 -226 1738 -226 c 256,120,121
 1770 -226 1770 -226 1793 -203 c 128,-1,122
 1816 -180 1816 -180 1816 -147 c 0,111,112
1602 -166 m 1,123,-1
 698 -166 l 1,124,125
 910 -275 910 -275 1151 -275 c 0,126,127
 1390 -275 1390 -275 1602 -166 c 1,123,-1
641 -147 m 256,128,129
 641 -115 641 -115 618 -92 c 128,-1,130
 595 -69 595 -69 562 -69 c 0,131,132
 530 -69 530 -69 507 -92 c 128,-1,133
 484 -115 484 -115 484 -147 c 0,134,135
 484 -180 484 -180 507 -203 c 128,-1,136
 530 -226 530 -226 562 -226 c 256,137,138
 594 -226 594 -226 617.5 -202.5 c 128,-1,139
 641 -179 641 -179 641 -147 c 256,128,129
EndSplineSet
EndChar

StartChar: uni06DE
Encoding: 1758 1758 389
Width: 2221
GlyphClass: 2
Flags: W
LayerCount: 2
Fore
SplineSet
2171 750 m 1,0,-1
 1861 439 l 1,1,-1
 1861 0 l 1,2,-1
 1421 0 l 1,3,-1
 1111 -311 l 1,4,-1
 800 0 l 1,5,-1
 361 0 l 1,6,-1
 361 439 l 1,7,-1
 50 750 l 1,8,-1
 361 1061 l 1,9,-1
 361 1500 l 1,10,-1
 800 1500 l 1,11,-1
 1111 1811 l 1,12,-1
 1421 1500 l 1,13,-1
 1861 1500 l 1,14,-1
 1861 1061 l 1,15,-1
 2171 750 l 1,0,-1
436 364 m 1,16,-1
 436 75 l 1,17,-1
 725 75 l 1,18,-1
 436 364 l 1,16,-1
725 1425 m 1,19,-1
 436 1425 l 1,20,-1
 436 1136 l 1,21,-1
 725 1425 l 1,19,-1
1786 1136 m 1,22,-1
 1786 1425 l 1,23,-1
 1496 1425 l 1,24,-1
 1786 1136 l 1,22,-1
1786 75 m 1,25,-1
 1786 364 l 1,26,-1
 1496 75 l 1,27,-1
 1786 75 l 1,25,-1
906 0 m 1,28,-1
 1111 -205 l 1,29,-1
 1315 0 l 1,30,-1
 906 0 l 1,28,-1
361 955 m 1,31,-1
 156 750 l 1,32,-1
 361 545 l 1,33,-1
 361 955 l 1,31,-1
1315 1500 m 1,34,-1
 1111 1705 l 1,35,-1
 906 1500 l 1,36,-1
 1315 1500 l 1,34,-1
1786 1030 m 1,37,-1
 1390 1425 l 1,38,-1
 831 1425 l 1,39,-1
 436 1030 l 1,40,-1
 436 470 l 1,41,-1
 831 75 l 1,42,-1
 1390 75 l 1,43,-1
 1786 470 l 1,44,-1
 1786 1030 l 1,37,-1
2065 750 m 1,45,-1
 1861 955 l 1,46,-1
 1861 545 l 1,47,-1
 2065 750 l 1,45,-1
1328 750 m 256,48,49
 1328 660 1328 660 1264.5 596 c 128,-1,50
 1201 532 1201 532 1111 532 c 256,51,52
 1021 532 1021 532 957 596 c 128,-1,53
 893 660 893 660 893 750 c 256,54,55
 893 840 893 840 957 903.5 c 128,-1,56
 1021 967 1021 967 1111 967 c 256,57,58
 1201 967 1201 967 1264.5 903.5 c 128,-1,59
 1328 840 1328 840 1328 750 c 256,48,49
1253 750 m 256,60,61
 1253 809 1253 809 1211 850.5 c 128,-1,62
 1169 892 1169 892 1110 892 c 256,63,64
 1051 892 1051 892 1009 850.5 c 128,-1,65
 967 809 967 809 967 750 c 256,66,67
 967 691 967 691 1009 649 c 128,-1,68
 1051 607 1051 607 1110 607 c 256,69,70
 1169 607 1169 607 1211 649 c 128,-1,71
 1253 691 1253 691 1253 750 c 256,60,61
EndSplineSet
EndChar

StartChar: uni06DF
Encoding: 1759 1759 390
Width: 0
GlyphClass: 2
Flags: W
LayerCount: 2
Fore
SplineSet
75 1429 m 256,0,1
 75 1398 75 1398 53 1376 c 128,-1,2
 31 1354 31 1354 0 1354 c 256,3,4
 -31 1354 -31 1354 -53 1376 c 128,-1,5
 -75 1398 -75 1398 -75 1429 c 256,6,7
 -75 1460 -75 1460 -53 1482 c 128,-1,8
 -31 1504 -31 1504 0 1504 c 256,9,10
 31 1504 31 1504 53 1482 c 128,-1,11
 75 1460 75 1460 75 1429 c 256,0,1
EndSplineSet
EndChar

StartChar: uni06E9
Encoding: 1769 1769 391
Width: 1229
GlyphClass: 2
Flags: W
LayerCount: 2
Fore
SplineSet
1179 0 m 1,0,-1
 50 0 l 1,1,-1
 278 261 l 1,2,-1
 278 849 l 1,3,-1
 50 1108 l 1,4,-1
 614 1676 l 1,5,-1
 1179 1108 l 1,6,-1
 951 849 l 1,7,-1
 951 261 l 1,8,-1
 1179 0 l 1,0,-1
1101 1108 m 1,9,-1
 614 1598 l 1,10,-1
 128 1108 l 1,11,-1
 338 871 l 1,12,-1
 338 239 l 1,13,-1
 178 56 l 1,14,-1
 1051 56 l 1,15,-1
 891 239 l 1,16,-1
 891 871 l 1,17,-1
 1101 1108 l 1,9,-1
995 1108 m 1,18,-1
 845 937 l 1,19,-1
 845 131 l 1,20,-1
 384 131 l 1,21,-1
 384 937 l 1,22,-1
 234 1108 l 1,23,-1
 614 1489 l 1,24,-1
 995 1108 l 1,18,-1
922 1108 m 1,25,-1
 614 1416 l 1,26,-1
 307 1108 l 1,27,-1
 433 968 l 1,28,-1
 433 186 l 1,29,-1
 796 186 l 1,30,-1
 796 968 l 1,31,-1
 922 1108 l 1,25,-1
833 1108 m 1,32,-1
 745 1011 l 1,33,-1
 745 267 l 1,34,-1
 484 267 l 1,35,-1
 484 1011 l 1,36,-1
 396 1108 l 1,37,-1
 614 1331 l 1,38,-1
 833 1108 l 1,32,-1
780 1108 m 1,39,-1
 614 1278 l 1,40,-1
 449 1108 l 1,41,-1
 523 1027 l 1,42,-1
 523 309 l 1,43,-1
 705 309 l 1,44,-1
 705 1027 l 1,45,-1
 780 1108 l 1,39,-1
EndSplineSet
EndChar

StartChar: uni06EB
Encoding: 1771 1771 393
Width: 0
GlyphClass: 2
Flags: W
LayerCount: 2
Fore
SplineSet
168 1522 m 1,0,-1
 -1 1354 l 1,1,-1
 -168 1521 l 1,2,-1
 1 1689 l 1,3,-1
 168 1522 l 1,0,-1
104 1522 m 1,4,-1
 0 1626 l 1,5,-1
 -104 1521 l 1,6,-1
 0 1417 l 1,7,-1
 104 1522 l 1,4,-1
EndSplineSet
EndChar

StartChar: comma
Encoding: 44 44 402
Width: 435
Flags: W
LayerCount: 2
Fore
SplineSet
93 -289 m 1,0,-1
 93 -252 l 1,1,2
 180 -223 180 -223 228.5 -162.5 c 128,-1,3
 277 -102 277 -102 277 -34 c 0,4,5
 277 -18 277 -18 269 -6 c 0,6,7
 263 1 263 1 257 1 c 0,8,9
 248 1 248 1 216 -16 c 0,10,11
 201 -23 201 -23 184 -23 c 0,12,13
 142 -23 142 -23 117.5 1 c 128,-1,14
 93 25 93 25 93 69 c 0,15,16
 93 110 93 110 125 140 c 128,-1,17
 157 170 157 170 202 170 c 0,18,19
 259 170 259 170 302.5 121 c 128,-1,20
 346 72 346 72 346 -8 c 0,21,22
 346 -95 346 -95 285.5 -170.5 c 128,-1,23
 225 -246 225 -246 93 -289 c 1,0,-1
EndSplineSet
EndChar

StartChar: afii57407
Encoding: 1567 1567 403
Width: 791
GlyphClass: 2
Flags: W
LayerCount: 2
Fore
SplineSet
791 949 m 0,0,1
 791 867 791 867 761 833 c 1,2,-1
 604 744 l 1,3,4
 647 779 647 779 691 849 c 0,5,6
 743 931 743 931 743 989 c 0,7,8
 743 1001 743 1001 740 1013 c 0,9,10
 732 1045 732 1045 663 1076 c 0,11,12
 602 1103 602 1103 562 1103 c 0,13,14
 480 1103 480 1103 393 1063 c 0,15,16
 259 1001 259 1001 179 861 c 0,17,18
 156 821 156 821 182 788 c 0,19,20
 226 732 226 732 381 661 c 0,21,22
 541 588 541 588 571 555 c 0,23,24
 607 516 607 516 607 434 c 0,25,26
 607 234 607 234 569 98 c 1,27,28
 569 121 569 121 546 168.5 c 128,-1,29
 523 216 523 216 504 229 c 1,30,31
 565 341 565 341 562 417 c 1,32,33
 542 458 542 458 426 511 c 0,34,35
 278 579 278 579 231 615 c 0,36,37
 131 693 131 693 131 805 c 0,38,39
 131 932 131 932 241 1067 c 0,40,41
 361 1215 361 1215 508 1215 c 0,42,43
 614 1215 614 1215 701 1136 c 0,44,45
 791 1054 791 1054 791 949 c 0,0,1
604 -65 m 0,46,47
 604 -138 604 -138 530 -138 c 0,48,49
 500 -138 500 -138 478.5 -116.5 c 128,-1,50
 457 -95 457 -95 457 -65 c 256,51,52
 457 -35 457 -35 478.5 -13 c 128,-1,53
 500 9 500 9 530 9 c 0,54,55
 561 9 561 9 582.5 -12.5 c 128,-1,56
 604 -34 604 -34 604 -65 c 0,46,47
EndSplineSet
EndChar

StartChar: afii57392
Encoding: 1776 1776 404
Width: 494
Flags: W
LayerCount: 2
Fore
SplineSet
494 462 m 0,0,1
 494 264 494 264 376 154 c 1,2,-1
 403 126 l 1,3,4
 367 115 367 115 338 115 c 0,5,6
 246 115 246 115 186 194 c 0,7,8
 131 267 131 267 131 362 c 0,9,10
 131 452 131 452 189 550 c 0,11,12
 256 663 256 663 347 663 c 0,13,14
 422 663 422 663 461 597 c 0,15,16
 494 542 494 542 494 462 c 0,0,1
424 504 m 0,17,18
 424 612 424 612 369 612 c 0,19,20
 327 612 327 612 280 523 c 0,21,22
 224 416 224 416 224 266 c 0,23,24
 224 189 224 189 249 189 c 0,25,26
 271 189 271 189 287 208 c 1,27,-1
 256 254 l 1,28,29
 265 250 265 250 276 250 c 0,30,31
 342 250 342 250 387 348 c 0,32,33
 424 429 424 429 424 504 c 0,17,18
EndSplineSet
EndChar

StartChar: afii57393
Encoding: 1777 1777 405
Width: 368
Flags: W
LayerCount: 2
Fore
SplineSet
323 507 m 0,0,1
 323 192 323 192 253 -100 c 1,2,-1
 187 -37 l 1,3,4
 217 230 217 230 217 422 c 0,5,6
 217 739 217 739 131 980 c 1,7,-1
 243 1109 l 1,8,9
 323 845 323 845 323 507 c 0,0,1
EndSplineSet
EndChar

StartChar: afii57394
Encoding: 1778 1778 406
Width: 988
Flags: W
LayerCount: 2
Fore
SplineSet
988 605 m 0,0,1
 988 414 988 414 849.5 280.5 c 128,-1,2
 711 147 711 147 519 147 c 0,3,4
 439 147 439 147 373 184 c 0,5,6
 326 211 326 211 306 240 c 1,7,8
 289 52 289 52 243 -100 c 1,9,-1
 187 -37 l 1,10,11
 217 230 217 230 217 422 c 0,12,13
 217 739 217 739 131 980 c 1,14,-1
 239 1112 l 1,15,16
 318 845 318 845 318 507 c 0,17,18
 318 425 318 425 372 356 c 0,19,20
 445 262 445 262 586 262 c 0,21,22
 726 262 726 262 835 364 c 128,-1,23
 944 466 944 466 944 605 c 0,24,25
 944 747 944 747 748 875 c 1,26,-1
 797 994 l 1,27,28
 988 839 988 839 988 605 c 0,0,1
EndSplineSet
EndChar

StartChar: afii57395
Encoding: 1779 1779 407
Width: 983
Flags: W
LayerCount: 2
Fore
SplineSet
983 605 m 0,0,1
 983 502 983 502 928 405 c 0,2,3
 864 292 864 292 768 292 c 0,4,5
 662 292 662 292 609 404 c 1,6,7
 586 285 586 285 520 212 c 0,8,9
 467 154 467 154 425 154 c 0,10,11
 358 154 358 154 301 240 c 1,12,13
 284 52 284 52 243 -100 c 1,14,-1
 187 -37 l 1,15,16
 217 230 217 230 217 422 c 0,17,18
 217 739 217 739 131 980 c 1,19,-1
 243 1097 l 1,20,21
 313 845 313 845 313 507 c 0,22,23
 313 429 313 429 346 361 c 0,24,25
 394 262 394 262 493 262 c 0,26,27
 523 262 523 262 537 399 c 0,28,29
 546 486 546 486 546 562 c 0,30,31
 546 816 546 816 465 1027 c 1,32,-1
 598 961 l 1,33,34
 619 885 619 885 625 652 c 0,35,36
 631 445 631 445 644 430 c 0,37,38
 669 401 669 401 766 401 c 0,39,40
 852 401 852 401 898 462 c 0,41,42
 939 516 939 516 939 605 c 0,43,44
 939 747 939 747 743 875 c 1,45,-1
 792 994 l 1,46,47
 983 839 983 839 983 605 c 0,0,1
EndSplineSet
EndChar

StartChar: afii62843
Encoding: 1780 1780 408
Width: 970
Flags: W
LayerCount: 2
Fore
SplineSet
1008 362 m 1,0,1
 924 265 924 265 874 225 c 0,2,3
 735 114 735 114 583 114 c 0,4,5
 396 114 396 114 306 240 c 1,6,7
 289 52 289 52 243 -100 c 1,8,-1
 187 -37 l 1,9,10
 217 230 217 230 217 422 c 0,11,12
 217 739 217 739 131 980 c 1,13,-1
 243 1097 l 1,14,15
 318 845 318 845 318 507 c 0,16,17
 318 417 318 417 367 341 c 0,18,19
 438 231 438 231 583 231 c 1,20,21
 531 254 531 254 473 333 c 0,22,23
 387 451 387 451 387 609 c 0,24,25
 387 1055 387 1055 663 1055 c 0,26,27
 805 1055 805 1055 917 929 c 1,28,-1
 886 801 l 1,29,30
 794 993 794 993 644 1025 c 1,31,32
 545 931 545 931 510 798 c 0,33,34
 487 711 487 711 487 567 c 0,35,36
 487 264 487 264 709 264 c 0,37,38
 868 264 868 264 1008 493 c 1,39,-1
 1008 362 l 1,0,1
EndSplineSet
EndChar

StartChar: afii62844
Encoding: 1781 1781 409
Width: 1028
Flags: W
LayerCount: 2
Fore
SplineSet
985 96 m 0,0,1
 957 18 957 18 899 -35 c 0,2,3
 834 -96 834 -96 758 -96 c 0,4,5
 598 -96 598 -96 548 96 c 1,6,7
 505 -100 505 -100 352 -100 c 0,8,9
 233 -100 233 -100 166 44 c 0,10,11
 131 119 131 119 131 211 c 0,12,13
 131 583 131 583 575 933 c 1,14,15
 559 944 559 944 525 965 c 1,16,-1
 578 1094 l 1,17,18
 774 986 774 986 899.5 769.5 c 128,-1,19
 1025 553 1025 553 1025 328 c 0,20,21
 1025 206 1025 206 985 96 c 0,0,1
968 228 m 0,22,23
 968 409 968 409 856 615 c 128,-1,24
 744 821 744 821 593 920 c 1,25,-1
 614 810 l 1,26,27
 320 574 320 574 229 394 c 0,28,29
 174 285 174 285 174 197 c 0,30,31
 174 111 174 111 224.5 61.5 c 128,-1,32
 275 12 275 12 361 12 c 0,33,34
 418 12 418 12 458 41 c 0,35,36
 502 73 502 73 502 128 c 0,37,38
 502 239 502 239 488 469 c 1,39,-1
 579 394 l 1,40,41
 566 262 566 262 578 185 c 0,42,43
 604 16 604 16 781 16 c 0,44,45
 831 16 831 16 879 40 c 0,46,47
 968 84 968 84 968 228 c 0,22,23
EndSplineSet
EndChar

StartChar: afii62845
Encoding: 1782 1782 410
Width: 992
Flags: W
LayerCount: 2
Fore
SplineSet
992 594 m 1,0,-1
 944 413 l 1,1,2
 663 297 663 297 274 -114 c 1,3,-1
 197 -114 l 1,4,5
 246 -29 246 -29 370 106 c 0,6,7
 471 216 471 216 540 274 c 1,8,9
 480 243 480 243 389 262 c 0,10,11
 121 318 121 318 121 586 c 0,12,13
 121 813 121 813 278 934 c 0,14,15
 396 1025 396 1025 529 1025 c 0,16,17
 570 1025 570 1025 620 1011 c 1,18,-1
 645 890 l 1,19,20
 524 937 524 937 478 937 c 0,21,22
 392 937 392 937 282 890 c 1,23,24
 219 815 219 815 219 656 c 0,25,26
 219 515 219 515 289 425 c 0,27,28
 365 326 365 326 503 326 c 0,29,30
 588 326 588 326 645 368 c 0,31,32
 838 509 838 509 992 594 c 1,0,-1
EndSplineSet
EndChar

StartChar: afii57399
Encoding: 1783 1783 411
Width: 1010
Flags: W
LayerCount: 2
Fore
SplineSet
1010 931 m 1,0,1
 949 903 949 903 898 870 c 0,2,3
 775 791 775 791 716 691 c 0,4,5
 618 527 618 527 618 154 c 0,6,7
 618 91 618 91 628 -32 c 1,8,-1
 520 -100 l 1,9,10
 513 -12 513 -12 498 100 c 0,11,12
 466 335 466 335 418 485 c 0,13,14
 330 761 330 761 131 941 c 1,15,-1
 224 1062 l 1,16,17
 407 861 407 861 543 339 c 1,18,19
 572 792 572 792 952 1066 c 1,20,-1
 1010 931 l 1,0,1
EndSplineSet
EndChar

StartChar: afii57400
Encoding: 1784 1784 412
Width: 1010
Flags: W
LayerCount: 2
Fore
SplineSet
1010 24 m 1,0,-1
 917 -96 l 1,1,2
 736 104 736 104 599 626 c 1,3,4
 568 172 568 172 189 -100 c 1,5,-1
 131 35 l 1,6,7
 192 63 192 63 243 96 c 0,8,9
 366 175 366 175 425 275 c 0,10,11
 523 439 523 439 523 812 c 0,12,13
 523 875 523 875 513 997 c 1,14,-1
 621 1066 l 1,15,16
 628 978 628 978 643 866 c 0,17,18
 675 631 675 631 723 481 c 0,19,20
 811 205 811 205 1010 24 c 1,0,-1
EndSplineSet
EndChar

StartChar: afii57401
Encoding: 1785 1785 413
Width: 963
Flags: W
LayerCount: 2
Fore
SplineSet
939 44 m 1,0,-1
 858 -100 l 1,1,2
 725 63 725 63 725 563 c 0,3,4
 725 700 725 700 706 767 c 0,5,6
 636 1013 636 1013 472 1013 c 0,7,8
 369 1013 369 1013 301 886 c 0,9,10
 240 772 240 772 240 626 c 0,11,12
 240 519 240 519 272 433 c 0,13,14
 316 314 316 314 405 314 c 0,15,16
 598 314 598 314 643 587 c 1,17,-1
 713 475 l 1,18,19
 625 277 625 277 431 277 c 0,20,21
 231 277 231 277 159 473 c 0,22,23
 131 549 131 549 131 612 c 0,24,25
 131 801 131 801 217 927 c 0,26,27
 316 1071 316 1071 494 1071 c 0,28,29
 590 1071 590 1071 675 1003 c 0,30,31
 755 940 755 940 793 847 c 0,32,33
 839 735 839 735 839 577 c 0,34,35
 839 326 839 326 865 206 c 0,36,37
 879 141 879 141 939 44 c 1,0,-1
EndSplineSet
EndChar

StartChar: afii57392.001
Encoding: 1632 1632 414
Width: 494
Flags: W
LayerCount: 2
Fore
SplineSet
494 462 m 0,0,1
 494 264 494 264 376 154 c 1,2,-1
 403 126 l 1,3,4
 367 115 367 115 338 115 c 0,5,6
 246 115 246 115 186 194 c 0,7,8
 131 267 131 267 131 362 c 0,9,10
 131 452 131 452 189 550 c 0,11,12
 256 663 256 663 347 663 c 0,13,14
 422 663 422 663 461 597 c 0,15,16
 494 542 494 542 494 462 c 0,0,1
424 504 m 0,17,18
 424 612 424 612 369 612 c 0,19,20
 327 612 327 612 280 523 c 0,21,22
 224 416 224 416 224 266 c 0,23,24
 224 189 224 189 249 189 c 0,25,26
 271 189 271 189 287 208 c 1,27,-1
 256 254 l 1,28,29
 265 250 265 250 276 250 c 0,30,31
 342 250 342 250 387 348 c 0,32,33
 424 429 424 429 424 504 c 0,17,18
EndSplineSet
EndChar

StartChar: afii57393.001
Encoding: 1633 1633 415
Width: 368
Flags: W
LayerCount: 2
Fore
SplineSet
323 507 m 0,0,1
 323 192 323 192 253 -100 c 1,2,-1
 187 -37 l 1,3,4
 217 230 217 230 217 422 c 0,5,6
 217 739 217 739 131 980 c 1,7,-1
 243 1109 l 1,8,9
 323 845 323 845 323 507 c 0,0,1
EndSplineSet
EndChar

StartChar: afii57394.001
Encoding: 1634 1634 416
Width: 988
Flags: W
LayerCount: 2
Fore
SplineSet
988 605 m 0,0,1
 988 414 988 414 849.5 280.5 c 128,-1,2
 711 147 711 147 519 147 c 0,3,4
 439 147 439 147 373 184 c 0,5,6
 326 211 326 211 306 240 c 1,7,8
 289 52 289 52 243 -100 c 1,9,-1
 187 -37 l 1,10,11
 217 230 217 230 217 422 c 0,12,13
 217 739 217 739 131 980 c 1,14,-1
 239 1112 l 1,15,16
 318 845 318 845 318 507 c 0,17,18
 318 425 318 425 372 356 c 0,19,20
 445 262 445 262 586 262 c 0,21,22
 726 262 726 262 835 364 c 128,-1,23
 944 466 944 466 944 605 c 0,24,25
 944 747 944 747 748 875 c 1,26,-1
 797 994 l 1,27,28
 988 839 988 839 988 605 c 0,0,1
EndSplineSet
EndChar

StartChar: afii57395.001
Encoding: 1635 1635 417
Width: 983
Flags: W
LayerCount: 2
Fore
SplineSet
983 605 m 0,0,1
 983 502 983 502 928 405 c 0,2,3
 864 292 864 292 768 292 c 0,4,5
 662 292 662 292 609 404 c 1,6,7
 586 285 586 285 520 212 c 0,8,9
 467 154 467 154 425 154 c 0,10,11
 358 154 358 154 301 240 c 1,12,13
 284 52 284 52 243 -100 c 1,14,-1
 187 -37 l 1,15,16
 217 230 217 230 217 422 c 0,17,18
 217 739 217 739 131 980 c 1,19,-1
 243 1097 l 1,20,21
 313 845 313 845 313 507 c 0,22,23
 313 429 313 429 346 361 c 0,24,25
 394 262 394 262 493 262 c 0,26,27
 523 262 523 262 537 399 c 0,28,29
 546 486 546 486 546 562 c 0,30,31
 546 816 546 816 465 1027 c 1,32,-1
 598 961 l 1,33,34
 619 885 619 885 625 652 c 0,35,36
 631 445 631 445 644 430 c 0,37,38
 669 401 669 401 766 401 c 0,39,40
 852 401 852 401 898 462 c 0,41,42
 939 516 939 516 939 605 c 0,43,44
 939 747 939 747 743 875 c 1,45,-1
 792 994 l 1,46,47
 983 839 983 839 983 605 c 0,0,1
EndSplineSet
EndChar

StartChar: afii57396
Encoding: 1636 1636 418
Width: 970
Flags: W
LayerCount: 2
Fore
SplineSet
1008 362 m 1,0,1
 924 265 924 265 874 225 c 0,2,3
 735 114 735 114 583 114 c 0,4,5
 396 114 396 114 306 240 c 1,6,7
 289 52 289 52 243 -100 c 1,8,-1
 187 -37 l 1,9,10
 217 230 217 230 217 422 c 0,11,12
 217 739 217 739 131 980 c 1,13,-1
 243 1097 l 1,14,15
 318 845 318 845 318 507 c 0,16,17
 318 417 318 417 367 341 c 0,18,19
 438 231 438 231 583 231 c 1,20,21
 531 254 531 254 473 333 c 0,22,23
 387 451 387 451 387 609 c 0,24,25
 387 1055 387 1055 663 1055 c 0,26,27
 805 1055 805 1055 917 929 c 1,28,-1
 886 801 l 1,29,30
 794 993 794 993 644 1025 c 1,31,32
 545 931 545 931 510 798 c 0,33,34
 487 711 487 711 487 567 c 0,35,36
 487 264 487 264 709 264 c 0,37,38
 868 264 868 264 1008 493 c 1,39,-1
 1008 362 l 1,0,1
EndSplineSet
EndChar

StartChar: afii57397
Encoding: 1637 1637 419
Width: 1028
Flags: W
LayerCount: 2
Fore
SplineSet
985 96 m 0,0,1
 957 18 957 18 899 -35 c 0,2,3
 834 -96 834 -96 758 -96 c 0,4,5
 598 -96 598 -96 548 96 c 1,6,7
 505 -100 505 -100 352 -100 c 0,8,9
 233 -100 233 -100 166 44 c 0,10,11
 131 119 131 119 131 211 c 0,12,13
 131 583 131 583 575 933 c 1,14,15
 559 944 559 944 525 965 c 1,16,-1
 578 1094 l 1,17,18
 774 986 774 986 899.5 769.5 c 128,-1,19
 1025 553 1025 553 1025 328 c 0,20,21
 1025 206 1025 206 985 96 c 0,0,1
968 228 m 0,22,23
 968 409 968 409 856 615 c 128,-1,24
 744 821 744 821 593 920 c 1,25,-1
 614 810 l 1,26,27
 320 574 320 574 229 394 c 0,28,29
 174 285 174 285 174 197 c 0,30,31
 174 111 174 111 224.5 61.5 c 128,-1,32
 275 12 275 12 361 12 c 0,33,34
 418 12 418 12 458 41 c 0,35,36
 502 73 502 73 502 128 c 0,37,38
 502 239 502 239 488 469 c 1,39,-1
 579 394 l 1,40,41
 566 262 566 262 578 185 c 0,42,43
 604 16 604 16 781 16 c 0,44,45
 831 16 831 16 879 40 c 0,46,47
 968 84 968 84 968 228 c 0,22,23
EndSplineSet
EndChar

StartChar: afii57398
Encoding: 1638 1638 420
Width: 992
Flags: W
LayerCount: 2
Fore
SplineSet
992 594 m 1,0,-1
 944 413 l 1,1,2
 663 297 663 297 274 -114 c 1,3,-1
 197 -114 l 1,4,5
 246 -29 246 -29 370 106 c 0,6,7
 471 216 471 216 540 274 c 1,8,9
 480 243 480 243 389 262 c 0,10,11
 121 318 121 318 121 586 c 0,12,13
 121 813 121 813 278 934 c 0,14,15
 396 1025 396 1025 529 1025 c 0,16,17
 570 1025 570 1025 620 1011 c 1,18,-1
 645 890 l 1,19,20
 524 937 524 937 478 937 c 0,21,22
 392 937 392 937 282 890 c 1,23,24
 219 815 219 815 219 656 c 0,25,26
 219 515 219 515 289 425 c 0,27,28
 365 326 365 326 503 326 c 0,29,30
 588 326 588 326 645 368 c 0,31,32
 838 509 838 509 992 594 c 1,0,-1
EndSplineSet
EndChar

StartChar: afii57399.001
Encoding: 1639 1639 421
Width: 1010
Flags: W
LayerCount: 2
Fore
SplineSet
1010 931 m 1,0,1
 949 903 949 903 898 870 c 0,2,3
 775 791 775 791 716 691 c 0,4,5
 618 527 618 527 618 154 c 0,6,7
 618 91 618 91 628 -32 c 1,8,-1
 520 -100 l 1,9,10
 513 -12 513 -12 498 100 c 0,11,12
 466 335 466 335 418 485 c 0,13,14
 330 761 330 761 131 941 c 1,15,-1
 224 1062 l 1,16,17
 407 861 407 861 543 339 c 1,18,19
 572 792 572 792 952 1066 c 1,20,-1
 1010 931 l 1,0,1
EndSplineSet
EndChar

StartChar: afii57400.001
Encoding: 1640 1640 422
Width: 1010
Flags: W
LayerCount: 2
Fore
SplineSet
1010 24 m 1,0,-1
 917 -96 l 1,1,2
 736 104 736 104 599 626 c 1,3,4
 568 172 568 172 189 -100 c 1,5,-1
 131 35 l 1,6,7
 192 63 192 63 243 96 c 0,8,9
 366 175 366 175 425 275 c 0,10,11
 523 439 523 439 523 812 c 0,12,13
 523 875 523 875 513 997 c 1,14,-1
 621 1066 l 1,15,16
 628 978 628 978 643 866 c 0,17,18
 675 631 675 631 723 481 c 0,19,20
 811 205 811 205 1010 24 c 1,0,-1
EndSplineSet
EndChar

StartChar: afii57401.001
Encoding: 1641 1641 423
Width: 963
Flags: W
LayerCount: 2
Fore
SplineSet
939 44 m 1,0,-1
 858 -100 l 1,1,2
 725 63 725 63 725 563 c 0,3,4
 725 700 725 700 706 767 c 0,5,6
 636 1013 636 1013 472 1013 c 0,7,8
 369 1013 369 1013 301 886 c 0,9,10
 240 772 240 772 240 626 c 0,11,12
 240 519 240 519 272 433 c 0,13,14
 316 314 316 314 405 314 c 0,15,16
 598 314 598 314 643 587 c 1,17,-1
 713 475 l 1,18,19
 625 277 625 277 431 277 c 0,20,21
 231 277 231 277 159 473 c 0,22,23
 131 549 131 549 131 612 c 0,24,25
 131 801 131 801 217 927 c 0,26,27
 316 1071 316 1071 494 1071 c 0,28,29
 590 1071 590 1071 675 1003 c 0,30,31
 755 940 755 940 793 847 c 0,32,33
 839 735 839 735 839 577 c 0,34,35
 839 326 839 326 865 206 c 0,36,37
 879 141 879 141 939 44 c 1,0,-1
EndSplineSet
EndChar

StartChar: guillemotleft
Encoding: 171 171 424
Width: 836
Flags: W
LayerCount: 2
Fore
SplineSet
628 623 m 1,0,1
 592 516 592 516 592 405 c 0,2,3
 592 269 592 269 679 99 c 1,4,-1
 679 100 l 1,5,6
 692 77 692 77 698.5 62 c 128,-1,7
 705 47 705 47 707 39 c 0,8,9
 707 14 707 14 689 14 c 0,10,11
 685 14 685 14 676 20 c 0,12,13
 585 87 585 87 529 183 c 1,14,-1
 529 183 l 1,15,16
 468 290 468 290 468 408 c 0,17,18
 469 458 469 458 482 508.5 c 128,-1,19
 495 559 495 559 520 610 c 0,20,21
 538 646 538 646 563 682 c 128,-1,22
 588 718 588 718 617 749 c 0,23,24
 667 802 667 802 685 802 c 0,25,26
 709 802 709 802 709 778 c 0,27,28
 709 768 709 768 704 760 c 0,29,30
 667 707 667 707 651 673.5 c 128,-1,31
 635 640 635 640 627 622 c 1,32,-1
 628 623 l 1,0,1
338 623 m 1,33,34
 302 516 302 516 302 405 c 0,35,36
 302 269 302 269 389 99 c 1,37,-1
 389 100 l 1,38,39
 402 77 402 77 408.5 62 c 128,-1,40
 415 47 415 47 417 39 c 0,41,42
 417 14 417 14 399 14 c 0,43,44
 395 14 395 14 386 20 c 0,45,46
 295 87 295 87 239 183 c 1,47,-1
 239 183 l 1,48,49
 178 290 178 290 178 408 c 0,50,51
 179 458 179 458 192 508.5 c 128,-1,52
 205 559 205 559 230 610 c 0,53,54
 248 646 248 646 273 682 c 128,-1,55
 298 718 298 718 327 749 c 0,56,57
 377 802 377 802 395 802 c 0,58,59
 419 802 419 802 419 778 c 0,60,61
 419 768 419 768 414 760 c 0,62,63
 377 707 377 707 361 673.5 c 128,-1,64
 345 640 345 640 337 622 c 1,65,-1
 338 623 l 1,33,34
EndSplineSet
EndChar

StartChar: guillemotright
Encoding: 187 187 425
Width: 818
Flags: W
LayerCount: 2
Fore
SplineSet
260 622 m 1,0,1
 252 640 252 640 236 673.5 c 128,-1,2
 220 707 220 707 183 760 c 0,3,4
 178 768 178 768 178 778 c 0,5,6
 178 802 178 802 202 802 c 0,7,8
 220 802 220 802 270 749 c 0,9,10
 299 718 299 718 324 682 c 128,-1,11
 349 646 349 646 367 610 c 0,12,13
 392 559 392 559 405 508.5 c 128,-1,14
 418 458 418 458 419 408 c 0,15,16
 419 290 419 290 358 183 c 1,17,-1
 358 183 l 1,18,19
 302 87 302 87 211 20 c 0,20,21
 202 14 202 14 198 14 c 0,22,23
 180 14 180 14 180 39 c 0,24,25
 182 47 182 47 188.5 62 c 128,-1,26
 195 77 195 77 208 100 c 1,27,-1
 208 99 l 1,28,29
 295 269 295 269 295 405 c 0,30,31
 295 516 295 516 259 623 c 1,32,-1
 260 622 l 1,0,1
550 622 m 1,33,34
 542 640 542 640 526 673.5 c 128,-1,35
 510 707 510 707 473 760 c 0,36,37
 468 768 468 768 468 778 c 0,38,39
 468 802 468 802 492 802 c 0,40,41
 510 802 510 802 560 749 c 0,42,43
 589 718 589 718 614 682 c 128,-1,44
 639 646 639 646 657 610 c 0,45,46
 682 559 682 559 695 508.5 c 128,-1,47
 708 458 708 458 709 408 c 0,48,49
 709 290 709 290 648 183 c 1,50,-1
 648 183 l 1,51,52
 592 87 592 87 501 20 c 0,53,54
 492 14 492 14 488 14 c 0,55,56
 470 14 470 14 470 39 c 0,57,58
 472 47 472 47 478.5 62 c 128,-1,59
 485 77 485 77 498 100 c 1,60,-1
 498 99 l 1,61,62
 585 269 585 269 585 405 c 0,63,64
 585 516 585 516 549 623 c 1,65,-1
 550 622 l 1,33,34
EndSplineSet
EndChar

StartChar: quoteleft
Encoding: 8216 8216 426
Width: 425
Flags: W
LayerCount: 2
Fore
SplineSet
121 993 m 0,0,1
 122 1058 122 1058 166 1121.5 c 128,-1,2
 210 1185 210 1185 265 1211 c 1,3,-1
 296 1153 l 1,4,5
 280 1144 280 1144 258 1120 c 128,-1,6
 236 1096 236 1096 226 1058 c 1,7,8
 292 1030 292 1030 289 975 c 0,9,10
 289 959 289 959 282.5 944.5 c 128,-1,11
 276 930 276 930 265 919 c 128,-1,12
 254 908 254 908 239 901.5 c 128,-1,13
 224 895 224 895 208 895 c 0,14,15
 188 895 188 895 171.5 903.5 c 128,-1,16
 155 912 155 912 144 925.5 c 128,-1,17
 133 939 133 939 127 957 c 128,-1,18
 121 975 121 975 121 993 c 0,0,1
EndSplineSet
EndChar

StartChar: quoteright
Encoding: 8217 8217 427
Width: 372
Flags: W
LayerCount: 2
Fore
SplineSet
311 1113 m 0,0,1
 310 1048 310 1048 266 984.5 c 128,-1,2
 222 921 222 921 167 895 c 1,3,-1
 136 953 l 1,4,5
 152 962 152 962 174 986 c 128,-1,6
 196 1010 196 1010 206 1048 c 1,7,8
 140 1076 140 1076 143 1131 c 0,9,10
 143 1147 143 1147 149.5 1161.5 c 128,-1,11
 156 1176 156 1176 167 1187 c 128,-1,12
 178 1198 178 1198 192.5 1204.5 c 128,-1,13
 207 1211 207 1211 224 1211 c 0,14,15
 244 1211 244 1211 260 1202.5 c 128,-1,16
 276 1194 276 1194 287.5 1180.5 c 128,-1,17
 299 1167 299 1167 305 1149 c 128,-1,18
 311 1131 311 1131 311 1113 c 0,0,1
EndSplineSet
EndChar

StartChar: afii57451
Encoding: 1611 1611 428
Width: 0
GlyphClass: 4
Flags: W
AnchorPoint: "Anchor-2" 0 0 mark 0
AnchorPoint: "Anchor-0" 0 0 mark 0
LayerCount: 2
Fore
SplineSet
206 273 m 1,0,-1
 190 201 l 1,1,-1
 -197 131 l 1,2,-1
 -197 183 l 1,3,4
 -120 189 -120 189 -17 201 c 0,5,6
 30 207 30 207 206 273 c 1,0,-1
201 91 m 1,7,8
 124 85 124 85 21 73 c 0,9,10
 -26 67 -26 67 -202 1 c 1,11,-1
 -186 73 l 1,12,-1
 201 143 l 1,13,-1
 201 91 l 1,7,8
EndSplineSet
EndChar

StartChar: afii57454
Encoding: 1614 1614 429
Width: 0
GlyphClass: 4
Flags: W
AnchorPoint: "Anchor-2" 0 0 mark 0
AnchorPoint: "Anchor-0" 0 0 mark 0
LayerCount: 2
Fore
SplineSet
170 146 m 1,0,-1
 154 74 l 1,1,-1
 -233 4 l 1,2,-1
 -233 56 l 1,3,4
 -156 62 -156 62 -53 74 c 0,5,6
 -6 80 -6 80 170 146 c 1,0,-1
EndSplineSet
EndChar

StartChar: afii57455
Encoding: 1615 1615 430
Width: 0
GlyphClass: 4
Flags: W
AnchorPoint: "Anchor-2" 0 0 mark 0
AnchorPoint: "Anchor-0" 0 0 mark 0
LayerCount: 2
Fore
SplineSet
125 69 m 1,0,-1
 53 26 l 1,1,-1
 14 56 l 1,2,3
 -20 33 -20 33 -97 -2 c 1,4,5
 -133 9 -133 9 -210 25 c 1,6,7
 -182 26 -182 26 -106 52 c 0,8,9
 -43 73 -43 73 -24 85 c 1,10,11
 -70 133 -70 133 -74 184 c 0,12,13
 -77 213 -77 213 -50 234 c 0,14,15
 -1 273 -1 273 63 280 c 0,16,17
 113 285 113 285 136 271 c 0,18,19
 160 257 160 257 164 225 c 0,20,21
 167 197 167 197 152 171 c 0,22,23
 125 125 125 125 65 89 c 1,24,25
 96 72 96 72 125 69 c 1,0,-1
107 221 m 0,26,27
 80 237 80 237 39 242 c 0,28,29
 -12 248 -12 248 -24 226 c 0,30,31
 -40 197 -40 197 25 118 c 1,32,33
 110 171 110 171 124 195 c 0,34,35
 132 208 132 208 107 221 c 0,26,27
EndSplineSet
EndChar

StartChar: afii57452
Encoding: 1612 1612 431
Width: 0
GlyphClass: 4
Flags: W
AnchorPoint: "Anchor-2" 0 0 mark 0
AnchorPoint: "Anchor-0" 0 0 mark 0
LayerCount: 2
Fore
SplineSet
118 92 m 1,0,1
 149 75 149 75 178 71 c 1,2,-1
 108 29 l 1,3,-1
 67 56 l 1,4,5
 33 31 33 31 -38 0 c 1,6,7
 -68 15 -68 15 -162 34 c 1,8,9
 -59 71 -59 71 -59 133 c 0,10,11
 -59 160 -59 160 -102 160 c 0,12,13
 -148 160 -148 160 -270 92 c 1,14,-1
 -231 195 l 1,15,16
 -185 202 -185 202 -150 202 c 0,17,18
 -24 202 -24 202 -24 117 c 0,19,20
 -24 81 -24 81 -38 56 c 1,21,22
 7 72 7 72 30 86 c 1,23,24
 -12 134 -12 134 -17 183 c 0,25,26
 -20 207 -20 207 10 229 c 0,27,28
 73 277 73 277 148 277 c 0,29,30
 178 277 178 277 190 268 c 0,31,32
 216 257 216 257 216 220 c 0,33,34
 216 151 216 151 118 92 c 1,0,1
80 237 m 0,35,36
 33 237 33 237 33 209 c 0,37,38
 33 179 33 179 79 117 c 1,39,40
 179 175 179 175 179 195 c 0,41,42
 179 212 179 212 137 226 c 0,43,44
 102 237 102 237 80 237 c 0,35,36
EndSplineSet
EndChar

StartChar: afii57456
Encoding: 1616 1616 432
Width: 0
GlyphClass: 4
Flags: W
AnchorPoint: "Anchor-3" 0 0 mark 0
AnchorPoint: "Anchor-1" 0 0 mark 0
LayerCount: 2
Fore
SplineSet
184 144 m 1,0,-1
 168 72 l 1,1,-1
 -219 2 l 1,2,-1
 -219 54 l 1,3,4
 -142 60 -142 60 -39 72 c 0,5,6
 8 78 8 78 184 144 c 1,0,-1
EndSplineSet
EndChar

StartChar: afii57457
Encoding: 1617 1617 433
Width: 0
GlyphClass: 4
Flags: W
AnchorPoint: "Anchor-2" 0 0 mark 0
AnchorPoint: "Anchor-0" 0 0 mark 0
LayerCount: 2
Fore
SplineSet
170 138 m 0,0,1
 170 85 170 85 137 48.5 c 128,-1,2
 104 12 104 12 51 12 c 0,3,4
 21 12 21 12 -9 45 c 1,5,6
 -46 -1 -46 -1 -90 -1 c 0,7,8
 -130 -3 -130 -3 -163 26.5 c 128,-1,9
 -196 56 -196 56 -194 120 c 1,10,11
 -185 214 -185 214 -106 240 c 1,12,-1
 -124 184 l 1,13,14
 -170 158 -170 158 -170 120 c 0,15,16
 -170 83 -170 83 -137 73 c 1,17,18
 -102 56 -102 56 -64 57 c 128,-1,19
 -26 58 -26 58 -26 88 c 0,20,21
 -26 145 -26 145 -46 210 c 1,22,-1
 6 255 l 1,23,24
 7 211 7 211 9 162 c 0,25,26
 17 66 17 66 66 66 c 0,27,28
 106 66 106 66 139 91 c 1,29,30
 139 128 139 128 122.5 169.5 c 128,-1,31
 106 211 106 211 88 245 c 1,32,-1
 166 195 l 1,33,34
 170 181 170 181 170 138 c 0,0,1
EndSplineSet
EndChar

StartChar: afii57458
Encoding: 1618 1618 434
Width: 0
GlyphClass: 4
Flags: W
AnchorPoint: "Anchor-2" 0 0 mark 0
AnchorPoint: "Anchor-0" 0 0 mark 0
LayerCount: 2
Fore
SplineSet
118 105 m 0,0,1
 118 55 118 55 53 23 c 0,2,3
 -1 -4 -1 -4 -56 -4 c 0,4,5
 -123 -4 -123 -4 -123 71 c 0,6,7
 -123 140 -123 140 -30 198 c 1,8,9
 -54 211 -54 211 -100 212 c 1,10,-1
 -35 260 l 1,11,12
 -19 256 -19 256 20 237 c 1,13,-1
 49 256 l 1,14,-1
 80 226 l 1,15,-1
 54 212 l 1,16,17
 118 152 118 152 118 105 c 0,0,1
72 80 m 0,18,19
 72 106 72 106 7 173 c 1,20,21
 -88 100 -88 100 -88 75 c 0,22,23
 -88 59 -88 59 -52 49 c 0,24,25
 -24 41 -24 41 -4 41 c 0,26,27
 72 41 72 41 72 80 c 0,18,19
EndSplineSet
EndChar

StartChar: exclam
Encoding: 33 33 437
Width: 443
GlyphClass: 2
Flags: W
LayerCount: 2
Fore
SplineSet
355 495 m 0,0,1
 355 274 355 274 317 98 c 1,2,3
 317 121 317 121 294 168.5 c 128,-1,4
 271 216 271 216 252 229 c 1,5,6
 312 339 312 339 312 417 c 0,7,8
 312 500 312 500 271 656 c 0,9,10
 219 853 219 853 131 1026 c 1,11,12
 171 1047 171 1047 208 1181 c 1,13,14
 355 861 355 861 355 495 c 0,0,1
336 -65 m 256,15,16
 336 -95 336 -95 314.5 -116.5 c 128,-1,17
 293 -138 293 -138 263 -138 c 0,18,19
 189 -138 189 -138 189 -65 c 0,20,21
 189 -34 189 -34 210.5 -12.5 c 128,-1,22
 232 9 232 9 263 9 c 0,23,24
 293 9 293 9 314.5 -13 c 128,-1,25
 336 -35 336 -35 336 -65 c 256,15,16
EndSplineSet
EndChar

StartChar: afii64060
Encoding: 64830 64830 438
Width: 411
GlyphClass: 2
Flags: W
LayerCount: 2
Fore
SplineSet
411 1045 m 1,0,1
 179 816 179 816 179 590 c 0,2,3
 179 285 179 285 389 -73 c 1,4,-1
 336 -189 l 1,5,6
 131 132 131 132 131 516 c 0,7,8
 131 854 131 854 411 1188 c 1,9,-1
 411 1045 l 1,0,1
EndSplineSet
EndChar

StartChar: afii64061
Encoding: 64831 64831 439
Width: 411
GlyphClass: 2
Flags: W
LayerCount: 2
Fore
SplineSet
131 -47 m 1,0,1
 363 182 363 182 363 408 c 0,2,3
 363 713 363 713 153 1071 c 1,4,-1
 206 1187 l 1,5,6
 411 865 411 865 411 482 c 0,7,8
 411 144 411 144 131 -190 c 1,9,-1
 131 -47 l 1,0,1
EndSplineSet
EndChar

StartChar: afii62821
Encoding: 65252 65252 440
Width: 858
GlyphClass: 2
Flags: W
AnchorPoint: "Anchor-3" 375 -375 basechar 0
AnchorPoint: "Anchor-2" 360 885 basechar 0
LayerCount: 2
Fore
SplineSet
865 0 m 1,0,-1
 853 0 l 2,1,2
 728 0 728 0 646 162 c 1,3,4
 621 -4 621 -4 484 -4 c 0,5,6
 400 -4 400 -4 328 71 c 0,7,8
 298 103 298 103 245 190 c 1,9,10
 243 108 243 108 160 51 c 0,11,12
 85 0 85 0 0 0 c 2,13,-1
 -12 0 l 1,14,-1
 -12 114 l 1,15,-1
 0 114 l 2,16,17
 76 114 76 114 133 143 c 0,18,19
 204 179 204 179 204 248 c 0,20,21
 204 261 204 261 202 272 c 0,22,23
 188 352 188 352 188 413 c 0,24,25
 188 601 188 601 307 644 c 0,26,27
 324 650 324 650 344 650 c 0,28,29
 434 650 434 650 516 561 c 0,30,31
 584 488 584 488 620 390 c 0,32,33
 631 361 631 361 659 279 c 0,34,35
 716 114 716 114 853 114 c 2,36,-1
 865 114 l 1,37,-1
 865 0 l 1,0,-1
436 530 m 0,38,39
 377 602 377 602 335 602 c 0,40,41
 268 602 268 602 268 480 c 0,42,43
 268 396 268 396 311 284 c 0,44,45
 401 50 401 50 499 50 c 0,46,47
 509 50 509 50 519 53 c 0,48,49
 564 66 564 66 564 172 c 0,50,51
 564 373 564 373 436 530 c 0,38,39
EndSplineSet
EndChar

StartChar: uni25CC
Encoding: 9676 9676 441
Width: 911
Flags: W
AnchorPoint: "Anchor-3" 480 -300 basechar 0
AnchorPoint: "Anchor-2" 465 960 basechar 0
LayerCount: 2
Fore
SplineSet
771 629 m 256,0,1
 771 592 771 592 734 592 c 0,2,3
 695 592 695 592 695 629 c 256,4,5
 695 666 695 666 734 666 c 0,6,7
 771 666 771 666 771 629 c 256,0,1
658 703 m 0,8,9
 658 666 658 666 621 666 c 0,10,11
 582 666 582 666 582 703 c 0,12,13
 582 742 582 742 621 742 c 0,14,15
 658 742 658 742 658 703 c 0,8,9
847 516 m 0,16,17
 847 477 847 477 808 477 c 0,18,19
 771 477 771 477 771 516 c 0,20,21
 771 553 771 553 810 553 c 0,22,23
 847 553 847 553 847 516 c 0,16,17
873 384 m 256,24,25
 873 347 873 347 836 347 c 0,26,27
 797 347 797 347 797 384 c 256,28,29
 797 421 797 421 836 421 c 0,30,31
 873 421 873 421 873 384 c 256,24,25
525 731 m 0,32,33
 525 692 525 692 488 692 c 256,34,35
 451 692 451 692 451 731 c 0,36,37
 451 768 451 768 488 768 c 256,38,39
 525 768 525 768 525 731 c 0,32,33
847 251 m 0,40,41
 847 214 847 214 808 214 c 0,42,43
 771 214 771 214 771 251 c 0,44,45
 771 290 771 290 808 290 c 0,46,47
 847 290 847 290 847 251 c 0,40,41
394 703 m 0,48,49
 394 666 394 666 356 666 c 0,50,51
 319 666 319 666 319 703 c 0,52,53
 319 742 319 742 356 742 c 0,54,55
 394 742 394 742 394 703 c 0,48,49
282 629 m 256,56,57
 282 592 282 592 243 592 c 0,58,59
 206 592 206 592 206 627 c 0,60,61
 206 666 206 666 243 666 c 0,62,63
 282 666 282 666 282 629 c 256,56,57
771 138 m 0,64,65
 771 101 771 101 734 101 c 256,66,67
 697 101 697 101 697 138 c 0,68,69
 697 177 697 177 734 177 c 256,70,71
 771 177 771 177 771 138 c 0,64,65
658 64 m 0,72,73
 658 27 658 27 621 27 c 256,74,75
 584 27 584 27 584 64 c 0,76,77
 584 103 584 103 621 103 c 256,78,79
 658 103 658 103 658 64 c 0,72,73
206 516 m 0,80,81
 206 477 206 477 171 477 c 0,82,83
 132 477 132 477 132 516 c 0,84,85
 132 553 132 553 169 553 c 256,86,87
 206 553 206 553 206 516 c 0,80,81
180 384 m 256,88,89
 180 347 180 347 143 347 c 0,90,91
 104 347 104 347 104 384 c 256,92,93
 104 421 104 421 143 421 c 0,94,95
 180 421 180 421 180 384 c 256,88,89
525 38 m 0,96,97
 525 -1 525 -1 488 -1 c 256,98,99
 451 -1 451 -1 451 38 c 0,100,101
 451 75 451 75 488 75 c 256,102,103
 525 75 525 75 525 38 c 0,96,97
394 66 m 0,104,105
 394 27 394 27 356 27 c 0,106,107
 319 27 319 27 319 64 c 0,108,109
 319 103 319 103 356 103 c 0,110,111
 394 103 394 103 394 66 c 0,104,105
206 251 m 0,112,113
 206 214 206 214 169 214 c 256,114,115
 132 214 132 214 132 251 c 0,116,117
 132 290 132 290 169 290 c 256,118,119
 206 290 206 290 206 251 c 0,112,113
282 138 m 0,120,121
 282 101 282 101 245 101 c 0,122,123
 206 101 206 101 206 138 c 0,124,125
 206 177 206 177 243 177 c 0,126,127
 282 177 282 177 282 138 c 0,120,121
EndSplineSet
EndChar

StartChar: afii62819
Encoding: 65246 65246 442
Width: 1453
GlyphClass: 2
Flags: W
AnchorPoint: "Anchor-3" 765 -675 basechar 0
AnchorPoint: "Anchor-2" 900 1200 basechar 0
LayerCount: 2
Fore
SplineSet
1465 0 m 1,0,-1
 1453 0 l 2,1,2
 1312 0 1312 0 1260 118 c 1,3,4
 1263 -88 1263 -88 1256 -106 c 0,5,6
 1239 -148 1239 -148 1113 -192 c 0,7,8
 969 -242 969 -242 795 -242 c 0,9,10
 582 -242 582 -242 382 -152 c 0,11,12
 131 -39 131 -39 131 149 c 0,13,14
 131 286 131 286 251 372 c 0,15,16
 359 450 359 450 501 450 c 0,17,18
 597 450 597 450 709 420 c 1,19,-1
 777 296 l 1,20,21
 610 410 610 410 476 410 c 0,22,23
 376 410 376 410 310 357 c 0,24,25
 238 300 238 300 238 203 c 0,26,27
 238 18 238 18 502 -83 c 0,28,29
 700 -159 700 -159 919 -159 c 0,30,31
 1107 -159 1107 -159 1220 -95 c 1,32,-1
 1109 1176 l 1,33,-1
 1225 1081 l 1,34,35
 1238 623 1238 623 1253 288 c 0,36,37
 1256 215 1256 215 1319 163 c 0,38,39
 1379 114 1379 114 1453 114 c 2,40,-1
 1465 114 l 1,41,-1
 1465 0 l 1,0,-1
EndSplineSet
EndChar

StartChar: braceright
Encoding: 125 125 445
Width: 833
GlyphClass: 2
Flags: W
LayerCount: 2
Fore
SplineSet
151 1177 m 1,0,-1
 151 1206 l 1,1,2
 291 1187 291 1187 380 1091.5 c 128,-1,3
 469 996 469 996 469 880 c 0,4,5
 469 818 469 818 449.5 737.5 c 128,-1,6
 430 657 430 657 430 613 c 0,7,8
 430 551 430 551 481 498 c 128,-1,9
 532 445 532 445 623 434 c 1,10,-1
 623 399 l 1,11,12
 532 387 532 387 481 334 c 128,-1,13
 430 281 430 281 430 219 c 0,14,15
 430 175 430 175 449.5 94 c 128,-1,16
 469 13 469 13 469 -49 c 0,17,18
 469 -163 469 -163 380 -259 c 128,-1,19
 291 -355 291 -355 151 -375 c 1,20,-1
 151 -346 l 1,21,22
 249 -320 249 -320 295 -267 c 128,-1,23
 341 -214 341 -214 341 -148 c 0,24,25
 341 -99 341 -99 322 -16.5 c 128,-1,26
 303 66 303 66 303 122 c 0,27,28
 303 209 303 209 366 289.5 c 128,-1,29
 429 370 429 370 553 413 c 1,30,31
 431 459 431 459 367 541 c 128,-1,32
 303 623 303 623 303 709 c 0,33,34
 303 766 303 766 322 848.5 c 128,-1,35
 341 931 341 931 341 980 c 0,36,37
 341 1045 341 1045 295 1098.5 c 128,-1,38
 249 1152 249 1152 151 1177 c 1,0,-1
EndSplineSet
EndChar

StartChar: uni0656
Encoding: 1622 1622 452
Width: 0
GlyphClass: 4
Flags: W
AnchorPoint: "Anchor-3" 0 0 mark 0
AnchorPoint: "Anchor-1" 0 0 mark 0
LayerCount: 2
Fore
SplineSet
43 172 m 0,0,1
 43 60 43 60 -3 1 c 1,2,-1
 -28 39 l 1,3,4
 -19 55 -19 55 -19 153 c 0,5,6
 -19 235 -19 235 -54 283 c 1,7,-1
 32 337 l 1,8,9
 43 252 43 252 43 172 c 0,0,1
EndSplineSet
EndChar

StartChar: E005
Encoding: 65578 -1 470
Width: 476
GlyphClass: 3
Flags: W
LayerCount: 2
Fore
SplineSet
-43 0 m 1,0,-1
 -43 207 l 1,1,-1
 581 207 l 1,2,-1
 581 0 l 1,3,-1
 -43 0 l 1,0,-1
EndSplineSet
EndChar

StartChar: afii57470
Encoding: 1726 1726 480
Width: 621
Flags: W
AnchorPoint: "Anchor-3" 270 -465 basechar 0
AnchorPoint: "Anchor-2" 165 1110 basechar 0
LayerCount: 2
Fore
SplineSet
621 128 m 0,0,1
 621 91 621 91 601 40 c 0,2,3
 577 -22 577 -22 545 -22 c 0,4,5
 522 -22 522 -22 406 22 c 0,6,7
 295 64 295 64 263 82 c 1,8,9
 176 0 176 0 0 0 c 2,10,-1
 -12 0 l 1,11,-1
 -12 114 l 1,12,-1
 0 114 l 2,13,14
 139 114 139 114 172 136 c 1,15,16
 18 244 18 244 18 394 c 0,17,18
 18 535 18 535 90 612 c 0,19,20
 140 665 140 665 183 665 c 1,21,-1
 144 699 l 1,22,-1
 193 819 l 1,23,24
 348 687 348 687 471 508 c 0,25,26
 621 290 621 290 621 128 c 0,0,1
590 82 m 0,27,28
 590 177 590 177 421 407 c 1,29,30
 421 280 421 280 324 157 c 1,31,32
 358 140 358 140 454 111 c 0,33,34
 554 80 554 80 584 80 c 0,35,36
 590 80 590 80 590 82 c 0,27,28
386 340 m 1,37,38
 386 411 386 411 349 483 c 0,39,40
 299 581 299 581 211 581 c 0,41,42
 171 581 171 581 117 509 c 0,43,44
 54 425 54 425 54 324 c 1,45,46
 96 250 96 250 245 190 c 1,47,48
 284 210 284 210 331 264 c 0,49,50
 369 308 369 308 386 340 c 1,37,38
EndSplineSet
Substitution2: "'medi' Medial Forms in Arabic lookup 3 subtable" afii62827
Substitution2: "'fina' Terminal Forms in Arabic lookup 2 subtable" afii62827
Substitution2: "'init' Initial Forms in Arabic lookup 1 subtable" afii57470
EndChar

StartChar: at
Encoding: 64 64 489
Width: 1600
Flags: W
LayerCount: 2
Fore
SplineSet
1194 812 m 1,0,-1
 1095 474 l 2,1,2
 1040 284 1040 284 1027.5 233 c 128,-1,3
 1015 182 1015 182 1015 152 c 0,4,5
 1015 125 1015 125 1034 106 c 128,-1,6
 1053 87 1053 87 1079 87 c 0,7,8
 1142 87 1142 87 1228.5 149 c 128,-1,9
 1315 211 1315 211 1377 350.5 c 128,-1,10
 1439 490 1439 490 1439 640 c 0,11,12
 1439 785 1439 785 1369.5 908 c 128,-1,13
 1300 1031 1300 1031 1172 1097 c 128,-1,14
 1044 1163 1044 1163 889 1163 c 0,15,16
 693 1163 693 1163 525.5 1059 c 128,-1,17
 358 955 358 955 260 760 c 128,-1,18
 162 565 162 565 162 354 c 0,19,20
 162 159 162 159 248 0 c 128,-1,21
 334 -159 334 -159 490.5 -241 c 128,-1,22
 647 -323 647 -323 826 -323 c 0,23,24
 1049 -323 1049 -323 1229.5 -203.5 c 128,-1,25
 1410 -84 1410 -84 1507 146 c 1,26,-1
 1557 146 l 1,27,28
 1481 -87 1481 -87 1280 -231 c 128,-1,29
 1079 -375 1079 -375 821 -375 c 0,30,31
 620 -375 620 -375 446.5 -279.5 c 128,-1,32
 273 -184 273 -184 178 -9 c 128,-1,33
 83 166 83 166 83 376 c 0,34,35
 83 600 83 600 188 794 c 128,-1,36
 293 988 293 988 482.5 1097 c 128,-1,37
 672 1206 672 1206 884 1206 c 0,38,39
 1060 1206 1060 1206 1201 1133.5 c 128,-1,40
 1342 1061 1342 1061 1416 921.5 c 128,-1,41
 1490 782 1490 782 1490 625 c 0,42,43
 1490 470 1490 470 1420.5 317.5 c 128,-1,44
 1351 165 1351 165 1244.5 95.5 c 128,-1,45
 1138 26 1138 26 1022 26 c 0,46,47
 957 26 957 26 925 56.5 c 128,-1,48
 893 87 893 87 893 142 c 0,49,50
 893 190 893 190 907 267 c 1,51,52
 782 116 782 116 706.5 70.5 c 128,-1,53
 631 25 631 25 573 25 c 0,54,55
 513 25 513 25 466.5 79.5 c 128,-1,56
 420 134 420 134 420 223 c 0,57,58
 420 346 420 346 500 498.5 c 128,-1,59
 580 651 580 651 712 747 c 0,60,61
 810 817 810 817 887 817 c 0,62,63
 943 817 943 817 981.5 788 c 128,-1,64
 1020 759 1020 759 1032 701 c 1,65,-1
 1061 794 l 1,66,-1
 1194 812 l 1,0,-1
897 778 m 0,67,68
 833 778 833 778 767 710 c 0,69,70
 672 613 672 613 604 445 c 0,71,72
 553 323 553 323 553 248 c 0,73,74
 553 195 553 195 583.5 161.5 c 128,-1,75
 614 128 614 128 651 128 c 0,76,77
 701 128 701 128 755 165 c 128,-1,78
 809 202 809 202 868 280 c 128,-1,79
 927 358 927 358 955 436 c 0,80,81
 1003 570 1003 570 1003 655 c 0,82,83
 1003 711 1003 711 971.5 744.5 c 128,-1,84
 940 778 940 778 897 778 c 0,67,68
EndSplineSet
EndChar

StartChar: A
Encoding: 65 65 490
Width: 1254
Flags: W
LayerCount: 2
Fore
SplineSet
795 385 m 1,0,-1
 350 385 l 1,1,-1
 271 204 l 2,2,3
 243 137 243 137 243 104 c 0,4,5
 243 77 243 77 268 57 c 128,-1,6
 293 37 293 37 375 32 c 1,7,-1
 375 0 l 1,8,-1
 14 0 l 1,9,-1
 14 32 l 1,10,11
 86 45 86 45 107 65 c 0,12,13
 151 105 151 105 202 230 c 2,14,-1
 607 1177 l 1,15,-1
 637 1177 l 1,16,-1
 1037 219 l 2,17,18
 1085 104 1085 104 1124.5 70 c 128,-1,19
 1164 36 1164 36 1235 32 c 1,20,-1
 1235 0 l 1,21,-1
 781 0 l 1,22,-1
 781 32 l 1,23,24
 850 35 850 35 874 54.5 c 128,-1,25
 898 74 898 74 898 102 c 0,26,27
 898 139 898 139 864 219 c 2,28,-1
 795 385 l 1,0,-1
771 447 m 1,29,-1
 576 913 l 1,30,-1
 375 447 l 1,31,-1
 771 447 l 1,29,-1
EndSplineSet
EndChar

StartChar: B
Encoding: 66 66 491
Width: 1159
Flags: W
LayerCount: 2
Fore
SplineSet
802 587 m 1,0,1
 922 562 922 562 982 506 c 0,2,3
 1063 427 1063 427 1063 315 c 0,4,5
 1063 229 1063 229 1009 150.5 c 128,-1,6
 955 72 955 72 860 36 c 128,-1,7
 765 0 765 0 571 0 c 2,8,-1
 29 0 l 1,9,-1
 29 32 l 1,10,-1
 72 32 l 2,11,12
 144 32 144 32 176 77 c 0,13,14
 195 107 195 107 195 204 c 2,15,-1
 195 947 l 2,16,17
 195 1054 195 1054 171 1081 c 0,18,19
 138 1118 138 1118 72 1118 c 2,20,-1
 29 1118 l 1,21,-1
 29 1150 l 1,22,-1
 526 1150 l 2,23,24
 665 1150 665 1150 748 1130 c 0,25,26
 876 1099 876 1099 943 1021 c 128,-1,27
 1010 943 1010 943 1010 843 c 0,28,29
 1010 757 1010 757 957.5 688.5 c 128,-1,30
 905 620 905 620 802 587 c 1,0,1
358 633 m 1,31,32
 389 626 389 626 429.5 623.5 c 128,-1,33
 470 621 470 621 518 621 c 0,34,35
 642 621 642 621 704 647.5 c 128,-1,36
 766 674 766 674 799.5 729 c 128,-1,37
 833 784 833 784 833 850 c 0,38,39
 833 951 833 951 750.5 1022 c 128,-1,40
 668 1093 668 1093 511 1093 c 0,41,42
 426 1093 426 1093 358 1075 c 1,43,-1
 358 633 l 1,31,32
358 83 m 1,44,45
 456 60 456 60 552 60 c 0,46,47
 706 60 706 60 786.5 129 c 128,-1,48
 867 198 867 198 867 300 c 0,49,50
 867 367 867 367 830.5 429 c 128,-1,51
 794 491 794 491 712 526.5 c 128,-1,52
 630 562 630 562 508 562 c 0,53,54
 456 562 456 562 418.5 560.5 c 128,-1,55
 381 559 381 559 358 554 c 1,56,-1
 358 83 l 1,44,45
EndSplineSet
EndChar

StartChar: C
Encoding: 67 67 492
Width: 1159
Flags: W
LayerCount: 2
Fore
SplineSet
1045 1177 m 1,0,-1
 1072 785 l 1,1,-1
 1045 785 l 1,2,3
 993 960 993 960 895.5 1037.5 c 128,-1,4
 798 1115 798 1115 661 1115 c 0,5,6
 547 1115 547 1115 455 1057 c 128,-1,7
 363 999 363 999 310 871.5 c 128,-1,8
 257 744 257 744 257 555 c 0,9,10
 257 400 257 400 306.5 285.5 c 128,-1,11
 356 171 356 171 457 110 c 128,-1,12
 558 49 558 49 686 49 c 0,13,14
 798 49 798 49 883.5 96.5 c 128,-1,15
 969 144 969 144 1072 286 c 1,16,-1
 1098 269 l 1,17,18
 1011 117 1011 117 896 45 c 128,-1,19
 781 -27 781 -27 622 -27 c 0,20,21
 337 -27 337 -27 180 185 c 0,22,23
 63 343 63 343 63 558 c 0,24,25
 63 729 63 729 140 873.5 c 128,-1,26
 217 1018 217 1018 352.5 1097.5 c 128,-1,27
 488 1177 488 1177 648 1177 c 0,28,29
 773 1177 773 1177 894 1115 c 0,30,31
 930 1096 930 1096 944 1096 c 0,32,33
 968 1096 968 1096 985 1113 c 0,34,35
 1007 1135 1007 1135 1015 1177 c 1,36,-1
 1045 1177 l 1,0,-1
EndSplineSet
EndChar

StartChar: D
Encoding: 68 68 493
Width: 1254
Flags: W
LayerCount: 2
Fore
SplineSet
30 0 m 1,0,-1
 30 32 l 1,1,-1
 73 32 l 2,2,3
 146 32 146 32 176 78 c 0,4,5
 195 106 195 106 195 204 c 2,6,-1
 195 947 l 2,7,8
 195 1054 195 1054 172 1081 c 0,9,10
 138 1118 138 1118 73 1118 c 2,11,-1
 30 1118 l 1,12,-1
 30 1150 l 1,13,-1
 498 1150 l 2,14,15
 756 1150 756 1150 890 1091 c 128,-1,16
 1024 1032 1024 1032 1106 896 c 128,-1,17
 1188 760 1188 760 1188 581 c 0,18,19
 1188 341 1188 341 1042 180 c 0,20,21
 879 0 879 0 544 0 c 2,22,-1
 30 0 l 1,0,-1
358 83 m 1,23,24
 465 59 465 59 538 59 c 0,25,26
 736 59 736 59 865 197.5 c 128,-1,27
 994 336 994 336 994 572 c 0,28,29
 994 811 994 811 865 948 c 128,-1,30
 736 1085 736 1085 532 1085 c 0,31,32
 456 1085 456 1085 358 1061 c 1,33,-1
 358 83 l 1,23,24
EndSplineSet
EndChar

StartChar: E
Encoding: 69 69 494
Width: 1061
Flags: W
LayerCount: 2
Fore
SplineSet
363 1088 m 1,0,-1
 363 633 l 1,1,-1
 616 633 l 2,2,3
 714 633 714 633 747 662 c 0,4,5
 791 702 791 702 796 799 c 1,6,-1
 828 799 l 1,7,-1
 828 400 l 1,8,-1
 796 400 l 1,9,10
 784 483 784 483 773 507 c 0,11,12
 757 536 757 536 722.5 553 c 128,-1,13
 688 570 688 570 616 570 c 2,14,-1
 363 570 l 1,15,-1
 363 192 l 2,16,17
 363 116 363 116 369.5 99.5 c 128,-1,18
 376 83 376 83 393 73 c 128,-1,19
 410 63 410 63 458 63 c 2,20,-1
 653 63 l 2,21,22
 750 63 750 63 794 76.5 c 128,-1,23
 838 90 838 90 880 129 c 0,24,25
 932 182 932 182 987 288 c 1,26,-1
 1021 288 l 1,27,-1
 922 0 l 1,28,-1
 36 0 l 1,29,-1
 36 32 l 1,30,-1
 76 32 l 2,31,32
 117 32 117 32 154 51 c 0,33,34
 180 65 180 65 190 92 c 128,-1,35
 200 119 200 119 200 202 c 2,36,-1
 200 950 l 2,37,38
 200 1059 200 1059 178 1084 c 0,39,40
 147 1118 147 1118 76 1118 c 2,41,-1
 36 1118 l 1,42,-1
 36 1150 l 1,43,-1
 922 1150 l 1,44,-1
 935 898 l 1,45,-1
 901 898 l 1,46,47
 884 989 884 989 862.5 1023 c 128,-1,48
 841 1057 841 1057 798 1075 c 0,49,50
 764 1088 764 1088 678 1088 c 2,51,-1
 363 1088 l 1,0,-1
EndSplineSet
EndChar

StartChar: F
Encoding: 70 70 495
Width: 966
Flags: W
LayerCount: 2
Fore
SplineSet
355 1088 m 1,0,-1
 355 635 l 1,1,-1
 565 635 l 2,2,3
 637 635 637 635 670.5 667 c 128,-1,4
 704 699 704 699 714 793 c 1,5,-1
 746 793 l 1,6,-1
 746 404 l 1,7,-1
 714 404 l 1,8,9
 714 471 714 471 697.5 502 c 128,-1,10
 681 533 681 533 651.5 549 c 128,-1,11
 622 565 622 565 565 565 c 2,12,-1
 355 565 l 1,13,-1
 355 204 l 2,14,15
 355 117 355 117 367 88 c 0,16,17
 375 67 375 67 402 52 c 0,18,19
 439 32 439 32 480 32 c 2,20,-1
 522 32 l 1,21,-1
 522 0 l 1,22,-1
 28 0 l 1,23,-1
 28 32 l 1,24,-1
 69 32 l 2,25,26
 140 32 140 32 172 73 c 0,27,28
 193 100 193 100 193 204 c 2,29,-1
 193 947 l 2,30,31
 193 1033 193 1033 181 1062 c 0,32,33
 173 1083 173 1083 146 1098 c 0,34,35
 110 1118 110 1118 69 1118 c 2,36,-1
 28 1118 l 1,37,-1
 28 1150 l 1,38,-1
 884 1150 l 1,39,-1
 895 897 l 1,40,-1
 865 897 l 1,41,42
 843 977 843 977 813.5 1015.5 c 128,-1,43
 784 1054 784 1054 741.5 1071 c 128,-1,44
 699 1088 699 1088 608 1088 c 2,45,-1
 355 1088 l 1,0,-1
EndSplineSet
EndChar

StartChar: G
Encoding: 71 71 496
Width: 1254
Flags: W
LayerCount: 2
Fore
SplineSet
1066 1177 m 1,0,-1
 1096 813 l 1,1,-1
 1066 813 l 1,2,3
 1021 949 1021 949 950 1018 c 0,4,5
 847 1117 847 1117 686 1117 c 0,6,7
 466 1117 466 1117 352 943 c 0,8,9
 257 796 257 796 257 594 c 0,10,11
 257 429 257 429 320.5 293.5 c 128,-1,12
 384 158 384 158 486.5 95 c 128,-1,13
 589 32 589 32 697 32 c 0,14,15
 761 32 761 32 820.5 48 c 128,-1,16
 880 64 880 64 935 95 c 1,17,-1
 935 427 l 2,18,19
 935 514 935 514 922 540.5 c 128,-1,20
 909 567 909 567 881.5 581.5 c 128,-1,21
 854 596 854 596 784 596 c 1,22,-1
 784 628 l 1,23,-1
 1230 628 l 1,24,-1
 1230 596 l 1,25,-1
 1208 596 l 2,26,27
 1143 596 1143 596 1117 551 c 0,28,29
 1100 519 1100 519 1100 427 c 2,30,-1
 1100 75 l 1,31,32
 1003 23 1003 23 908 -2 c 128,-1,33
 813 -27 813 -27 697 -27 c 0,34,35
 364 -27 364 -27 191 188 c 0,36,37
 61 348 61 348 61 558 c 0,38,39
 61 709 61 709 134 848 c 0,40,41
 220 1013 220 1013 371 1102 c 0,42,43
 498 1177 498 1177 670 1177 c 0,44,45
 732 1177 732 1177 783.5 1166 c 128,-1,46
 835 1155 835 1155 930 1121 c 0,47,48
 977 1103 977 1103 993 1103 c 256,49,50
 1009 1103 1009 1103 1020.5 1118 c 128,-1,51
 1032 1133 1032 1133 1035 1177 c 1,52,-1
 1066 1177 l 1,0,-1
EndSplineSet
EndChar

StartChar: H
Encoding: 72 72 497
Width: 1254
Flags: W
LayerCount: 2
Fore
SplineSet
357 617 m 1,0,-1
 891 617 l 1,1,-1
 891 946 l 2,2,3
 891 1035 891 1035 880 1062 c 0,4,5
 871 1083 871 1083 845 1098 c 0,6,7
 808 1118 808 1118 767 1118 c 2,8,-1
 727 1118 l 1,9,-1
 727 1150 l 1,10,-1
 1219 1150 l 1,11,-1
 1219 1118 l 1,12,-1
 1178 1118 l 2,13,14
 1138 1118 1138 1118 1100 1099 c 0,15,16
 1074 1084 1074 1084 1063 1058 c 0,17,18
 1054 1029 1054 1029 1054 946 c 2,19,-1
 1054 204 l 2,20,21
 1054 116 1054 116 1065 88 c 0,22,23
 1075 66 1075 66 1100 52 c 0,24,25
 1136 32 1136 32 1178 32 c 2,26,-1
 1219 32 l 1,27,-1
 1219 0 l 1,28,-1
 727 0 l 1,29,-1
 727 32 l 1,30,-1
 767 32 l 2,31,32
 838 32 838 32 870 73 c 0,33,34
 891 100 891 100 891 204 c 2,35,-1
 891 553 l 1,36,-1
 357 553 l 1,37,-1
 357 204 l 2,38,39
 357 116 357 116 368 88 c 0,40,41
 376 67 376 67 404 52 c 0,42,43
 440 32 440 32 481 32 c 2,44,-1
 523 32 l 1,45,-1
 523 0 l 1,46,-1
 30 0 l 1,47,-1
 30 32 l 1,48,-1
 70 32 l 2,49,50
 142 32 142 32 174 73 c 0,51,52
 194 100 194 100 194 204 c 2,53,-1
 194 946 l 2,54,55
 194 1035 194 1035 183 1062 c 0,56,57
 174 1083 174 1083 148 1098 c 0,58,59
 111 1118 111 1118 70 1118 c 2,60,-1
 30 1118 l 1,61,-1
 30 1150 l 1,62,-1
 523 1150 l 1,63,-1
 523 1118 l 1,64,-1
 481 1118 l 2,65,66
 441 1118 441 1118 404 1099 c 0,67,68
 377 1085 377 1085 367 1058 c 0,69,70
 357 1030 357 1030 357 946 c 2,71,-1
 357 617 l 1,0,-1
EndSplineSet
EndChar

StartChar: I
Encoding: 73 73 498
Width: 579
Flags: W
LayerCount: 2
Fore
SplineSet
536 32 m 1,0,-1
 536 0 l 1,1,-1
 43 0 l 1,2,-1
 43 32 l 1,3,-1
 84 32 l 2,4,5
 155 32 155 32 188 73 c 0,6,7
 208 100 208 100 208 204 c 2,8,-1
 208 947 l 2,9,10
 208 1033 208 1033 197 1062 c 0,11,12
 189 1083 189 1083 162 1098 c 0,13,14
 125 1118 125 1118 84 1118 c 2,15,-1
 43 1118 l 1,16,-1
 43 1150 l 1,17,-1
 536 1150 l 1,18,-1
 536 1118 l 1,19,-1
 494 1118 l 2,20,21
 424 1118 424 1118 392 1077 c 0,22,23
 371 1049 371 1049 371 947 c 2,24,-1
 371 204 l 2,25,26
 371 117 371 117 382 88 c 0,27,28
 390 67 390 67 418 52 c 0,29,30
 454 32 454 32 494 32 c 2,31,-1
 536 32 l 1,0,-1
EndSplineSet
EndChar

StartChar: J
Encoding: 74 74 499
Width: 676
Flags: W
LayerCount: 2
Fore
SplineSet
173 1118 m 1,0,-1
 173 1150 l 1,1,-1
 666 1150 l 1,2,-1
 666 1118 l 1,3,-1
 624 1118 l 2,4,5
 553 1118 553 1118 522 1077 c 0,6,7
 501 1049 501 1049 501 947 c 2,8,-1
 501 384 l 2,9,10
 501 254 501 254 472.5 173.5 c 128,-1,11
 444 93 444 93 374.5 33 c 128,-1,12
 305 -27 305 -27 207 -27 c 0,13,14
 127 -27 127 -27 81.5 13 c 128,-1,15
 36 53 36 53 36 104 c 0,16,17
 36 145 36 145 57 166 c 0,18,19
 85 193 85 193 122 193 c 0,20,21
 149 193 149 193 171 175 c 128,-1,22
 193 157 193 157 226 79 c 0,23,24
 245 34 245 34 276 34 c 0,25,26
 299 34 299 34 318.5 62 c 128,-1,27
 338 90 338 90 338 161 c 2,28,-1
 338 947 l 2,29,30
 338 1033 338 1033 328 1062 c 0,31,32
 319 1083 319 1083 291 1098 c 0,33,34
 255 1118 255 1118 214 1118 c 2,35,-1
 173 1118 l 1,0,-1
EndSplineSet
EndChar

StartChar: K
Encoding: 75 75 500
Width: 1254
Flags: W
LayerCount: 2
Fore
SplineSet
519 638 m 1,0,-1
 943 216 l 2,1,2
 1047 112 1047 112 1121 74 c 128,-1,3
 1195 36 1195 36 1269 32 c 1,4,-1
 1269 0 l 1,5,-1
 722 0 l 1,6,-1
 722 32 l 1,7,8
 771 32 771 32 792.5 48.5 c 128,-1,9
 814 65 814 65 814 85 c 256,10,11
 814 105 814 105 806 121.5 c 128,-1,12
 798 138 798 138 753 181 c 2,13,-1
 356 575 l 1,14,-1
 356 204 l 2,15,16
 356 117 356 117 367 88 c 0,17,18
 375 67 375 67 403 52 c 0,19,20
 439 32 439 32 480 32 c 2,21,-1
 519 32 l 1,22,-1
 519 0 l 1,23,-1
 29 0 l 1,24,-1
 29 32 l 1,25,-1
 70 32 l 2,26,27
 141 32 141 32 173 73 c 0,28,29
 193 100 193 100 193 204 c 2,30,-1
 193 947 l 2,31,32
 193 1033 193 1033 182 1062 c 0,33,34
 174 1083 174 1083 147 1098 c 0,35,36
 110 1118 110 1118 70 1118 c 2,37,-1
 29 1118 l 1,38,-1
 29 1150 l 1,39,-1
 519 1150 l 1,40,-1
 519 1118 l 1,41,-1
 480 1118 l 2,42,43
 440 1118 440 1118 403 1099 c 0,44,45
 376 1085 376 1085 366 1058 c 128,-1,46
 356 1031 356 1031 356 947 c 2,47,-1
 356 595 l 1,48,49
 373 611 373 611 473 702 c 0,50,51
 724 933 724 933 777 1010 c 0,52,53
 799 1044 799 1044 799 1070 c 0,54,55
 799 1089 799 1089 781.5 1103.5 c 128,-1,56
 764 1118 764 1118 722 1118 c 2,57,-1
 695 1118 l 1,58,-1
 695 1150 l 1,59,-1
 1117 1150 l 1,60,-1
 1117 1118 l 1,61,62
 1080 1117 1080 1117 1050 1108 c 128,-1,63
 1020 1099 1020 1099 975.5 1072 c 128,-1,64
 931 1045 931 1045 867 986 c 0,65,66
 848 969 848 969 694 812 c 2,67,-1
 519 638 l 1,0,-1
EndSplineSet
EndChar

StartChar: L
Encoding: 76 76 501
Width: 1061
Flags: W
LayerCount: 2
Fore
SplineSet
995 318 m 1,0,-1
 1024 312 l 1,1,-1
 925 0 l 1,2,-1
 35 0 l 1,3,-1
 35 32 l 1,4,-1
 78 32 l 2,5,6
 151 32 151 32 182 78 c 0,7,8
 200 106 200 106 200 205 c 2,9,-1
 200 947 l 2,10,11
 200 1054 200 1054 176 1081 c 0,12,13
 143 1118 143 1118 78 1118 c 2,14,-1
 35 1118 l 1,15,-1
 35 1150 l 1,16,-1
 555 1150 l 1,17,-1
 555 1118 l 1,18,19
 464 1119 464 1119 427 1101 c 128,-1,20
 390 1083 390 1083 376.5 1056 c 128,-1,21
 363 1029 363 1029 363 926 c 2,22,-1
 363 205 l 2,23,24
 363 134 363 134 376 108 c 0,25,26
 387 90 387 90 408 81.5 c 128,-1,27
 429 73 429 73 541 73 c 2,28,-1
 624 73 l 2,29,30
 757 73 757 73 810 92.5 c 128,-1,31
 863 112 863 112 907.5 161.5 c 128,-1,32
 952 211 952 211 995 318 c 1,0,-1
EndSplineSet
EndChar

StartChar: M
Encoding: 77 77 502
Width: 1544
Flags: W
LayerCount: 2
Fore
SplineSet
710 0 m 1,0,-1
 266 968 l 1,1,-1
 266 199 l 2,2,3
 266 93 266 93 289 67 c 0,4,5
 320 32 320 32 388 32 c 2,6,-1
 429 32 l 1,7,-1
 429 0 l 1,8,-1
 29 0 l 1,9,-1
 29 32 l 1,10,-1
 70 32 l 2,11,12
 142 32 142 32 173 75 c 0,13,14
 192 103 192 103 192 199 c 2,15,-1
 192 951 l 2,16,17
 192 1027 192 1027 175 1061 c 0,18,19
 163 1085 163 1085 131.5 1101.5 c 128,-1,20
 100 1118 100 1118 29 1118 c 1,21,-1
 29 1150 l 1,22,-1
 354 1150 l 1,23,-1
 772 250 l 1,24,-1
 1182 1150 l 1,25,-1
 1507 1150 l 1,26,-1
 1507 1118 l 1,27,-1
 1468 1118 l 2,28,29
 1394 1118 1394 1118 1363 1075 c 0,30,31
 1345 1047 1345 1047 1345 951 c 2,32,-1
 1345 199 l 2,33,34
 1345 93 1345 93 1368 67 c 0,35,36
 1400 32 1400 32 1468 32 c 2,37,-1
 1507 32 l 1,38,-1
 1507 0 l 1,39,-1
 1020 0 l 1,40,-1
 1020 32 l 1,41,-1
 1060 32 l 2,42,43
 1134 32 1134 32 1164 75 c 0,44,45
 1182 103 1182 103 1182 199 c 2,46,-1
 1182 968 l 1,47,-1
 739 0 l 1,48,-1
 710 0 l 1,0,-1
EndSplineSet
EndChar

StartChar: N
Encoding: 78 78 503
Width: 1254
Flags: W
LayerCount: 2
Fore
SplineSet
-23 1150 m 1,0,-1
 289 1150 l 1,1,-1
 992 287 l 1,2,-1
 992 951 l 2,3,4
 992 1057 992 1057 969 1083 c 0,5,6
 937 1118 937 1118 869 1118 c 2,7,-1
 829 1118 l 1,8,-1
 829 1150 l 1,9,-1
 1230 1150 l 1,10,-1
 1230 1118 l 1,11,-1
 1189 1118 l 2,12,13
 1116 1118 1116 1118 1085 1075 c 0,14,15
 1066 1047 1066 1047 1066 951 c 2,16,-1
 1066 -19 l 1,17,-1
 1037 -19 l 1,18,-1
 278 907 l 1,19,-1
 278 199 l 2,20,21
 278 93 278 93 301 67 c 0,22,23
 333 32 333 32 401 32 c 2,24,-1
 441 32 l 1,25,-1
 441 0 l 1,26,-1
 40 0 l 1,27,-1
 40 32 l 1,28,-1
 81 32 l 2,29,30
 155 32 155 32 184 75 c 0,31,32
 204 103 204 103 204 199 c 2,33,-1
 204 999 l 1,34,35
 154 1058 154 1058 128 1076.5 c 128,-1,36
 102 1095 102 1095 52 1111 c 0,37,38
 28 1118 28 1118 -23 1118 c 1,39,-1
 -23 1150 l 1,0,-1
EndSplineSet
EndChar

StartChar: O
Encoding: 79 79 504
Width: 1254
Flags: W
LayerCount: 2
Fore
SplineSet
635 1177 m 0,0,1
 859 1177 859 1177 1023 1006.5 c 128,-1,2
 1187 836 1187 836 1187 582 c 0,3,4
 1187 320 1187 320 1021.5 146.5 c 128,-1,5
 856 -27 856 -27 621 -27 c 0,6,7
 384 -27 384 -27 222.5 142.5 c 128,-1,8
 61 312 61 312 61 579 c 0,9,10
 61 853 61 853 248 1026 c 0,11,12
 409 1177 409 1177 635 1177 c 0,0,1
619 1114 m 0,13,14
 464 1114 464 1114 371 1000 c 0,15,16
 255 858 255 858 255 583 c 0,17,18
 255 301 255 301 375 149 c 0,19,20
 469 34 469 34 620 34 c 0,21,22
 782 34 782 34 887.5 160 c 128,-1,23
 993 286 993 286 993 559 c 0,24,25
 993 854 993 854 877 999 c 0,26,27
 783 1114 783 1114 619 1114 c 0,13,14
EndSplineSet
EndChar

StartChar: P
Encoding: 80 80 505
Width: 966
Flags: W
LayerCount: 2
Fore
SplineSet
356 538 m 1,0,-1
 356 204 l 2,1,2
 356 95 356 95 379 69 c 0,3,4
 412 32 412 32 477 32 c 2,5,-1
 522 32 l 1,6,-1
 522 0 l 1,7,-1
 29 0 l 1,8,-1
 29 32 l 1,9,-1
 72 32 l 2,10,11
 145 32 145 32 176 78 c 0,12,13
 193 105 193 105 193 204 c 2,14,-1
 193 947 l 2,15,16
 193 1055 193 1055 171 1081 c 0,17,18
 138 1118 138 1118 72 1118 c 2,19,-1
 29 1118 l 1,20,-1
 29 1150 l 1,21,-1
 450 1150 l 2,22,23
 604 1150 604 1150 693 1118 c 128,-1,24
 782 1086 782 1086 843.5 1010.5 c 128,-1,25
 905 935 905 935 905 832 c 0,26,27
 905 691 905 691 812 603 c 128,-1,28
 719 515 719 515 549 515 c 0,29,30
 508 515 508 515 459.5 521 c 128,-1,31
 411 527 411 527 356 538 c 1,0,-1
356 587 m 1,32,33
 401 579 401 579 436 574.5 c 128,-1,34
 471 570 471 570 495 570 c 0,35,36
 583 570 583 570 647 638 c 128,-1,37
 711 706 711 706 711 815 c 0,38,39
 711 889 711 889 681 953.5 c 128,-1,40
 651 1018 651 1018 594.5 1049.5 c 128,-1,41
 538 1081 538 1081 467 1081 c 0,42,43
 424 1081 424 1081 356 1065 c 1,44,-1
 356 587 l 1,32,33
EndSplineSet
EndChar

StartChar: Q
Encoding: 81 81 506
Width: 1254
Flags: W
LayerCount: 2
Fore
SplineSet
765 -13 m 1,0,1
 851 -162 851 -162 952 -232.5 c 128,-1,2
 1053 -303 1053 -303 1181 -313 c 1,3,-1
 1181 -340 l 1,4,5
 1063 -336 1063 -336 930 -293 c 128,-1,6
 797 -250 797 -250 678 -174.5 c 128,-1,7
 559 -99 559 -99 473 -13 c 1,8,9
 350 36 350 36 279 91 c 0,10,11
 176 174 176 174 118.5 293.5 c 128,-1,12
 61 413 61 413 61 578 c 0,13,14
 61 835 61 835 228 1006 c 128,-1,15
 395 1177 395 1177 633 1177 c 0,16,17
 859 1177 859 1177 1023.5 1005.5 c 128,-1,18
 1188 834 1188 834 1188 575 c 0,19,20
 1188 363 1188 363 1070.5 204 c 128,-1,21
 953 45 953 45 765 -13 c 1,0,1
622 1111 m 0,22,23
 469 1111 469 1111 374 1001 c 0,24,25
 255 863 255 863 255 578 c 0,26,27
 255 299 255 299 375 147 c 0,28,29
 469 32 469 32 622 32 c 0,30,31
 782 32 782 32 880 147 c 0,32,33
 994 285 994 285 994 553 c 0,34,35
 994 759 994 759 931 900 c 0,36,37
 883 1008 883 1008 803 1059.5 c 128,-1,38
 723 1111 723 1111 622 1111 c 0,22,23
EndSplineSet
EndChar

StartChar: R
Encoding: 82 82 507
Width: 1159
Flags: W
LayerCount: 2
Fore
SplineSet
1173 0 m 1,0,-1
 867 0 l 1,1,-1
 477 537 l 1,2,3
 435 536 435 536 407 536 c 0,4,5
 396 536 396 536 383.5 536 c 128,-1,6
 371 536 371 536 357 537 c 1,7,-1
 357 204 l 2,8,9
 357 95 357 95 381 69 c 0,10,11
 413 32 413 32 477 32 c 2,12,-1
 523 32 l 1,13,-1
 523 0 l 1,14,-1
 30 0 l 1,15,-1
 30 32 l 1,16,-1
 73 32 l 2,17,18
 146 32 146 32 177 78 c 0,19,20
 195 105 195 105 195 204 c 2,21,-1
 195 947 l 2,22,23
 195 1055 195 1055 172 1081 c 0,24,25
 138 1118 138 1118 73 1118 c 2,26,-1
 30 1118 l 1,27,-1
 30 1150 l 1,28,-1
 448 1150 l 2,29,30
 632 1150 632 1150 719 1123 c 128,-1,31
 806 1096 806 1096 866 1024.5 c 128,-1,32
 926 953 926 953 926 854 c 0,33,34
 926 748 926 748 857.5 669.5 c 128,-1,35
 789 591 789 591 643 560 c 1,36,-1
 881 230 l 2,37,38
 962 117 962 117 1020.5 79 c 128,-1,39
 1079 41 1079 41 1173 32 c 1,40,-1
 1173 0 l 1,0,-1
357 591 m 1,41,42
 373 591 373 591 384.5 590.5 c 128,-1,43
 396 590 396 590 405 590 c 0,44,45
 569 590 569 590 652.5 661 c 128,-1,46
 736 732 736 732 736 843 c 0,47,48
 736 951 736 951 668.5 1018 c 128,-1,49
 601 1085 601 1085 490 1085 c 0,50,51
 441 1085 441 1085 357 1070 c 1,52,-1
 357 591 l 1,41,42
EndSplineSet
EndChar

StartChar: S
Encoding: 83 83 508
Width: 966
Flags: W
LayerCount: 2
Fore
SplineSet
796 1177 m 1,0,-1
 796 778 l 1,1,-1
 765 778 l 1,2,3
 749 893 749 893 710 960.5 c 128,-1,4
 671 1028 671 1028 598 1068.5 c 128,-1,5
 525 1109 525 1109 447 1109 c 0,6,7
 358 1109 358 1109 301 1055 c 128,-1,8
 244 1001 244 1001 244 932 c 0,9,10
 244 880 244 880 280 836 c 0,11,12
 333 773 333 773 530 667 c 0,13,14
 691 580 691 580 750 534 c 128,-1,15
 809 488 809 488 840.5 425.5 c 128,-1,16
 872 363 872 363 872 294 c 0,17,18
 872 163 872 163 771 68 c 128,-1,19
 670 -27 670 -27 511 -27 c 0,20,21
 460 -27 460 -27 417 -19 c 0,22,23
 390 -15 390 -15 307.5 12 c 128,-1,24
 225 39 225 39 202 39 c 0,25,26
 181 39 181 39 169 26.5 c 128,-1,27
 157 14 157 14 151 -27 c 1,28,-1
 120 -27 l 1,29,-1
 120 368 l 1,30,-1
 151 368 l 1,31,32
 173 244 173 244 210.5 182.5 c 128,-1,33
 248 121 248 121 324.5 80.5 c 128,-1,34
 401 40 401 40 493 40 c 0,35,36
 599 40 599 40 660.5 96 c 128,-1,37
 722 152 722 152 722 228 c 0,38,39
 722 270 722 270 698.5 313.5 c 128,-1,40
 675 357 675 357 625 394 c 0,41,42
 593 420 593 420 445.5 502.5 c 128,-1,43
 298 585 298 585 235.5 634.5 c 128,-1,44
 173 684 173 684 140.5 743 c 128,-1,45
 108 802 108 802 108 873 c 0,46,47
 108 997 108 997 203.5 1087 c 128,-1,48
 299 1177 299 1177 445 1177 c 0,49,50
 536 1177 536 1177 639 1131 c 0,51,52
 687 1110 687 1110 706 1110 c 0,53,54
 728 1110 728 1110 742.5 1123 c 128,-1,55
 757 1136 757 1136 765 1177 c 1,56,-1
 796 1177 l 1,0,-1
EndSplineSet
EndChar

StartChar: T
Encoding: 84 84 509
Width: 1061
Flags: W
LayerCount: 2
Fore
SplineSet
1005 1150 m 1,0,-1
 1018 880 l 1,1,-1
 986 880 l 1,2,3
 976 952 976 952 960 982 c 0,4,5
 934 1031 934 1031 890 1054.5 c 128,-1,6
 846 1078 846 1078 775 1078 c 2,7,-1
 613 1078 l 1,8,-1
 613 199 l 2,9,10
 613 93 613 93 636 67 c 0,11,12
 668 32 668 32 736 32 c 2,13,-1
 775 32 l 1,14,-1
 775 0 l 1,15,-1
 287 0 l 1,16,-1
 287 32 l 1,17,-1
 329 32 l 2,18,19
 401 32 401 32 431 75 c 0,20,21
 450 103 450 103 450 199 c 2,22,-1
 450 1078 l 1,23,-1
 312 1078 l 2,24,25
 231 1078 231 1078 197 1066 c 0,26,27
 154 1049 154 1049 122.5 1003.5 c 128,-1,28
 91 958 91 958 85 880 c 1,29,-1
 53 880 l 1,30,-1
 66 1150 l 1,31,-1
 1005 1150 l 1,0,-1
EndSplineSet
EndChar

StartChar: U
Encoding: 85 85 510
Width: 1254
Flags: W
LayerCount: 2
Fore
SplineSet
829 1118 m 1,0,-1
 829 1150 l 1,1,-1
 1236 1150 l 1,2,-1
 1236 1118 l 1,3,-1
 1192 1118 l 2,4,5
 1125 1118 1125 1118 1088 1062 c 0,6,7
 1071 1036 1071 1036 1071 939 c 2,8,-1
 1071 473 l 2,9,10
 1071 300 1071 300 1036.5 204.5 c 128,-1,11
 1002 109 1002 109 901 40.5 c 128,-1,12
 800 -28 800 -28 628 -28 c 0,13,14
 439 -28 439 -28 341.5 38 c 128,-1,15
 244 104 244 104 204 214 c 0,16,17
 176 289 176 289 176 497 c 2,18,-1
 176 947 l 2,19,20
 176 1053 176 1053 147 1085.5 c 128,-1,21
 118 1118 118 1118 53 1118 c 2,22,-1
 10 1118 l 1,23,-1
 10 1150 l 1,24,-1
 507 1150 l 1,25,-1
 507 1118 l 1,26,-1
 462 1118 l 2,27,28
 391 1118 391 1118 360 1074 c 0,29,30
 339 1043 339 1043 339 947 c 2,31,-1
 339 445 l 2,32,33
 339 378 339 378 351.5 292 c 128,-1,34
 364 206 364 206 396 157 c 128,-1,35
 428 108 428 108 488.5 77 c 128,-1,36
 549 46 549 46 638 46 c 0,37,38
 750 46 750 46 839.5 95 c 128,-1,39
 929 144 929 144 961.5 221 c 128,-1,40
 994 298 994 298 994 481 c 2,41,-1
 994 947 l 2,42,43
 994 1054 994 1054 970 1081 c 0,44,45
 937 1118 937 1118 871 1118 c 2,46,-1
 829 1118 l 1,0,-1
EndSplineSet
EndChar

StartChar: V
Encoding: 86 86 511
Width: 1254
Flags: W
LayerCount: 2
Fore
SplineSet
1233 1150 m 1,0,-1
 1233 1118 l 1,1,2
 1172 1108 1172 1108 1141 1079 c 0,3,4
 1096 1038 1096 1038 1061 952 c 2,5,-1
 659 -27 l 1,6,-1
 629 -27 l 1,7,-1
 197 965 l 2,8,9
 164 1041 164 1041 151 1058 c 0,10,11
 129 1084 129 1084 98.5 1099 c 128,-1,12
 68 1114 68 1114 15 1118 c 1,13,-1
 15 1150 l 1,14,-1
 485 1150 l 1,15,-1
 485 1118 l 1,16,17
 405 1111 405 1111 381.5 1091.5 c 128,-1,18
 358 1072 358 1072 358 1041 c 0,19,20
 358 999 358 999 396 909 c 2,21,-1
 689 235 l 1,22,-1
 960 901 l 2,23,24
 1001 999 1001 999 1001 1037 c 0,25,26
 1001 1062 1001 1062 976.5 1084.5 c 128,-1,27
 952 1107 952 1107 893 1116 c 0,28,29
 888 1117 888 1117 879 1118 c 1,30,-1
 879 1150 l 1,31,-1
 1233 1150 l 1,0,-1
EndSplineSet
EndChar

StartChar: W
Encoding: 87 87 512
Width: 1639
Flags: W
LayerCount: 2
Fore
SplineSet
1626 1150 m 1,0,-1
 1626 1118 l 1,1,2
 1580 1118 1580 1118 1552 1102 c 128,-1,3
 1524 1086 1524 1086 1499 1042 c 0,4,5
 1482 1012 1482 1012 1446 901 c 2,6,-1
 1126 -27 l 1,7,-1
 1092 -27 l 1,8,-1
 829 709 l 1,9,-1
 569 -27 l 1,10,-1
 538 -27 l 1,11,-1
 197 929 l 2,12,13
 159 1036 159 1036 148 1055 c 0,14,15
 131 1088 131 1088 102 1103 c 128,-1,16
 73 1118 73 1118 23 1118 c 1,17,-1
 23 1150 l 1,18,-1
 448 1150 l 1,19,-1
 448 1118 l 1,20,-1
 428 1118 l 2,21,22
 384 1118 384 1118 360 1098 c 128,-1,23
 336 1078 336 1078 336 1049 c 256,24,25
 336 1020 336 1020 373 913 c 2,26,-1
 600 267 l 1,27,-1
 791 816 l 1,28,-1
 757 913 l 1,29,-1
 729 990 l 2,30,31
 711 1032 711 1032 689 1064 c 0,32,33
 678 1080 678 1080 662 1092 c 0,34,35
 641 1107 641 1107 620 1113 c 0,36,37
 604 1118 604 1118 569 1118 c 1,38,-1
 569 1150 l 1,39,-1
 1017 1150 l 1,40,-1
 1017 1118 l 1,41,-1
 986 1118 l 2,42,43
 939 1118 939 1118 917 1098 c 128,-1,44
 895 1078 895 1078 895 1043 c 0,45,46
 895 1000 895 1000 933 893 c 2,47,-1
 1153 267 l 1,48,-1
 1372 901 l 2,49,50
 1410 1006 1410 1006 1410 1046 c 0,51,52
 1410 1066 1410 1066 1397 1083 c 128,-1,53
 1384 1100 1384 1100 1366 1107 c 0,54,55
 1333 1118 1333 1118 1283 1118 c 1,56,-1
 1283 1150 l 1,57,-1
 1626 1150 l 1,0,-1
EndSplineSet
EndChar

StartChar: X
Encoding: 88 88 513
Width: 1254
Flags: W
LayerCount: 2
Fore
SplineSet
709 637 m 1,0,-1
 956 269 l 2,1,2
 1058 117 1058 117 1108 76.5 c 128,-1,3
 1158 36 1158 36 1234 32 c 1,4,-1
 1234 0 l 1,5,-1
 740 0 l 1,6,-1
 740 32 l 1,7,8
 790 32 790 32 813 41 c 0,9,10
 831 49 831 49 842.5 65 c 128,-1,11
 854 81 854 81 854 96 c 0,12,13
 854 117 854 117 846 136 c 0,14,15
 841 151 841 151 799 210 c 2,16,-1
 604 506 l 1,17,-1
 364 197 l 2,18,19
 325 147 325 147 318 130.5 c 128,-1,20
 311 114 311 114 311 96 c 0,21,22
 311 70 311 70 333.5 52 c 128,-1,23
 356 34 356 34 421 32 c 1,24,-1
 421 0 l 1,25,-1
 13 0 l 1,26,-1
 13 32 l 1,27,28
 56 36 56 36 87 49 c 0,29,30
 140 71 140 71 187.5 108.5 c 128,-1,31
 235 146 235 146 296 223 c 2,32,-1
 567 566 l 1,33,-1
 341 897 l 2,34,35
 248 1032 248 1032 184 1074 c 128,-1,36
 120 1116 120 1116 36 1118 c 1,37,-1
 36 1150 l 1,38,-1
 567 1150 l 1,39,-1
 567 1118 l 1,40,41
 499 1116 499 1116 474 1096.5 c 128,-1,42
 449 1077 449 1077 449 1054 c 0,43,44
 449 1022 449 1022 490 961 c 2,45,-1
 667 697 l 1,46,-1
 871 956 l 2,47,48
 906 1003 906 1003 914 1020 c 128,-1,49
 922 1037 922 1037 922 1054 c 0,50,51
 922 1072 922 1072 913 1085 c 0,52,53
 900 1103 900 1103 880.5 1110 c 128,-1,54
 861 1117 861 1117 799 1118 c 1,55,-1
 799 1150 l 1,56,-1
 1207 1150 l 1,57,-1
 1207 1118 l 1,58,59
 1160 1116 1160 1116 1129 1103 c 0,60,61
 1083 1083 1083 1083 1045 1050.5 c 128,-1,62
 1007 1018 1007 1018 937 929 c 2,63,-1
 709 637 l 1,0,-1
EndSplineSet
EndChar

StartChar: Y
Encoding: 89 89 514
Width: 1254
Flags: W
LayerCount: 2
Fore
SplineSet
828 1150 m 1,0,-1
 1229 1150 l 1,1,-1
 1229 1118 l 1,2,-1
 1206 1118 l 2,3,4
 1185 1118 1185 1118 1142.5 1098.5 c 128,-1,5
 1100 1079 1100 1079 1065 1043 c 128,-1,6
 1030 1007 1030 1007 979 924 c 2,7,-1
 702 488 l 1,8,-1
 702 199 l 2,9,10
 702 93 702 93 726 67 c 0,11,12
 758 32 758 32 828 32 c 2,13,-1
 865 32 l 1,14,-1
 865 0 l 1,15,-1
 376 0 l 1,16,-1
 376 32 l 1,17,-1
 418 32 l 2,18,19
 490 32 490 32 520 75 c 0,20,21
 540 103 540 103 540 199 c 2,22,-1
 540 472 l 1,23,-1
 224 953 l 2,24,25
 167 1038 167 1038 147.5 1059 c 128,-1,26
 128 1080 128 1080 66 1110 c 0,27,28
 49 1118 49 1118 16 1118 c 1,29,-1
 16 1150 l 1,30,-1
 508 1150 l 1,31,-1
 508 1118 l 1,32,-1
 482 1118 l 2,33,34
 443 1118 443 1118 409 1099.5 c 128,-1,35
 375 1081 375 1081 375 1044 c 0,36,37
 375 1013 375 1013 427 934 c 2,38,-1
 668 563 l 1,39,-1
 893 918 l 2,40,41
 943 997 943 997 943 1037 c 0,42,43
 943 1060 943 1060 931 1078.5 c 128,-1,44
 919 1097 919 1097 896 1107.5 c 128,-1,45
 873 1118 873 1118 828 1118 c 1,46,-1
 828 1150 l 1,0,-1
EndSplineSet
EndChar

StartChar: Z
Encoding: 90 90 515
Width: 1061
Flags: W
LayerCount: 2
Fore
SplineSet
999 1150 m 1,0,-1
 244 70 l 1,1,-1
 714 70 l 2,2,3
 824 70 824 70 881.5 117 c 128,-1,4
 939 164 939 164 985 310 c 1,5,-1
 1012 304 l 1,6,-1
 958 0 l 1,7,-1
 22 0 l 1,8,-1
 22 32 l 1,9,-1
 760 1081 l 1,10,-1
 392 1081 l 2,11,12
 300 1081 300 1081 259 1061 c 128,-1,13
 218 1041 218 1041 196.5 1003.5 c 128,-1,14
 175 966 175 966 157 863 c 1,15,-1
 125 863 l 1,16,-1
 148 1150 l 1,17,-1
 999 1150 l 1,0,-1
EndSplineSet
EndChar

StartChar: a
Encoding: 97 97 516
Width: 771
Flags: W
LayerCount: 2
Fore
SplineSet
494 112 m 1,0,1
 375 19 375 19 344 5 c 0,2,3
 299 -16 299 -16 247 -16 c 0,4,5
 166 -16 166 -16 113.5 39 c 128,-1,6
 61 94 61 94 61 184 c 0,7,8
 61 241 61 241 87 282 c 0,9,10
 122 340 122 340 208.5 391 c 128,-1,11
 295 442 295 442 494 515 c 1,12,-1
 494 545 l 2,13,14
 494 661 494 661 457.5 704.5 c 128,-1,15
 421 748 421 748 350 748 c 0,16,17
 297 748 297 748 265 719 c 256,18,19
 233 690 233 690 233 653 c 2,20,-1
 235 604 l 2,21,22
 235 565 235 565 215 544 c 128,-1,23
 195 523 195 523 163 523 c 256,24,25
 131 523 131 523 111 544.5 c 128,-1,26
 91 566 91 566 91 604 c 0,27,28
 91 677 91 677 166 738 c 128,-1,29
 241 799 241 799 375 799 c 0,30,31
 479 799 479 799 545 765 c 0,32,33
 596 739 596 739 619 683 c 0,34,35
 634 647 634 647 634 533 c 2,36,-1
 634 269 l 2,37,38
 634 159 634 159 638 133.5 c 128,-1,39
 642 108 642 108 652 99.5 c 128,-1,40
 662 91 662 91 675 91 c 0,41,42
 689 91 689 91 699 98 c 0,43,44
 717 108 717 108 767 159 c 1,45,-1
 767 112 l 1,46,47
 672 -15 672 -15 586 -15 c 0,48,49
 545 -15 545 -15 520 13.5 c 128,-1,50
 495 42 495 42 494 112 c 1,0,1
494 167 m 1,51,-1
 494 463 l 1,52,53
 367 412 367 412 329 391 c 0,54,55
 262 354 262 354 233.5 313 c 128,-1,56
 205 272 205 272 205 224 c 0,57,58
 205 163 205 163 241.5 123 c 128,-1,59
 278 83 278 83 324 83 c 0,60,61
 389 83 389 83 494 167 c 1,51,-1
EndSplineSet
EndChar

StartChar: b
Encoding: 98 98 517
Width: 868
Flags: W
LayerCount: 2
Fore
SplineSet
267 642 m 1,0,1
 379 799 379 799 511 799 c 0,2,3
 630 799 630 799 719 697.5 c 128,-1,4
 808 596 808 596 808 418 c 0,5,6
 808 211 808 211 671 85 c 0,7,8
 553 -23 553 -23 408 -23 c 0,9,10
 340 -23 340 -23 270 1 c 128,-1,11
 200 25 200 25 127 74 c 1,12,-1
 127 880 l 2,13,14
 127 1011 127 1011 120.5 1042 c 128,-1,15
 114 1073 114 1073 100.5 1084 c 128,-1,16
 87 1095 87 1095 67 1095 c 0,17,18
 43 1095 43 1095 7 1081 c 1,19,-1
 -4 1111 l 1,20,-1
 229 1206 l 1,21,-1
 267 1206 l 1,22,-1
 267 642 l 1,0,1
267 588 m 1,23,-1
 267 124 l 1,24,25
 311 82 311 82 357 60 c 128,-1,26
 403 38 403 38 452 38 c 0,27,28
 528 38 528 38 594.5 123 c 128,-1,29
 661 208 661 208 661 370 c 0,30,31
 661 519 661 519 594.5 599 c 128,-1,32
 528 679 528 679 443 679 c 0,33,34
 399 679 399 679 354 656 c 0,35,36
 320 639 320 639 267 588 c 1,23,-1
EndSplineSet
EndChar

StartChar: c
Encoding: 99 99 518
Width: 771
Flags: W
LayerCount: 2
Fore
SplineSet
714 295 m 1,0,1
 683 142 683 142 591 59.5 c 128,-1,2
 499 -23 499 -23 388 -23 c 0,3,4
 257 -23 257 -23 158 87.5 c 128,-1,5
 59 198 59 198 59 388 c 0,6,7
 59 570 59 570 168.5 684.5 c 128,-1,8
 278 799 278 799 430 799 c 0,9,10
 545 799 545 799 618.5 738.5 c 128,-1,11
 692 678 692 678 692 613 c 0,12,13
 692 581 692 581 671.5 561 c 128,-1,14
 651 541 651 541 613 541 c 0,15,16
 563 541 563 541 537 573 c 0,17,18
 524 591 524 591 519 641 c 128,-1,19
 514 691 514 691 484 718 c 0,20,21
 455 743 455 743 402 743 c 0,22,23
 317 743 317 743 265 681 c 0,24,25
 197 597 197 597 197 460 c 0,26,27
 197 321 197 321 265 214.5 c 128,-1,28
 333 108 333 108 449 108 c 0,29,30
 532 108 532 108 599 165 c 0,31,32
 646 205 646 205 689 307 c 1,33,-1
 714 295 l 1,0,1
EndSplineSet
EndChar

StartChar: d
Encoding: 100 100 519
Width: 868
Flags: W
LayerCount: 2
Fore
SplineSet
603 87 m 1,0,1
 546 28 546 28 492 2.5 c 128,-1,2
 438 -23 438 -23 375 -23 c 0,3,4
 248 -23 248 -23 152.5 83 c 128,-1,5
 57 189 57 189 57 356 c 0,6,7
 57 524 57 524 162.5 662 c 128,-1,8
 268 800 268 800 434 800 c 0,9,10
 536 800 536 800 603 736 c 1,11,-1
 603 879 l 2,12,13
 603 1011 603 1011 596.5 1042 c 128,-1,14
 590 1073 590 1073 576.5 1084 c 128,-1,15
 563 1095 563 1095 543 1095 c 0,16,17
 520 1095 520 1095 484 1081 c 1,18,-1
 473 1111 l 1,19,-1
 705 1206 l 1,20,-1
 743 1206 l 1,21,-1
 743 307 l 2,22,23
 743 172 743 172 749.5 141.5 c 128,-1,24
 756 111 756 111 769.5 99 c 128,-1,25
 783 87 783 87 802 87 c 0,26,27
 825 87 825 87 863 102 c 1,28,-1
 872 72 l 1,29,-1
 642 -23 l 1,30,-1
 603 -23 l 1,31,-1
 603 87 l 1,0,1
603 146 m 1,32,-1
 603 547 l 1,33,34
 598 604 598 604 572.5 652 c 128,-1,35
 547 700 547 700 505 724 c 128,-1,36
 463 748 463 748 423 748 c 0,37,38
 349 748 349 748 290 681 c 0,39,40
 213 593 213 593 213 423 c 0,41,42
 213 252 213 252 288 161 c 128,-1,43
 363 70 363 70 454 70 c 0,44,45
 531 70 531 70 603 146 c 1,32,-1
EndSplineSet
EndChar

StartChar: e
Encoding: 101 101 520
Width: 771
Flags: W
LayerCount: 2
Fore
SplineSet
184 484 m 1,0,1
 184 312 184 312 269 213 c 256,2,3
 354 114 354 114 469 114 c 0,4,5
 545 114 545 114 601 156 c 128,-1,6
 657 198 657 198 695 300 c 1,7,-1
 722 283 l 1,8,9
 704 167 704 167 618 72 c 128,-1,10
 532 -23 532 -23 404 -23 c 0,11,12
 264 -23 264 -23 164.5 85.5 c 128,-1,13
 65 194 65 194 65 378 c 0,14,15
 65 578 65 578 167 689 c 128,-1,16
 269 800 269 800 423 800 c 0,17,18
 553 800 553 800 637.5 714.5 c 128,-1,19
 722 629 722 629 722 484 c 1,20,-1
 184 484 l 1,0,1
184 533 m 1,21,-1
 545 533 l 1,22,23
 541 608 541 608 527 638 c 0,24,25
 506 686 506 686 464 713 c 128,-1,26
 422 740 422 740 375 740 c 0,27,28
 305 740 305 740 249.5 685.5 c 128,-1,29
 194 631 194 631 184 533 c 1,21,-1
EndSplineSet
EndChar

StartChar: f
Encoding: 102 102 521
Width: 579
Flags: W
LayerCount: 2
Fore
SplineSet
358 715 m 1,0,-1
 358 206 l 2,1,2
 358 96 358 96 382 68 c 0,3,4
 413 31 413 31 465 31 c 2,5,-1
 536 31 l 1,6,-1
 536 0 l 1,7,-1
 72 0 l 1,8,-1
 72 31 l 1,9,-1
 107 31 l 2,10,11
 141 31 141 31 169 48 c 128,-1,12
 197 65 197 65 207.5 93.5 c 128,-1,13
 218 122 218 122 218 206 c 2,14,-1
 218 715 l 1,15,-1
 67 715 l 1,16,-1
 67 777 l 1,17,-1
 218 777 l 1,18,-1
 218 828 l 2,19,20
 218 943 218 943 255.5 1024 c 128,-1,21
 293 1105 293 1105 369.5 1154.5 c 128,-1,22
 446 1204 446 1204 542 1204 c 0,23,24
 631 1204 631 1204 706 1147 c 0,25,26
 755 1109 755 1109 755 1061 c 0,27,28
 755 1036 755 1036 732.5 1013 c 128,-1,29
 710 990 710 990 685 990 c 0,30,31
 666 990 666 990 644 1004.5 c 128,-1,32
 622 1019 622 1019 591 1065 c 128,-1,33
 560 1111 560 1111 533 1127 c 0,34,35
 507 1143 507 1143 475 1143 c 0,36,37
 436 1143 436 1143 409 1122 c 128,-1,38
 382 1101 382 1101 370 1057.5 c 128,-1,39
 358 1014 358 1014 358 833 c 2,40,-1
 358 777 l 1,41,-1
 558 777 l 1,42,-1
 558 715 l 1,43,-1
 358 715 l 1,0,-1
EndSplineSet
EndChar

StartChar: g
Encoding: 103 103 522
Width: 868
Flags: W
LayerCount: 2
Fore
SplineSet
262 283 m 1,0,1
 191 318 191 318 152.5 380.5 c 128,-1,2
 114 443 114 443 114 518 c 0,3,4
 114 634 114 634 201 716.5 c 128,-1,5
 288 799 288 799 424 799 c 0,6,7
 535 799 535 799 617 745 c 1,8,-1
 781 745 l 2,9,10
 817 745 817 745 823 743 c 128,-1,11
 829 741 829 741 832 736 c 0,12,13
 837 728 837 728 837 709 c 0,14,15
 837 687 837 687 833 678 c 0,16,17
 830 674 830 674 823.5 671.5 c 128,-1,18
 817 669 817 669 781 669 c 2,19,-1
 681 669 l 1,20,21
 727 608 727 608 727 513 c 0,22,23
 727 405 727 405 644.5 327.5 c 128,-1,24
 562 250 562 250 422 250 c 0,25,26
 364 250 364 250 303 267 c 1,27,28
 266 235 266 235 253 211 c 128,-1,29
 240 187 240 187 240 170 c 0,30,31
 240 155 240 155 254 141.5 c 128,-1,32
 268 128 268 128 308 122 c 0,33,34
 333 119 333 119 427 117 c 0,35,36
 602 112 602 112 654 104 c 0,37,38
 732 93 732 93 779.5 45.5 c 128,-1,39
 827 -2 827 -2 827 -71 c 0,40,41
 827 -167 827 -167 737 -251 c 0,42,43
 604 -375 604 -375 392 -375 c 0,44,45
 228 -375 228 -375 116 -301 c 0,46,47
 52 -259 52 -259 52 -213 c 0,48,49
 52 -193 52 -193 61 -172 c 0,50,51
 75 -141 75 -141 121 -85 c 0,52,53
 126 -77 126 -77 207 6 c 1,54,55
 163 33 163 33 144.5 53.5 c 128,-1,56
 126 74 126 74 126 101 c 0,57,58
 126 130 126 130 150.5 170 c 128,-1,59
 175 210 175 210 262 283 c 1,0,1
409 759 m 0,60,61
 347 759 347 759 304.5 709 c 128,-1,62
 262 659 262 659 262 555 c 0,63,64
 262 422 262 422 320 348 c 0,65,66
 364 291 364 291 431 291 c 0,67,68
 496 291 496 291 537.5 339.5 c 128,-1,69
 579 388 579 388 579 492 c 0,70,71
 579 626 579 626 520 703 c 0,72,73
 477 759 477 759 409 759 c 0,60,61
253 0 m 1,74,75
 214 -43 214 -43 193.5 -80.5 c 128,-1,76
 173 -118 173 -118 173 -149 c 0,77,78
 173 -190 173 -190 223 -220 c 0,79,80
 307 -273 307 -273 467 -273 c 0,81,82
 620 -273 620 -273 692.5 -219 c 128,-1,83
 765 -165 765 -165 765 -104 c 0,84,85
 765 -60 765 -60 722 -41 c 0,86,87
 677 -23 677 -23 547 -19 c 0,88,89
 356 -15 356 -15 253 0 c 1,74,75
EndSplineSet
EndChar

StartChar: h
Encoding: 104 104 523
Width: 868
Flags: W
LayerCount: 2
Fore
SplineSet
282 1206 m 1,0,-1
 282 638 l 1,1,2
 376 741 376 741 431.5 770 c 128,-1,3
 487 799 487 799 542 799 c 0,4,5
 608 799 608 799 655.5 763 c 128,-1,6
 703 727 703 727 726 649 c 0,7,8
 742 595 742 595 742 450 c 2,9,-1
 742 176 l 2,10,11
 742 102 742 102 754 74 c 0,12,13
 762 54 762 54 782.5 42.5 c 128,-1,14
 803 31 803 31 858 31 c 1,15,-1
 858 0 l 1,16,-1
 476 0 l 1,17,-1
 476 31 l 1,18,-1
 494 31 l 2,19,20
 548 31 548 31 569 47.5 c 128,-1,21
 590 64 590 64 599 95 c 0,22,23
 601 109 601 109 601 176 c 2,24,-1
 601 450 l 2,25,26
 601 578 601 578 588 617.5 c 128,-1,27
 575 657 575 657 546 677 c 128,-1,28
 517 697 517 697 477 697 c 0,29,30
 435 697 435 697 390.5 675 c 128,-1,31
 346 653 346 653 282 586 c 1,32,-1
 282 176 l 2,33,34
 282 95 282 95 291 76 c 128,-1,35
 300 57 300 57 324.5 44 c 128,-1,36
 349 31 349 31 408 31 c 1,37,-1
 408 0 l 1,38,-1
 23 0 l 1,39,-1
 23 31 l 1,40,41
 74 31 74 31 104 47 c 0,42,43
 121 55 121 55 131.5 79 c 128,-1,44
 142 103 142 103 142 176 c 2,45,-1
 142 879 l 2,46,47
 142 1011 142 1011 135.5 1042 c 128,-1,48
 129 1073 129 1073 116 1084 c 128,-1,49
 103 1095 103 1095 81 1095 c 0,50,51
 63 1095 63 1095 23 1081 c 1,52,-1
 11 1111 l 1,53,-1
 244 1206 l 1,54,-1
 282 1206 l 1,0,-1
EndSplineSet
EndChar

StartChar: i
Encoding: 105 105 524
Width: 482
Flags: W
LayerCount: 2
Fore
SplineSet
252 1206 m 0,0,1
 287 1206 287 1206 312 1180.5 c 128,-1,2
 337 1155 337 1155 337 1120 c 0,3,4
 337 1084 337 1084 312 1058.5 c 128,-1,5
 287 1033 287 1033 252 1033 c 0,6,7
 216 1033 216 1033 190.5 1058.5 c 128,-1,8
 165 1084 165 1084 165 1120 c 0,9,10
 165 1155 165 1155 190 1180.5 c 128,-1,11
 215 1206 215 1206 252 1206 c 0,0,1
322 799 m 1,12,-1
 322 176 l 2,13,14
 322 103 322 103 332.5 78.5 c 128,-1,15
 343 54 343 54 364 42.5 c 128,-1,16
 385 31 385 31 440 31 c 1,17,-1
 440 0 l 1,18,-1
 63 0 l 1,19,-1
 63 31 l 1,20,21
 120 31 120 31 139.5 42 c 128,-1,22
 159 53 159 53 170 78.5 c 128,-1,23
 181 104 181 104 181 176 c 2,24,-1
 181 475 l 2,25,26
 181 601 181 601 174 638 c 0,27,28
 167 666 167 666 154.5 676.5 c 128,-1,29
 142 687 142 687 121 687 c 0,30,31
 96 687 96 687 63 674 c 1,32,-1
 51 705 l 1,33,-1
 285 799 l 1,34,-1
 322 799 l 1,12,-1
EndSplineSet
EndChar

StartChar: j
Encoding: 106 106 525
Width: 482
Flags: W
LayerCount: 2
Fore
SplineSet
251 1206 m 256,0,1
 287 1206 287 1206 312.5 1180.5 c 128,-1,2
 338 1155 338 1155 338 1119 c 256,3,4
 338 1083 338 1083 312.5 1057.5 c 128,-1,5
 287 1032 287 1032 251 1032 c 256,6,7
 215 1032 215 1032 189.5 1057.5 c 128,-1,8
 164 1083 164 1083 164 1119 c 256,9,10
 164 1155 164 1155 189.5 1180.5 c 128,-1,11
 215 1206 215 1206 251 1206 c 256,0,1
324 799 m 1,12,-1
 324 18 l 2,13,14
 324 -181 324 -181 239.5 -278 c 128,-1,15
 155 -375 155 -375 19 -375 c 0,16,17
 -58 -375 -58 -375 -96 -347 c 128,-1,18
 -134 -319 -134 -319 -134 -289 c 0,19,20
 -134 -260 -134 -260 -112.5 -238.5 c 128,-1,21
 -91 -217 -91 -217 -64 -217 c 0,22,23
 -41 -217 -41 -217 -19 -228 c 0,24,25
 -4 -234 -4 -234 37 -270.5 c 128,-1,26
 78 -307 78 -307 106 -307 c 0,27,28
 126 -307 126 -307 145.5 -292 c 128,-1,29
 165 -277 165 -277 174.5 -239.5 c 128,-1,30
 184 -202 184 -202 184 -80 c 2,31,-1
 184 473 l 2,32,33
 184 601 184 601 176 638 c 0,34,35
 171 666 171 666 158 676.5 c 128,-1,36
 145 687 145 687 123 687 c 0,37,38
 100 687 100 687 66 674 c 1,39,-1
 53 705 l 1,40,-1
 287 799 l 1,41,-1
 324 799 l 1,12,-1
EndSplineSet
EndChar

StartChar: k
Encoding: 107 107 526
Width: 868
Flags: W
LayerCount: 2
Fore
SplineSet
284 1206 m 1,0,-1
 284 432 l 1,1,-1
 481 613 l 2,2,3
 545 671 545 671 554 686 c 0,4,5
 562 696 562 696 562 706 c 0,6,7
 562 723 562 723 547.5 735.5 c 128,-1,8
 533 748 533 748 501 749 c 1,9,-1
 501 777 l 1,10,-1
 838 777 l 1,11,-1
 838 749 l 1,12,13
 770 748 770 748 723 728.5 c 128,-1,14
 676 709 676 709 621 659 c 2,15,-1
 422 475 l 1,16,-1
 621 223 l 2,17,18
 705 119 705 119 734 91 c 0,19,20
 774 51 774 51 805 39 c 0,21,22
 826 31 826 31 879 31 c 1,23,-1
 879 0 l 1,24,-1
 501 0 l 1,25,-1
 501 31 l 1,26,27
 533 32 533 32 544.5 40.5 c 128,-1,28
 556 49 556 49 556 66 c 0,29,30
 556 85 556 85 523 128 c 2,31,-1
 284 432 l 1,32,-1
 284 175 l 2,33,34
 284 100 284 100 294.5 76 c 128,-1,35
 305 52 305 52 324.5 42 c 128,-1,36
 344 32 344 32 409 31 c 1,37,-1
 409 0 l 1,38,-1
 15 0 l 1,39,-1
 15 31 l 1,40,41
 74 31 74 31 104 45 c 0,42,43
 121 54 121 54 130 74 c 0,44,45
 143 102 143 102 143 171 c 2,46,-1
 143 878 l 2,47,48
 143 1012 143 1012 137 1042.5 c 128,-1,49
 131 1073 131 1073 117.5 1084.5 c 128,-1,50
 104 1096 104 1096 83 1096 c 0,51,52
 65 1096 65 1096 29 1081 c 1,53,-1
 15 1111 l 1,54,-1
 245 1206 l 1,55,-1
 284 1206 l 1,0,-1
EndSplineSet
EndChar

